<svg width="1388" height="532" viewBox="0 0 1388 532" fill="none" xmlns="http://www.w3.org/2000/svg">
<path d="M0.00195312 532V0H1388V492.15V524C1388 528.418 1384.42 532 1380 532H0.00195312Z" fill="white"/>
<rect x="574.002" y="70" width="240" height="72" rx="8" fill="#BA141A"/>
<path d="M684.369 98.6112V114.66H682.1V98.6112H684.369ZM671.447 105.436C671.44 101.955 673.231 99.7424 675.679 99.7424C678.097 99.7424 679.887 101.955 679.894 105.436C679.887 108.954 678.097 111.154 675.679 111.154C673.231 111.154 671.44 108.954 671.447 105.436ZM673.616 105.436C673.603 107.829 674.436 109.122 675.679 109.122C676.898 109.122 677.724 107.829 677.724 105.436C677.724 103.068 676.898 101.769 675.679 101.769C674.436 101.769 673.603 103.068 673.616 105.436ZM692.423 102.241C692.411 105.106 693.635 107.997 696.202 109.24L694.847 111.023C693.138 110.178 691.976 108.599 691.311 106.673C690.615 108.742 689.378 110.433 687.563 111.334L686.189 109.513C688.893 108.27 690.173 105.212 690.179 102.241V99.8481H692.423V102.241ZM696.911 114.622V98.6112H699.155V104.783H701.516V106.679H699.155V114.622H696.911ZM711.187 99.6927V101.483H707.992C708.005 103.347 709.136 105.15 711.684 105.908L710.621 107.661C708.844 107.126 707.619 106.051 706.911 104.684C706.202 106.287 704.903 107.568 702.989 108.195L701.851 106.424C704.499 105.585 705.705 103.515 705.73 101.483H702.461V99.6927H711.187ZM704.058 111.508C704.052 109.557 706.153 108.419 709.534 108.425C712.871 108.419 714.935 109.557 714.935 111.508C714.935 113.46 712.871 114.622 709.534 114.616C706.153 114.622 704.052 113.46 704.058 111.508ZM706.302 111.508C706.295 112.422 707.439 112.876 709.534 112.869C711.616 112.876 712.722 112.422 712.722 111.508C712.722 110.607 711.616 110.166 709.534 110.172C707.439 110.166 706.295 110.607 706.302 111.508ZM712.536 108.115V98.6112H714.786V102.334H716.936V104.162H714.786V108.115H712.536Z" fill="white"/>
<line x1="694.502" y1="142" x2="694.502" y2="182" stroke="#DFDFDF"/>
<rect x="574.502" y="182.5" width="239" height="71" rx="7.5" fill="white"/>
<rect x="574.502" y="182.5" width="239" height="71" rx="7.5" stroke="#BA141A"/>
<path d="M692.029 209.639V221.715H689.779V220.449H686.721V218.92H689.779V209.639H692.029ZM678.424 216.723C681.351 216.705 685.306 216.661 688.689 216.248L688.812 217.848C687.547 218.059 686.237 218.208 684.945 218.305V221.346H682.695V223.543H692.381V225.336H680.463V220.555H682.695V218.437C681.263 218.489 679.9 218.498 678.688 218.498L678.424 216.723ZM679.602 213.049C679.602 211.344 681.245 210.175 683.627 210.184C685.947 210.175 687.608 211.344 687.617 213.049C687.608 214.763 685.947 215.87 683.627 215.861C681.245 215.87 679.602 214.763 679.602 213.049ZM681.729 213.049C681.72 213.822 682.484 214.253 683.627 214.244C684.699 214.253 685.473 213.822 685.49 213.049C685.473 212.258 684.699 211.818 683.627 211.818C682.484 211.818 681.72 212.258 681.729 213.049ZM703.121 210.693V212.486H699.939C699.948 214.35 701.082 216.151 703.631 216.898L702.559 218.656C700.792 218.12 699.562 217.039 698.858 215.677C698.146 217.285 696.846 218.568 694.93 219.201L693.787 217.426C696.441 216.591 697.646 214.517 697.672 212.486H694.402V210.693H703.121ZM696.002 222.506C695.993 220.555 698.103 219.421 701.486 219.43C704.817 219.421 706.874 220.555 706.883 222.506C706.874 224.466 704.817 225.626 701.486 225.617C698.103 225.626 695.993 224.466 696.002 222.506ZM698.252 222.506C698.234 223.42 699.386 223.877 701.486 223.877C703.561 223.877 704.668 223.42 704.668 222.506C704.668 221.609 703.561 221.161 701.486 221.17C699.386 221.161 698.234 221.609 698.252 222.506ZM704.475 219.113V209.621H706.725V213.33H708.887V215.158H706.725V219.113H704.475Z" fill="#BA141A"/>
<rect x="830.002" y="182" width="240" height="72" rx="8" fill="#BA141A" fill-opacity="0.08"/>
<path d="M940.369 210.611V226.66H938.1V210.611H940.369ZM927.447 217.436C927.44 213.955 929.231 211.742 931.679 211.742C934.097 211.742 935.887 213.955 935.894 217.436C935.887 220.954 934.097 223.154 931.679 223.154C929.231 223.154 927.44 220.954 927.447 217.436ZM929.616 217.436C929.603 219.829 930.436 221.122 931.679 221.122C932.898 221.122 933.724 219.829 933.724 217.436C933.724 215.068 932.898 213.769 931.679 213.769C930.436 213.769 929.603 215.068 929.616 217.436ZM948.423 214.241C948.411 217.106 949.635 219.997 952.202 221.24L950.847 223.023C949.138 222.178 947.976 220.599 947.311 218.673C946.615 220.742 945.378 222.433 943.563 223.334L942.189 221.513C944.893 220.27 946.173 217.212 946.179 214.241V211.848H948.423V214.241ZM952.911 226.622V210.611H955.155V216.783H957.516V218.679H955.155V226.622H952.911ZM971.532 210.611V226.622H969.3V210.611H971.532ZM958.162 222.104C959.38 222.097 960.779 222.091 962.233 222.06V220.705C960.481 220.388 959.343 219.294 959.349 217.802C959.343 216.006 960.972 214.788 963.327 214.788C965.702 214.788 967.355 216.006 967.355 217.802C967.355 219.288 966.211 220.376 964.465 220.699V221.979C965.801 221.911 967.15 221.805 968.424 221.631L968.573 223.297C965.08 223.9 961.307 223.931 958.454 223.931L958.162 222.104ZM958.479 214.16V212.401H962.233V210.692H964.477V212.401H968.194V214.16H958.479ZM961.481 217.802C961.475 218.642 962.24 219.095 963.327 219.095C964.452 219.095 965.211 218.642 965.211 217.802C965.211 216.97 964.452 216.497 963.327 216.497C962.24 216.497 961.475 216.97 961.481 217.802Z" fill="#BA141A"/>
<line x1="694.502" y1="254" x2="694.502" y2="350" stroke="#DFDFDF"/>
<line x1="998.002" y1="350.5" x2="390.002" y2="350.5" stroke="#DFDFDF"/>
<line x1="390.502" y1="350" x2="390.502" y2="390" stroke="#DFDFDF"/>
<rect x="270.502" y="390.5" width="239" height="71" rx="7.5" fill="white"/>
<rect x="270.502" y="390.5" width="239" height="71" rx="7.5" stroke="#DFDFDF"/>
<path d="M364.713 417.762V427.078H363.043V425.162H359.07V423.791H363.043V421.875H359.237C358.218 424.406 355.854 426.19 352.443 427.166L351.775 425.865C355.502 424.802 357.682 422.798 357.98 420.258H352.584V418.887H359.791C359.791 419.467 359.729 420.029 359.624 420.557H363.043V417.762H364.713ZM354.219 430.33C354.219 428.423 356.293 427.263 359.527 427.254C362.718 427.263 364.81 428.423 364.818 430.33C364.81 432.246 362.718 433.424 359.527 433.424C356.293 433.424 354.219 432.246 354.219 430.33ZM355.871 430.33C355.871 431.438 357.277 432.079 359.527 432.088C361.733 432.079 363.14 431.438 363.148 430.33C363.14 429.205 361.733 428.563 359.527 428.572C357.277 428.563 355.871 429.205 355.871 430.33ZM371.498 418.658C372.808 418.649 373.924 419.142 374.662 419.959H378.6V417.744H380.27V427.043H378.6V424.916H374.653C373.915 425.725 372.799 426.208 371.498 426.199C369.125 426.208 367.358 424.635 367.367 422.438C367.358 420.214 369.125 418.649 371.498 418.658ZM368.967 422.438C368.958 423.817 370.021 424.793 371.498 424.775C372.931 424.793 373.994 423.817 373.994 422.438C373.994 421.022 372.931 420.082 371.498 420.1C370.021 420.082 368.958 421.022 368.967 422.438ZM369.67 430.436C369.661 428.511 371.7 427.386 374.996 427.395C378.274 427.386 380.313 428.511 380.322 430.436C380.313 432.352 378.274 433.468 374.996 433.459C371.7 433.468 369.661 432.352 369.67 430.436ZM371.305 430.436C371.296 431.517 372.685 432.149 374.996 432.141C377.308 432.149 378.688 431.517 378.688 430.436C378.688 429.311 377.308 428.687 374.996 428.678C372.685 428.687 371.296 429.311 371.305 430.436ZM375.427 421.295C375.532 421.646 375.594 422.033 375.594 422.438C375.594 422.824 375.532 423.202 375.427 423.545H378.6V421.295H375.427ZM388.496 422.385C388.487 425.021 390.219 427.746 392.645 428.783L391.73 430.084C389.876 429.267 388.399 427.526 387.67 425.426C386.94 427.676 385.464 429.592 383.627 430.488L382.66 429.17C385.033 428.054 386.791 425.101 386.809 422.385V420.715H383.205V419.326H392.082V420.715H388.496V422.385ZM394.068 433.494V417.744H395.738V433.494H394.068ZM411.348 417.762V429.697H409.678V428.186H406.514V427.008H409.678V417.762H411.348ZM398.182 424.951C401.091 424.925 405.02 424.898 408.377 424.477L408.482 425.672C407.138 425.9 405.723 426.041 404.334 426.138V429.205H402.664V426.226C401.135 426.287 399.667 426.287 398.393 426.287L398.182 424.951ZM399.412 421.137C399.403 419.467 400.994 418.359 403.332 418.359C405.635 418.359 407.234 419.467 407.234 421.137C407.234 422.815 405.635 423.879 403.332 423.879C401.003 423.879 399.403 422.815 399.412 421.137ZM400.361 433.16V428.537H402.014V431.807H411.734V433.16H400.361ZM400.994 421.137C400.985 422.068 401.935 422.648 403.332 422.648C404.677 422.648 405.644 422.068 405.652 421.137C405.644 420.196 404.677 419.59 403.332 419.607C401.935 419.59 400.985 420.196 400.994 421.137ZM426.852 417.744V425.848H425.199V417.744H426.852ZM413.861 424.441C416.322 423.624 417.825 421.559 417.834 419.379V418.166H419.539V419.379C419.53 421.488 421.042 423.404 423.459 424.16L422.633 425.461C420.796 424.863 419.416 423.624 418.704 422.024C417.992 423.747 416.586 425.118 414.705 425.76L413.861 424.441ZM416.516 427.922V426.604H426.869V430.541H418.186V432H427.396V433.336H416.568V429.275H425.217V427.922H416.516Z" fill="#333333"/>
<line x1="694.502" y1="350" x2="694.502" y2="390" stroke="#DFDFDF"/>
<rect x="574.502" y="390.5" width="239" height="71" rx="7.5" fill="white"/>
<rect x="574.502" y="390.5" width="239" height="71" rx="7.5" stroke="#DFDFDF"/>
<path d="M660.625 417.744V433.529H658.955V417.744H660.625ZM648.584 429.662V419.203H656.125V420.592H650.271V428.238C653.251 428.229 655.167 428.142 657.391 427.746L657.566 429.135C655.211 429.565 653.154 429.653 649.885 429.662H648.584ZM668.939 422.385C668.931 425.021 670.662 427.746 673.088 428.783L672.174 430.084C670.319 429.267 668.843 427.526 668.113 425.426C667.384 427.676 665.907 429.592 664.07 430.488L663.104 429.17C665.477 428.054 667.234 425.101 667.252 422.385V420.715H663.648V419.326H672.525V420.715H668.939V422.385ZM674.512 433.494V417.744H676.182V433.494H674.512ZM686.693 418.676V420.029H681.139V421.471H686.236V422.736H681.139V424.336C683.837 424.327 685.472 424.283 687.432 423.967L687.572 425.303C685.454 425.646 683.696 425.672 680.664 425.672H679.486V418.676H686.693ZM681.508 428.168V426.867H691.809V430.682H683.213V432.035H692.371V433.336H681.543V429.434H690.156V428.168H681.508ZM687.291 422.613V421.277H690.156V417.744H691.809V426.199H690.156V422.613H687.291ZM699.719 420.627C699.719 422.736 701.187 424.723 703.586 425.531L702.725 426.85C700.958 426.234 699.64 424.978 698.945 423.387C698.26 425.162 696.906 426.533 695.061 427.219L694.129 425.9C696.625 425.048 698.058 422.921 698.066 420.574V418.711H699.719V420.627ZM696.66 433.16V428.221H698.365V431.807H707.312V433.16H696.66ZM704.957 429.346V417.727H706.627V422.473H708.912V423.896H706.627V429.346H704.957ZM714.168 418.465C716.242 418.447 717.851 419.651 718.193 421.418H721.27V417.744H722.939V426.199H721.27V422.789H718.202C717.877 424.6 716.26 425.812 714.168 425.812C711.76 425.812 710.028 424.292 710.037 422.121C710.028 419.977 711.76 418.447 714.168 418.465ZM711.637 422.121C711.628 423.466 712.683 424.406 714.168 424.406C715.627 424.406 716.664 423.466 716.664 422.121C716.664 420.768 715.627 419.845 714.168 419.854C712.683 419.845 711.628 420.768 711.637 422.121ZM712.674 433.301V426.955H714.326V428.783H721.27V426.955H722.939V433.301H712.674ZM714.326 431.93H721.27V430.102H714.326V431.93ZM739.762 427.008V428.326H733.328V433.494H731.693V428.326H725.348V427.008H739.762ZM727.141 425.215V418.377H728.793V420.434H736.281V418.377H737.951V425.215H727.141ZM728.793 423.879H736.281V421.77H728.793V423.879Z" fill="#333333"/>
<line x1="998.502" y1="350" x2="998.502" y2="390" stroke="#DFDFDF"/>
<rect x="878.502" y="390.5" width="239" height="71" rx="7.5" fill="white"/>
<rect x="878.502" y="390.5" width="239" height="71" rx="7.5" stroke="#DFDFDF"/>
<path d="M958.496 430.137V431.525H944.082V430.137H950.428V426.498H945.734V419.01H956.773V426.498H952.08V430.137H958.496ZM947.352 425.18H955.139V420.346H947.352V425.18ZM972.682 417.744V425.936H971.029V417.744H972.682ZM960.465 425.303V418.395H962.1V420.539H966.301V418.395H967.953V425.303H960.465ZM962.1 423.967H966.301V421.822H962.1V423.967ZM962.346 427.992V426.691H972.699V430.559H964.016V432.035H973.227V433.336H962.398V429.346H971.047V427.992H962.346ZM988.273 417.744V433.529H986.604V417.744H988.273ZM976.074 420.521V419.168H983.457V424.916H977.797V428.361C980.354 428.353 982.578 428.229 985.215 427.799L985.373 429.17C982.587 429.636 980.214 429.741 977.428 429.75H976.092V423.58H981.752V420.521H976.074ZM999.506 419.133V420.504H993.371V423.545H998.908V424.881H993.371V428.414C996.122 428.396 998.117 428.3 1000.46 427.922L1000.63 429.275C998.135 429.68 995.973 429.759 993.002 429.768H991.719V419.133H999.506ZM1002.16 433.494V417.744H1003.85V433.494H1002.16ZM1011.78 420.627C1011.78 422.736 1013.24 424.723 1015.64 425.531L1014.78 426.85C1013.01 426.234 1011.7 424.978 1011 423.387C1010.32 425.162 1008.96 426.533 1007.12 427.219L1006.19 425.9C1008.68 425.048 1010.11 422.921 1010.12 420.574V418.711H1011.78V420.627ZM1008.72 433.16V428.221H1010.42V431.807H1019.37V433.16H1008.72ZM1017.01 429.346V417.727H1018.68V422.473H1020.97V423.896H1018.68V429.346H1017.01ZM1026.22 418.465C1028.3 418.447 1029.91 419.651 1030.25 421.418H1033.33V417.744H1035V426.199H1033.33V422.789H1030.26C1029.93 424.6 1028.32 425.812 1026.22 425.812C1023.82 425.812 1022.08 424.292 1022.09 422.121C1022.08 419.977 1023.82 418.447 1026.22 418.465ZM1023.69 422.121C1023.68 423.466 1024.74 424.406 1026.22 424.406C1027.68 424.406 1028.72 423.466 1028.72 422.121C1028.72 420.768 1027.68 419.845 1026.22 419.854C1024.74 419.845 1023.68 420.768 1023.69 422.121ZM1024.73 433.301V426.955H1026.38V428.783H1033.33V426.955H1035V433.301H1024.73ZM1026.38 431.93H1033.33V430.102H1026.38V431.93ZM1051.82 427.008V428.326H1045.38V433.494H1043.75V428.326H1037.4V427.008H1051.82ZM1039.2 425.215V418.377H1040.85V420.434H1048.34V418.377H1050.01V425.215H1039.2ZM1040.85 423.879H1048.34V421.77H1040.85V423.879Z" fill="#333333"/>
</svg>
