<svg width="320" height="376" viewBox="0 0 320 376" fill="none" xmlns="http://www.w3.org/2000/svg">
<rect width="320" height="376" fill="white"/>
<rect x="100" y="32" width="120" height="52" rx="8" fill="#BA141A"/>
<path d="M152.287 51.8164V64.2852H150.523V51.8164H152.287ZM142.238 57.1211C142.231 54.4072 143.619 52.6914 145.533 52.6914C147.406 52.6914 148.801 54.4072 148.801 57.1211C148.801 59.8555 147.406 61.5645 145.533 61.5645C143.619 61.5645 142.231 59.8555 142.238 57.1211ZM143.92 57.1211C143.913 58.9736 144.562 59.9854 145.533 59.9785C146.477 59.9854 147.112 58.9736 147.119 57.1211C147.112 55.2754 146.477 54.2637 145.533 54.2637C144.562 54.2637 143.913 55.2754 143.92 57.1211ZM158.549 54.6328C158.542 56.8613 159.492 59.1104 161.488 60.0742L160.436 61.4688C159.103 60.8057 158.2 59.5752 157.688 58.0781C157.141 59.6846 156.184 61.0039 154.775 61.7012L153.695 60.293C155.808 59.3223 156.799 56.9434 156.799 54.6328V52.7734H158.549V54.6328ZM162.035 64.2578V51.8164H163.785V56.6152H165.617V58.0918H163.785V64.2578H162.035ZM173.137 52.6504V54.0449H170.662C170.669 55.4941 171.551 56.8955 173.533 57.4766L172.699 58.8438C171.325 58.4268 170.368 57.5859 169.821 56.5264C169.268 57.7773 168.256 58.7754 166.766 59.2676L165.877 57.8867C167.941 57.2373 168.878 55.624 168.898 54.0449H166.355V52.6504H173.137ZM167.6 61.8379C167.593 60.3203 169.233 59.4385 171.865 59.4453C174.456 59.4385 176.056 60.3203 176.062 61.8379C176.056 63.3623 174.456 64.2646 171.865 64.2578C169.233 64.2646 167.593 63.3623 167.6 61.8379ZM169.35 61.8379C169.336 62.5488 170.231 62.9043 171.865 62.9043C173.479 62.9043 174.34 62.5488 174.34 61.8379C174.34 61.1406 173.479 60.792 171.865 60.7988C170.231 60.792 169.336 61.1406 169.35 61.8379ZM174.189 59.1992V51.8164H175.939V54.7012H177.621V56.123H175.939V59.1992H174.189Z" fill="white"/>
<line x1="159.5" y1="108" x2="159.5" y2="84" stroke="#DFDFDF"/>
<rect x="100.5" y="108.5" width="119" height="51" rx="7.5" fill="white"/>
<rect x="100.5" y="108.5" width="119" height="51" rx="7.5" stroke="#BA141A"/>
<path d="M158.41 127.83V137.223H156.66V136.238H154.281V135.049H156.66V127.83H158.41ZM147.828 133.34C150.104 133.326 153.181 133.292 155.812 132.971L155.908 134.215C154.924 134.379 153.905 134.495 152.9 134.57V136.936H151.15V138.645H158.684V140.039H149.414V136.32H151.15V134.673C150.036 134.714 148.977 134.721 148.033 134.721L147.828 133.34ZM148.744 130.482C148.744 129.156 150.022 128.247 151.875 128.254C153.68 128.247 154.972 129.156 154.979 130.482C154.972 131.815 153.68 132.677 151.875 132.67C150.022 132.677 148.744 131.815 148.744 130.482ZM150.398 130.482C150.392 131.084 150.986 131.419 151.875 131.412C152.709 131.419 153.311 131.084 153.324 130.482C153.311 129.867 152.709 129.525 151.875 129.525C150.986 129.525 150.392 129.867 150.398 130.482ZM167.037 128.65V130.045H164.562C164.569 131.494 165.451 132.896 167.434 133.477L166.6 134.844C165.226 134.427 164.269 133.586 163.722 132.526C163.168 133.777 162.156 134.775 160.666 135.268L159.777 133.887C161.842 133.237 162.778 131.624 162.799 130.045H160.256V128.65H167.037ZM161.5 137.838C161.493 136.32 163.134 135.438 165.766 135.445C168.356 135.438 169.956 136.32 169.963 137.838C169.956 139.362 168.356 140.265 165.766 140.258C163.134 140.265 161.493 139.362 161.5 137.838ZM163.25 137.838C163.236 138.549 164.132 138.904 165.766 138.904C167.379 138.904 168.24 138.549 168.24 137.838C168.24 137.141 167.379 136.792 165.766 136.799C164.132 136.792 163.236 137.141 163.25 137.838ZM168.09 135.199V127.816H169.84V130.701H171.521V132.123H169.84V135.199H168.09Z" fill="#BA141A"/>
<line x1="159.5" y1="260" x2="159.5" y2="160" stroke="#DFDFDF"/>
<line x1="255.5" y1="240.5" x2="64.5" y2="240.5" stroke="#DFDFDF"/>
<line x1="63.5" y1="264" x2="63.5" y2="240" stroke="#DFDFDF"/>
<rect x="24.5" y="264.5" width="79" height="79" rx="7.5" fill="white"/>
<rect x="24.5" y="264.5" width="79" height="79" rx="7.5" stroke="#DFDFDF"/>
<path d="M62.5645 287.926V295.172H61.2656V293.682H58.1758V292.615H61.2656V291.125H58.3057C57.5127 293.094 55.6738 294.481 53.0215 295.24L52.502 294.229C55.4004 293.401 57.0957 291.843 57.3281 289.867H53.1309V288.801H58.7363C58.7363 289.252 58.6885 289.689 58.6064 290.1H61.2656V287.926H62.5645ZM54.4023 297.701C54.4023 296.218 56.0156 295.315 58.5312 295.309C61.0127 295.315 62.6396 296.218 62.6465 297.701C62.6396 299.191 61.0127 300.107 58.5312 300.107C56.0156 300.107 54.4023 299.191 54.4023 297.701ZM55.6875 297.701C55.6875 298.562 56.7812 299.062 58.5312 299.068C60.2471 299.062 61.3408 298.562 61.3477 297.701C61.3408 296.826 60.2471 296.327 58.5312 296.334C56.7812 296.327 55.6875 296.826 55.6875 297.701ZM67.8418 288.623C68.8604 288.616 69.7285 288.999 70.3027 289.635H73.3652V287.912H74.6641V295.145H73.3652V293.49H70.2959C69.7217 294.119 68.8535 294.495 67.8418 294.488C65.9961 294.495 64.6221 293.271 64.6289 291.562C64.6221 289.833 65.9961 288.616 67.8418 288.623ZM65.873 291.562C65.8662 292.636 66.6934 293.395 67.8418 293.381C68.9561 293.395 69.7832 292.636 69.7832 291.562C69.7832 290.462 68.9561 289.73 67.8418 289.744C66.6934 289.73 65.8662 290.462 65.873 291.562ZM66.4199 297.783C66.4131 296.286 67.999 295.411 70.5625 295.418C73.1123 295.411 74.6982 296.286 74.7051 297.783C74.6982 299.273 73.1123 300.142 70.5625 300.135C67.999 300.142 66.4131 299.273 66.4199 297.783ZM67.6914 297.783C67.6846 298.624 68.7646 299.116 70.5625 299.109C72.3604 299.116 73.4336 298.624 73.4336 297.783C73.4336 296.908 72.3604 296.423 70.5625 296.416C68.7646 296.423 67.6846 296.908 67.6914 297.783ZM70.8975 290.674C70.9795 290.947 71.0273 291.248 71.0273 291.562C71.0273 291.863 70.9795 292.157 70.8975 292.424H73.3652V290.674H70.8975ZM50.8135 311.521C50.8066 313.572 52.1533 315.691 54.04 316.498L53.3291 317.51C51.8867 316.874 50.7383 315.521 50.1709 313.887C49.6035 315.637 48.4551 317.127 47.0264 317.824L46.2744 316.799C48.1201 315.931 49.4873 313.634 49.501 311.521V310.223H46.6982V309.143H53.6025V310.223H50.8135V311.521ZM55.1475 320.162V307.912H56.4463V320.162H55.1475ZM68.5869 307.926V317.209H67.2881V316.033H64.8271V315.117H67.2881V307.926H68.5869ZM58.3467 313.518C60.6094 313.497 63.665 313.477 66.2764 313.148L66.3584 314.078C65.3125 314.256 64.2119 314.365 63.1318 314.44V316.826H61.833V314.509C60.6436 314.557 59.502 314.557 58.5107 314.557L58.3467 313.518ZM59.3037 310.551C59.2969 309.252 60.5342 308.391 62.3525 308.391C64.1436 308.391 65.3877 309.252 65.3877 310.551C65.3877 311.856 64.1436 312.684 62.3525 312.684C60.541 312.684 59.2969 311.856 59.3037 310.551ZM60.042 319.902V316.307H61.3271V318.85H68.8877V319.902H60.042ZM60.5342 310.551C60.5273 311.275 61.2656 311.727 62.3525 311.727C63.3984 311.727 64.1504 311.275 64.1572 310.551C64.1504 309.819 63.3984 309.348 62.3525 309.361C61.2656 309.348 60.5273 309.819 60.5342 310.551ZM80.6455 307.912V314.215H79.3604V307.912H80.6455ZM70.542 313.121C72.4561 312.485 73.625 310.879 73.6318 309.184V308.24H74.958V309.184C74.9512 310.824 76.127 312.314 78.0068 312.902L77.3643 313.914C75.9355 313.449 74.8623 312.485 74.3086 311.241C73.7549 312.581 72.6611 313.647 71.1982 314.146L70.542 313.121ZM72.6064 315.828V314.803H80.6592V317.865H73.9053V319H81.0693V320.039H72.6475V316.881H79.374V315.828H72.6064Z" fill="#333333"/>
<line x1="159.5" y1="264" x2="159.5" y2="240" stroke="#DFDFDF"/>
<rect x="120.5" y="264.5" width="79" height="79" rx="7.5" fill="white"/>
<rect x="120.5" y="264.5" width="79" height="79" rx="7.5" stroke="#DFDFDF"/>
<path d="M152.446 287.912V300.189H151.147V287.912H152.446ZM143.081 297.182V289.047H148.946V290.127H144.394V296.074C146.711 296.067 148.201 295.999 149.931 295.691L150.067 296.771C148.235 297.106 146.636 297.175 144.093 297.182H143.081ZM158.913 291.521C158.906 293.572 160.253 295.691 162.14 296.498L161.429 297.51C159.986 296.874 158.838 295.521 158.271 293.887C157.703 295.637 156.555 297.127 155.126 297.824L154.374 296.799C156.22 295.931 157.587 293.634 157.601 291.521V290.223H154.798V289.143H161.702V290.223H158.913V291.521ZM163.247 300.162V287.912H164.546V300.162H163.247ZM172.722 288.637V289.689H168.401V290.811H172.366V291.795H168.401V293.039C170.5 293.032 171.771 292.998 173.296 292.752L173.405 293.791C171.758 294.058 170.391 294.078 168.032 294.078H167.116V288.637H172.722ZM168.688 296.02V295.008H176.7V297.975H170.015V299.027H177.138V300.039H168.716V297.004H175.415V296.02H168.688ZM173.187 291.699V290.66H175.415V287.912H176.7V294.488H175.415V291.699H173.187ZM146.554 310.154C146.554 311.795 147.695 313.34 149.562 313.969L148.892 314.994C147.518 314.516 146.492 313.538 145.952 312.301C145.419 313.682 144.366 314.748 142.931 315.281L142.206 314.256C144.147 313.593 145.262 311.938 145.269 310.113V308.664H146.554V310.154ZM144.175 319.902V316.061H145.501V318.85H152.46V319.902H144.175ZM150.628 316.936V307.898H151.927V311.59H153.704V312.697H151.927V316.936H150.628ZM157.792 308.473C159.405 308.459 160.656 309.396 160.923 310.77H163.315V307.912H164.614V314.488H163.315V311.836H160.93C160.677 313.244 159.419 314.188 157.792 314.188C155.919 314.188 154.572 313.005 154.579 311.316C154.572 309.648 155.919 308.459 157.792 308.473ZM155.823 311.316C155.816 312.362 156.637 313.094 157.792 313.094C158.927 313.094 159.733 312.362 159.733 311.316C159.733 310.264 158.927 309.546 157.792 309.553C156.637 309.546 155.816 310.264 155.823 311.316ZM156.63 320.012V315.076H157.915V316.498H163.315V315.076H164.614V320.012H156.63ZM157.915 318.945H163.315V317.523H157.915V318.945ZM177.698 315.117V316.143H172.694V320.162H171.423V316.143H166.487V315.117H177.698ZM167.882 313.723V308.404H169.167V310.004H174.991V308.404H176.29V313.723H167.882ZM169.167 312.684H174.991V311.043H169.167V312.684Z" fill="#333333"/>
<line x1="255.5" y1="264" x2="255.5" y2="240" stroke="#DFDFDF"/>
<rect x="216.5" y="264.5" width="79" height="79" rx="7.5" fill="white"/>
<rect x="216.5" y="264.5" width="79" height="79" rx="7.5" stroke="#DFDFDF"/>
<path d="M243.463 297.551V298.631H232.252V297.551H237.188V294.721H233.537V288.896H242.123V294.721H238.473V297.551H243.463ZM234.795 293.695H240.852V289.936H234.795V293.695ZM254.496 287.912V294.283H253.211V287.912H254.496ZM244.994 293.791V288.418H246.266V290.086H249.533V288.418H250.818V293.791H244.994ZM246.266 292.752H249.533V291.084H246.266V292.752ZM246.457 295.883V294.871H254.51V297.879H247.756V299.027H254.92V300.039H246.498V296.936H253.225V295.883H246.457ZM266.623 287.912V300.189H265.324V287.912H266.623ZM257.135 290.072V289.02H262.877V293.49H258.475V296.17C260.464 296.163 262.193 296.067 264.244 295.732L264.367 296.799C262.2 297.161 260.354 297.243 258.188 297.25H257.148V292.451H261.551V290.072H257.135ZM275.359 288.992V290.059H270.588V292.424H274.895V293.463H270.588V296.211C272.728 296.197 274.279 296.122 276.098 295.828L276.234 296.881C274.293 297.195 272.611 297.257 270.301 297.264H269.303V288.992H275.359ZM277.424 300.162V287.912H278.736V300.162H277.424ZM242.554 310.154C242.554 311.795 243.695 313.34 245.562 313.969L244.892 314.994C243.518 314.516 242.492 313.538 241.952 312.301C241.419 313.682 240.366 314.748 238.931 315.281L238.206 314.256C240.147 313.593 241.262 311.938 241.269 310.113V308.664H242.554V310.154ZM240.175 319.902V316.061H241.501V318.85H248.46V319.902H240.175ZM246.628 316.936V307.898H247.927V311.59H249.704V312.697H247.927V316.936H246.628ZM253.792 308.473C255.405 308.459 256.656 309.396 256.923 310.77H259.315V307.912H260.614V314.488H259.315V311.836H256.93C256.677 313.244 255.419 314.188 253.792 314.188C251.919 314.188 250.572 313.005 250.579 311.316C250.572 309.648 251.919 308.459 253.792 308.473ZM251.823 311.316C251.816 312.362 252.637 313.094 253.792 313.094C254.927 313.094 255.733 312.362 255.733 311.316C255.733 310.264 254.927 309.546 253.792 309.553C252.637 309.546 251.816 310.264 251.823 311.316ZM252.63 320.012V315.076H253.915V316.498H259.315V315.076H260.614V320.012H252.63ZM253.915 318.945H259.315V317.523H253.915V318.945ZM273.698 315.117V316.143H268.694V320.162H267.423V316.143H262.487V315.117H273.698ZM263.882 313.723V308.404H265.167V310.004H270.991V308.404H272.29V313.723H263.882ZM265.167 312.684H270.991V311.043H265.167V312.684Z" fill="#333333"/>
<rect x="228" y="108" width="64" height="52" rx="8" fill="#BA141A" fill-opacity="0.08"/>
<path d="M252.287 127.816V140.285H250.523V127.816H252.287ZM242.238 133.121C242.231 130.407 243.619 128.691 245.533 128.691C247.406 128.691 248.801 130.407 248.801 133.121C248.801 135.855 247.406 137.564 245.533 137.564C243.619 137.564 242.231 135.855 242.238 133.121ZM243.92 133.121C243.913 134.974 244.562 135.985 245.533 135.979C246.477 135.985 247.112 134.974 247.119 133.121C247.112 131.275 246.477 130.264 245.533 130.264C244.562 130.264 243.913 131.275 243.92 133.121ZM258.549 130.633C258.542 132.861 259.492 135.11 261.488 136.074L260.436 137.469C259.103 136.806 258.2 135.575 257.688 134.078C257.141 135.685 256.184 137.004 254.775 137.701L253.695 136.293C255.808 135.322 256.799 132.943 256.799 130.633V128.773H258.549V130.633ZM262.035 140.258V127.816H263.785V132.615H265.617V134.092H263.785V140.258H262.035ZM276.527 127.816V140.258H274.791V127.816H276.527ZM266.123 136.744C267.073 136.737 268.16 136.737 269.295 136.71V135.657C267.935 135.411 267.046 134.563 267.053 133.395C267.046 132.007 268.311 131.057 270.143 131.057C271.988 131.057 273.273 132.007 273.273 133.395C273.273 134.557 272.385 135.404 271.018 135.657V136.648C272.063 136.601 273.109 136.519 274.107 136.389L274.23 137.674C271.503 138.146 268.57 138.173 266.355 138.166L266.123 136.744ZM266.369 130.564V129.197H269.295V127.871H271.031V129.197H273.93V130.564H266.369ZM268.707 133.395C268.7 134.051 269.295 134.406 270.143 134.406C271.018 134.406 271.605 134.051 271.605 133.395C271.605 132.752 271.018 132.39 270.143 132.383C269.295 132.39 268.7 132.752 268.707 133.395Z" fill="#BA141A"/>
</svg>
