<svg width="272" height="24" viewBox="0 0 272 24" fill="none" xmlns="http://www.w3.org/2000/svg">
<path d="M49.1013 0H34.8906C34.5925 0 34.3142 0.117647 34.1055 0.323529L30.9156 3.46078C30.7069 3.66667 30.5876 3.94118 30.5876 4.23529V23.8235C30.5876 23.9216 30.6672 24 30.7665 24H36.093C36.1924 24 36.2719 23.9216 36.2719 23.8235V5.79412C36.2719 5.69608 36.3514 5.61765 36.4508 5.61765H49.0913C49.1907 5.61765 49.2702 5.53922 49.2702 5.44118V0.176471C49.2702 0.0784314 49.1907 0 49.0913 0H49.1013Z" fill="#BA141A"/>
<path d="M27.4872 0.176471V19.7647C27.4872 20.0588 27.3679 20.3333 27.1593 20.5392L23.9792 23.6765C23.7706 23.8824 23.4923 24 23.1942 24H4.293C3.99488 24 3.71663 23.8824 3.50794 23.6765L0.32794 20.5392C0.119252 20.3333 0 20.0588 0 19.7647V7.10784H5.6942V18.2059C5.6942 18.3039 5.77371 18.3824 5.87308 18.3824H10.7127C10.812 18.3824 10.8915 18.3039 10.8915 18.2059V0.176471C10.8915 0.0784314 10.971 0 11.0704 0H16.4068C16.5062 0 16.5857 0.0784314 16.5857 0.176471V18.1961C16.5857 18.2941 16.6652 18.3725 16.7646 18.3725H21.6042C21.7036 18.3725 21.7831 18.2941 21.7831 18.1961V0.176471C21.7831 0.0784314 21.8626 0 21.9619 0H27.2884C27.3878 0 27.4673 0.0784314 27.4673 0.176471H27.4872Z" fill="#BA141A"/>
<path d="M49.1113 9.46094H37.9714C37.8726 9.46094 37.7925 9.53995 37.7925 9.63741V14.2158C37.7925 14.3133 37.8726 14.3923 37.9714 14.3923H49.1113C49.2101 14.3923 49.2902 14.3133 49.2902 14.2158V9.63741C49.2902 9.53995 49.2101 9.46094 49.1113 9.46094Z" fill="#BA141A"/>
<path d="M52.3905 7.10938H58.0847V23.776C58.0847 23.8937 57.9854 24.0015 57.8562 24.0015H52.6092C52.4899 24.0015 52.3806 23.9035 52.3806 23.776V7.10938H52.3905Z" fill="#BA141A"/>
<path d="M52.6093 0H57.8563C57.9755 0 58.0848 0.0980392 58.0848 0.22549V5.61765H52.3906V0.22549C52.3906 0.107843 52.49 0 52.6192 0H52.6093Z" fill="#B5B3B3"/>
<path d="M0.218627 0H5.46564C5.58489 0 5.6942 0.0980392 5.6942 0.22549V5.61765H0V0.22549C0 0.107843 0.099371 0 0.228559 0H0.218627Z" fill="#B5B3B3"/>
<path d="M68.8672 21.2843C68.2411 20.9608 67.7244 20.5686 67.3169 20.098C66.9095 19.6373 66.5816 19.1078 66.3431 18.5098C66.1046 17.9216 65.9257 17.2745 65.8263 16.5784C65.7269 15.8824 65.6772 15.1373 65.6772 14.3529V9.39216C65.6772 8.60784 65.7269 7.86275 65.8263 7.16667C65.9257 6.47059 66.0946 5.82353 66.3431 5.23529C66.5816 4.64706 66.9095 4.11765 67.3169 3.66667C67.7244 3.20588 68.2411 2.82353 68.8672 2.5L70.5566 4.63726C70.1889 4.85294 69.8709 5.08824 69.6026 5.36275C69.3343 5.63725 69.1156 5.96078 68.9467 6.34314C68.7778 6.72549 68.6486 7.16667 68.5691 7.66667C68.4896 8.16667 68.4498 8.7451 68.4498 9.41177V14.3725C68.4498 15.0882 68.4796 15.7059 68.5492 16.2255C68.6188 16.7353 68.7181 17.1863 68.8672 17.5686C69.0163 17.951 69.215 18.2745 69.4535 18.549C69.692 18.8235 70.0001 19.0686 70.3777 19.2745L68.8573 21.3039L68.8672 21.2843Z" fill="#231F20"/>
<path d="M78.3673 12.2221C78.8244 13.1045 79.3312 14.0358 79.8877 14.9868C80.4442 15.9476 81.0007 16.8496 81.5572 17.6927L79.6989 19.0849C79.2021 18.3104 78.6952 17.5162 78.1884 16.6829C77.6816 15.8594 77.2046 15.0456 76.7475 14.2417C76.7077 14.1731 76.668 14.1045 76.6282 14.026C76.5885 13.9574 76.5587 13.8594 76.5289 13.7319C76.499 13.8594 76.4692 13.9574 76.4394 14.026C76.4096 14.0947 76.3699 14.1633 76.3301 14.2417C75.9127 15.0849 75.4954 15.928 75.0581 16.7515C74.6209 17.5849 74.1538 18.4182 73.6569 19.2613L71.5999 17.9966C72.1365 17.1143 72.6731 16.1731 73.1898 15.1731C73.7066 14.1731 74.1737 13.2221 74.591 12.2907C74.7699 11.879 74.919 11.4966 75.0084 11.1339C75.0979 10.7711 75.1475 10.3496 75.1475 9.88879V5.81035H71.9576V3.48683H80.8418V5.81035H77.8009V9.88879C77.8009 10.3496 77.8406 10.7515 77.9301 11.0947C78.0096 11.428 78.1586 11.8104 78.3574 12.2123L78.3673 12.2221ZM84.6379 2.98683V9.6829H86.4167V2.85938H89.0899V20.9574H86.4167V12.0456H84.6379V20.83H82.0044V2.98683H84.6379Z" fill="#231F20"/>
<path d="M92.0116 19.253C92.3793 19.0373 92.6874 18.802 92.9358 18.5275C93.1743 18.253 93.3731 17.9295 93.5221 17.5471C93.6712 17.1648 93.7805 16.7236 93.8401 16.204C93.9097 15.6942 93.9395 15.0765 93.9395 14.3608V9.40005C93.9395 8.74318 93.8998 8.15495 93.8203 7.65495C93.7408 7.15495 93.6215 6.71377 93.4426 6.33142C93.2737 5.94907 93.0551 5.62554 92.7868 5.35103C92.5184 5.07652 92.2104 4.83142 91.8328 4.62554L93.5221 2.48828C94.1482 2.81181 94.665 3.20397 95.0724 3.65495C95.4798 4.11573 95.7978 4.63534 96.0463 5.22358C96.2947 5.81181 96.4636 6.45887 96.563 7.15495C96.6624 7.85103 96.7121 8.59612 96.7121 9.38044V14.3412C96.7121 15.1255 96.6624 15.8706 96.563 16.5667C96.4636 17.2628 96.2947 17.9099 96.0463 18.4981C95.8078 19.0863 95.4798 19.6157 95.0724 20.0863C94.665 20.5471 94.1482 20.9393 93.5221 21.2726L92.0017 19.2432L92.0116 19.253Z" fill="#231F20"/>
<path d="M104.652 16.383V13.0889H99.5344V10.8928H111.609V13.0889H107.325V16.383H104.652ZM105.427 2.82422C106.252 2.82422 106.988 2.92226 107.614 3.10853C108.24 3.29481 108.766 3.54971 109.174 3.86343C109.591 4.17716 109.899 4.54971 110.108 4.96147C110.317 5.37324 110.416 5.80461 110.416 6.23598V6.49089C110.416 6.94187 110.317 7.37324 110.108 7.785C109.899 8.19677 109.591 8.56932 109.174 8.88304C108.756 9.19677 108.24 9.45167 107.614 9.64775C106.988 9.83402 106.262 9.93206 105.427 9.93206C104.593 9.93206 103.827 9.83402 103.201 9.64775C102.575 9.46147 102.049 9.20657 101.631 8.88304C101.214 8.55951 100.896 8.19677 100.687 7.785C100.478 7.37324 100.379 6.93206 100.379 6.49089V6.23598C100.379 5.79481 100.478 5.37324 100.687 4.96147C100.896 4.54971 101.204 4.17716 101.631 3.86343C102.049 3.54971 102.575 3.29481 103.201 3.10853C103.827 2.92226 104.573 2.82422 105.427 2.82422ZM116.17 18.9419V21.2262H103.837C103.39 21.2262 103.062 21.1772 102.854 21.0889C102.635 21.0007 102.426 20.834 102.208 20.5889L101.651 20.0203C101.542 19.8928 101.442 19.7752 101.363 19.6674C101.283 19.5595 101.224 19.4419 101.184 19.3144C101.144 19.187 101.114 19.0399 101.085 18.883C101.065 18.7164 101.055 18.5203 101.055 18.285V15.2654H103.798V17.9909C103.798 18.1772 103.837 18.3242 103.927 18.4517L104.265 18.8144C104.324 18.8536 104.374 18.8928 104.424 18.9125C104.473 18.9321 104.553 18.9419 104.672 18.9419H116.17ZM107.783 6.31441C107.783 5.98108 107.594 5.66736 107.216 5.38304C106.839 5.09873 106.242 4.96147 105.427 4.96147C104.612 4.96147 103.996 5.09873 103.609 5.38304C103.221 5.66736 103.032 5.97128 103.032 6.31441V6.44187C103.032 6.785 103.231 7.08892 103.609 7.38304C103.996 7.66736 104.603 7.81441 105.427 7.81441C106.252 7.81441 106.839 7.66736 107.216 7.38304C107.594 7.09873 107.783 6.785 107.783 6.44187V6.31441ZM109.045 14.0791H113.069V2.86343H115.762V17.3046H113.069V16.0595H109.045V14.0693V14.0791Z" fill="#231F20"/>
<path d="M126.256 21.2842V15.8626H119.37V13.4998H135.826V15.8626H129.019V21.2842H126.256ZM120.343 3.03906H134.852V5.40181H129.098V6.07828C129.098 6.24494 129.098 6.392 129.118 6.50965C129.128 6.6273 129.168 6.73514 129.228 6.82338C129.287 6.91161 129.357 6.99985 129.456 7.08808C129.546 7.17632 129.675 7.26455 129.834 7.36259C130.728 7.91161 131.652 8.42142 132.606 8.90181C133.55 9.3822 134.524 9.84298 135.508 10.294L134.375 12.4312C133.292 11.941 132.229 11.4214 131.195 10.8724C130.162 10.3234 129.168 9.75475 128.204 9.16651C128.045 9.05867 127.916 8.97043 127.817 8.90181C127.717 8.84298 127.658 8.75475 127.628 8.65671C127.598 8.75475 127.538 8.84298 127.449 8.91161C127.359 8.98024 127.24 9.06847 127.101 9.16651C125.133 10.4018 123.076 11.5293 120.94 12.5489L119.767 10.4116C120.84 9.92141 121.834 9.42142 122.748 8.92142C123.673 8.42142 124.557 7.90181 125.412 7.3724C125.551 7.27436 125.67 7.18612 125.759 7.09789C125.849 7.00965 125.928 6.92142 125.988 6.83318C126.048 6.74494 126.077 6.6371 126.097 6.51945C126.117 6.40181 126.117 6.25475 126.117 6.08808V5.41161H120.363V3.04887L120.343 3.03906Z" fill="#231F20"/>
<path d="M142.862 19.5064C142.623 19.5064 142.415 19.4966 142.246 19.477C142.077 19.4574 141.918 19.4182 141.779 19.3594C141.64 19.3006 141.5 19.2221 141.371 19.1241C141.242 19.026 141.103 18.8888 140.944 18.7221L139.901 17.5849C139.761 17.428 139.642 17.2907 139.563 17.1633C139.473 17.0358 139.404 16.9084 139.354 16.7711C139.304 16.6339 139.274 16.477 139.245 16.3005C139.225 16.1143 139.215 15.8986 139.215 15.6437V4.15349C139.215 3.63388 139.463 3.36918 139.96 3.36918H148.099C148.616 3.36918 148.864 3.63388 148.864 4.15349V18.7025C148.864 19.2417 148.606 19.5064 148.099 19.5064H142.872H142.862ZM146.102 17.1143V5.73192H141.948V15.4672C141.948 15.5947 141.958 15.7025 141.987 15.7809C142.017 15.8692 142.087 15.9672 142.206 16.0751L142.931 16.879C143.031 16.977 143.12 17.0456 143.2 17.0653C143.279 17.0947 143.369 17.1045 143.468 17.1045H146.102V17.1143ZM154.727 2.85938V20.9574H151.985V2.85938H154.727Z" fill="#231F20"/>
<path d="M165.838 10.8888C165.838 11.8986 165.321 12.4084 164.297 12.4084H160.899V15.7711C160.899 15.9868 160.968 16.1535 161.117 16.2809L161.733 16.977C161.803 17.0456 161.873 17.1045 161.932 17.1339C162.002 17.1731 162.081 17.1829 162.201 17.1829H166.315V19.526H161.495C161.068 19.526 160.74 19.4868 160.501 19.3986C160.263 19.3104 160.014 19.1143 159.746 18.8104L158.802 17.8006C158.673 17.6633 158.573 17.5358 158.494 17.4182C158.414 17.3104 158.355 17.1829 158.305 17.0456C158.255 16.9084 158.226 16.7613 158.206 16.6045C158.196 16.4378 158.186 16.2319 158.186 15.9868V10.8888C158.186 10.4084 158.434 10.1731 158.931 10.1731H162.807C163.005 10.1731 163.105 10.0555 163.105 9.82996V5.82016H158.245V3.49663H165.053C165.579 3.49663 165.848 3.76134 165.848 4.28094V10.8888H165.838ZM170.24 2.98683V9.6829H172.019V2.85938H174.692V20.9574H172.019V12.0456H170.24V20.83H167.607V2.98683H170.24Z" fill="#231F20"/>
<path d="M184.818 7.76134C185.414 8.43781 186.031 9.08487 186.667 9.69271C187.303 10.3104 187.958 10.9182 188.644 11.5456L186.955 13.3594C186.239 12.7417 185.583 12.1241 184.977 11.526C184.371 10.9182 183.785 10.2809 183.228 9.60447C183.129 9.49663 183.049 9.40839 182.99 9.33977C182.93 9.28094 182.88 9.19271 182.841 9.07506C182.831 9.1731 182.791 9.26134 182.731 9.32996C182.672 9.39859 182.592 9.49663 182.493 9.60447C181.906 10.2907 181.32 10.9476 180.724 11.5653C180.138 12.1829 179.472 12.8202 178.746 13.4672L176.968 11.6731C177.723 10.9966 178.418 10.3398 179.054 9.71232C179.69 9.07506 180.287 8.428 180.843 7.75153C180.952 7.61428 181.052 7.48683 181.131 7.36918C181.211 7.25153 181.27 7.14369 181.31 7.01624C181.35 6.89859 181.38 6.77114 181.39 6.64369C181.41 6.51624 181.41 6.35938 181.41 6.1829V3.22212H184.212V6.1829C184.212 6.54565 184.252 6.83977 184.321 7.05545C184.391 7.27114 184.55 7.50643 184.788 7.76134H184.818ZM193.166 18.8692V21.2123H181.817C181.39 21.2123 181.072 21.1633 180.853 21.0751C180.634 20.9868 180.426 20.8202 180.207 20.5751L179.591 19.9378C179.472 19.8104 179.382 19.6927 179.303 19.5849C179.223 19.477 179.164 19.3594 179.124 19.2319C179.084 19.1045 179.044 18.9574 179.025 18.8006C179.005 18.6437 178.995 18.4378 178.995 18.2025V14.6535H181.738V17.8398C181.738 18.0555 181.777 18.2025 181.867 18.3006L182.274 18.7221C182.334 18.8104 182.463 18.8496 182.682 18.8496H193.176L193.166 18.8692ZM192.907 2.85938V7.48683H195.392V9.81036H192.907V16.2711H190.145V2.85938H192.907Z" fill="#231F20"/>
<path d="M213.16 2.86014V12.2621H210.467V8.67387H207.168C207.068 9.18367 206.89 9.65426 206.621 10.0856C206.353 10.5268 206.015 10.9092 205.608 11.2327C205.19 11.566 204.713 11.8209 204.167 12.0072C203.62 12.1935 203.004 12.2817 202.338 12.2817C201.553 12.2817 200.857 12.1641 200.241 11.919C199.625 11.6837 199.108 11.3503 198.681 10.9386C198.254 10.5268 197.926 10.0464 197.707 9.5072C197.489 8.96798 197.369 8.38955 197.369 7.78171V7.19347C197.369 6.58563 197.479 6.0072 197.707 5.45818C197.926 4.90916 198.254 4.42877 198.681 4.0072C199.108 3.59544 199.625 3.2621 200.241 3.02681C200.857 2.79151 201.553 2.66406 202.338 2.66406C203.004 2.66406 203.62 2.7621 204.177 2.94838C204.733 3.13465 205.21 3.39936 205.618 3.72289C206.025 4.04642 206.363 4.42877 206.621 4.87975C206.89 5.33073 207.068 5.81112 207.168 6.31112H210.467V2.85034H213.16V2.86014ZM201.662 14.968H210.457V13.2327H213.15V20.4582C213.15 20.9484 212.882 21.1935 212.355 21.1935H201.692C201.265 21.1935 200.947 21.1543 200.738 21.0758C200.53 20.9974 200.301 20.8307 200.043 20.5758L199.506 20.0464C199.397 19.9386 199.297 19.8307 199.218 19.7327C199.138 19.6347 199.079 19.5366 199.039 19.4288C198.999 19.3209 198.969 19.2033 198.94 19.0562C198.92 18.919 198.91 18.7425 198.91 18.5464V13.2229H201.652V14.9582L201.662 14.968ZM204.554 7.19347C204.554 6.58563 204.365 6.06602 203.988 5.62485C203.61 5.18367 203.054 4.95818 202.328 4.95818C201.603 4.95818 201.026 5.18367 200.649 5.62485C200.271 6.06602 200.082 6.59543 200.082 7.19347V7.78171C200.082 8.36995 200.271 8.88955 200.649 9.33073C201.026 9.77191 201.583 9.9974 202.328 9.9974C203.074 9.9974 203.61 9.77191 203.988 9.33073C204.365 8.88955 204.554 8.36995 204.554 7.78171V7.19347ZM210.467 18.8896V17.2425H201.672V18.1935C201.672 18.3209 201.722 18.4288 201.821 18.5268L202.04 18.7621C202.139 18.8503 202.249 18.8896 202.358 18.8896H210.467Z" fill="#231F20"/>
<path d="M223.515 5.63388V6.89859C223.515 7.26134 223.555 7.57506 223.624 7.82016C223.694 8.06526 223.833 8.29075 224.032 8.48683C224.26 8.71232 224.529 8.96722 224.837 9.25153C225.145 9.53585 225.473 9.82016 225.81 10.1143C226.148 10.4084 226.506 10.7025 226.854 10.9868C227.212 11.2711 227.55 11.5358 227.858 11.7809L226.357 13.6633C226.019 13.428 225.661 13.1535 225.294 12.8496C224.936 12.5456 224.578 12.2417 224.22 11.928C223.873 11.6143 223.535 11.3104 223.227 11.0064C222.919 10.7025 222.65 10.428 222.432 10.1927C222.362 10.1045 222.293 10.026 222.223 9.93781C222.163 9.84957 222.114 9.76134 222.084 9.6633C222.054 9.76134 222.004 9.84957 221.935 9.93781C221.865 10.026 221.796 10.1045 221.746 10.1927C221.517 10.428 221.249 10.7025 220.931 11.0162C220.613 11.33 220.285 11.6437 219.927 11.9574C219.57 12.2711 219.212 12.5849 218.844 12.8986C218.487 13.2123 218.139 13.4868 217.811 13.7417L216.231 11.9084C216.559 11.6437 216.897 11.3594 217.254 11.0653C217.612 10.7711 217.96 10.4672 218.288 10.1633C218.626 9.85938 218.944 9.56526 219.252 9.28094C219.56 8.99663 219.828 8.72212 220.077 8.46722C220.285 8.24173 220.434 8.01624 220.504 7.79075C220.573 7.56526 220.613 7.27114 220.613 6.90839V5.64369H216.738V3.35938H227.331V5.64369H223.495L223.515 5.63388ZM233.045 18.8692V21.2123H221.19C220.742 21.2123 220.414 21.1633 220.206 21.0751C219.987 20.9868 219.778 20.8202 219.56 20.5751L219.003 20.0064C218.894 19.879 218.795 19.7613 218.715 19.6535C218.636 19.5457 218.576 19.428 218.536 19.3006C218.496 19.1731 218.467 19.026 218.437 18.8692C218.417 18.7025 218.407 18.5064 218.407 18.2711V14.6633H221.15V17.9182C221.15 18.1339 221.199 18.2809 221.299 18.379L221.617 18.7417C221.676 18.7809 221.726 18.8202 221.776 18.8398C221.826 18.8594 221.905 18.8692 222.024 18.8692H233.045ZM232.638 2.85938V16.2711H229.895V2.85938H232.638Z" fill="#231F20"/>
<path d="M236.235 14.0978V11.9606H252.691V14.0978H236.235ZM236.811 5.12722V3.03899H243.102V1.55859H245.864V3.03899H252.135V5.12722H236.811ZM247.216 15.0684C248.011 15.0684 248.697 15.1468 249.253 15.2939C249.81 15.4409 250.267 15.6468 250.614 15.9115C250.962 16.1762 251.221 16.49 251.37 16.8625C251.519 17.2351 251.608 17.6468 251.608 18.0978C251.608 18.5488 251.529 18.9311 251.37 19.3037C251.211 19.6664 250.962 19.9802 250.614 20.2449C250.267 20.5096 249.81 20.7057 249.253 20.8625C248.697 21.0096 248.021 21.088 247.216 21.088H241.76C240.965 21.088 240.279 21.0096 239.713 20.8625C239.147 20.7155 238.689 20.5096 238.342 20.2449C237.994 19.9802 237.735 19.6762 237.586 19.3037C237.427 18.9409 237.348 18.539 237.348 18.0978C237.348 17.6566 237.427 17.2351 237.586 16.8625C237.745 16.49 237.994 16.1762 238.342 15.9115C238.689 15.6468 239.147 15.4508 239.713 15.2939C240.279 15.1468 240.955 15.0684 241.76 15.0684H247.216ZM245.825 5.71546C247.295 5.71546 248.379 5.95075 249.074 6.43114C249.77 6.91153 250.128 7.5684 250.128 8.41153C250.128 9.25467 249.78 9.92134 249.074 10.4115C248.379 10.9017 247.285 11.137 245.825 11.137H243.132C241.621 11.137 240.518 10.8919 239.832 10.4115C239.147 9.92134 238.809 9.26448 238.809 8.41153C238.809 7.55859 239.157 6.92134 239.842 6.44095C240.538 5.96055 241.631 5.71546 243.132 5.71546H245.825ZM247.256 18.9998C247.812 18.9998 248.2 18.9115 248.408 18.7351C248.627 18.5586 248.726 18.3429 248.726 18.088C248.726 17.8233 248.617 17.5978 248.408 17.4213C248.2 17.2449 247.812 17.1566 247.256 17.1566H241.71C241.154 17.1566 240.766 17.2449 240.558 17.4213C240.349 17.5978 240.24 17.8233 240.24 18.088C240.24 18.3527 240.349 18.5586 240.558 18.7351C240.776 18.9115 241.154 18.9998 241.71 18.9998H247.256ZM245.934 9.15663C246.471 9.15663 246.858 9.09781 247.087 8.97036C247.315 8.84291 247.425 8.65663 247.425 8.42134C247.425 8.18604 247.315 7.99977 247.087 7.88212C246.858 7.76448 246.471 7.70565 245.934 7.70565H243.002C242.466 7.70565 242.078 7.76448 241.86 7.88212C241.641 7.99977 241.532 8.18604 241.532 8.42134C241.532 8.65663 241.641 8.84291 241.86 8.97036C242.078 9.09781 242.466 9.15663 243.002 9.15663H245.934Z" fill="#231F20"/>
<path d="M260.482 16.383V13.0889H255.365V10.8928H267.439V13.0889H263.156V16.383H260.482ZM261.257 2.82422C262.082 2.82422 262.818 2.92226 263.444 3.10853C264.07 3.29481 264.596 3.54971 265.004 3.86343C265.421 4.17716 265.729 4.54971 265.938 4.96147C266.147 5.37324 266.246 5.80461 266.246 6.23598V6.49089C266.246 6.94187 266.147 7.37324 265.938 7.785C265.729 8.19677 265.421 8.56932 265.004 8.88304C264.587 9.19677 264.07 9.45167 263.444 9.64775C262.818 9.83402 262.092 9.93206 261.257 9.93206C260.423 9.93206 259.658 9.83402 259.031 9.64775C258.405 9.46147 257.879 9.20657 257.461 8.88304C257.044 8.56932 256.726 8.19677 256.517 7.785C256.309 7.37324 256.209 6.93206 256.209 6.49089V6.23598C256.209 5.79481 256.309 5.37324 256.517 4.96147C256.726 4.54971 257.034 4.17716 257.461 3.86343C257.879 3.54971 258.405 3.29481 259.031 3.10853C259.658 2.92226 260.403 2.82422 261.257 2.82422ZM272 18.9419V21.2262H259.667C259.22 21.2262 258.892 21.1772 258.684 21.0889C258.465 21.0007 258.256 20.834 258.038 20.5889L257.481 20.0203C257.372 19.8928 257.273 19.7752 257.193 19.6674C257.114 19.5595 257.054 19.4419 257.014 19.3144C256.974 19.187 256.945 19.0399 256.915 18.883C256.895 18.7164 256.885 18.5203 256.885 18.285V15.2654H259.628V17.9909C259.628 18.1772 259.667 18.334 259.757 18.4517L260.095 18.8144C260.154 18.8536 260.204 18.8928 260.254 18.9125C260.303 18.9321 260.383 18.9419 260.502 18.9419H272ZM263.613 6.31441C263.613 5.97128 263.424 5.66736 263.046 5.38304C262.669 5.09873 262.072 4.96147 261.257 4.96147C260.443 4.96147 259.826 5.09873 259.439 5.38304C259.051 5.66736 258.863 5.97128 258.863 6.31441V6.44187C258.863 6.7752 259.061 7.08892 259.439 7.38304C259.826 7.66736 260.433 7.81441 261.257 7.81441C262.082 7.81441 262.669 7.66736 263.046 7.38304C263.424 7.09873 263.613 6.785 263.613 6.44187V6.31441ZM264.875 14.0791H268.899V2.86343H271.592V17.3046H268.899V16.0595H264.875V14.0693V14.0791Z" fill="#231F20"/>
</svg>
