<svg width="1388" height="544" viewBox="0 0 1388 544" fill="none" xmlns="http://www.w3.org/2000/svg">
<path d="M0.00195312 544V0H1388V500.686C1388 502.808 1387.16 504.843 1385.65 506.343L1350.34 541.657C1348.84 543.157 1346.81 544 1344.68 544H0.00195312Z" fill="white"/>
<rect x="574.002" y="72" width="240" height="72" rx="8" fill="#BA141A"/>
<path d="M684.369 100.611V116.66H682.1V100.611H684.369ZM671.447 107.436C671.44 103.955 673.231 101.742 675.679 101.742C678.097 101.742 679.887 103.955 679.894 107.436C679.887 110.954 678.097 113.154 675.679 113.154C673.231 113.154 671.44 110.954 671.447 107.436ZM673.616 107.436C673.603 109.829 674.436 111.122 675.679 111.122C676.898 111.122 677.724 109.829 677.724 107.436C677.724 105.068 676.898 103.769 675.679 103.769C674.436 103.769 673.603 105.068 673.616 107.436ZM692.423 104.241C692.411 107.106 693.635 109.997 696.202 111.24L694.847 113.023C693.138 112.178 691.976 110.599 691.311 108.673C690.615 110.742 689.378 112.433 687.563 113.334L686.189 111.513C688.893 110.27 690.173 107.212 690.179 104.241V101.848H692.423V104.241ZM696.911 116.622V100.611H699.155V106.783H701.516V108.679H699.155V116.622H696.911ZM711.187 101.693V103.483H707.992C708.005 105.347 709.136 107.15 711.684 107.908L710.621 109.661C708.844 109.126 707.619 108.051 706.911 106.684C706.202 108.287 704.903 109.568 702.989 110.195L701.851 108.424C704.499 107.585 705.705 105.515 705.73 103.483H702.461V101.693H711.187ZM704.058 113.508C704.052 111.557 706.153 110.419 709.534 110.425C712.871 110.419 714.935 111.557 714.935 113.508C714.935 115.46 712.871 116.622 709.534 116.616C706.153 116.622 704.052 115.46 704.058 113.508ZM706.302 113.508C706.295 114.422 707.439 114.876 709.534 114.869C711.616 114.876 712.722 114.422 712.722 113.508C712.722 112.607 711.616 112.166 709.534 112.172C707.439 112.166 706.295 112.607 706.302 113.508ZM712.536 110.115V100.611H714.786V104.334H716.936V106.162H714.786V110.115H712.536Z" fill="white"/>
<line x1="694.502" y1="144" x2="694.502" y2="184" stroke="#DFDFDF"/>
<rect x="574.502" y="184.5" width="239" height="71" rx="7.5" fill="white"/>
<rect x="574.502" y="184.5" width="239" height="71" rx="7.5" stroke="#BA141A"/>
<path d="M692.029 211.639V223.715H689.779V222.449H686.721V220.92H689.779V211.639H692.029ZM678.424 218.723C681.351 218.705 685.306 218.661 688.689 218.248L688.812 219.848C687.547 220.059 686.237 220.208 684.945 220.305V223.346H682.695V225.543H692.381V227.336H680.463V222.555H682.695V220.437C681.263 220.489 679.9 220.498 678.688 220.498L678.424 218.723ZM679.602 215.049C679.602 213.344 681.245 212.175 683.627 212.184C685.947 212.175 687.608 213.344 687.617 215.049C687.608 216.763 685.947 217.87 683.627 217.861C681.245 217.87 679.602 216.763 679.602 215.049ZM681.729 215.049C681.72 215.822 682.484 216.253 683.627 216.244C684.699 216.253 685.473 215.822 685.49 215.049C685.473 214.258 684.699 213.818 683.627 213.818C682.484 213.818 681.72 214.258 681.729 215.049ZM703.121 212.693V214.486H699.939C699.948 216.35 701.082 218.151 703.631 218.898L702.559 220.656C700.792 220.12 699.562 219.039 698.858 217.677C698.146 219.285 696.846 220.568 694.93 221.201L693.787 219.426C696.441 218.591 697.646 216.517 697.672 214.486H694.402V212.693H703.121ZM696.002 224.506C695.993 222.555 698.103 221.421 701.486 221.43C704.817 221.421 706.874 222.555 706.883 224.506C706.874 226.466 704.817 227.626 701.486 227.617C698.103 227.626 695.993 226.466 696.002 224.506ZM698.252 224.506C698.234 225.42 699.386 225.877 701.486 225.877C703.561 225.877 704.668 225.42 704.668 224.506C704.668 223.609 703.561 223.161 701.486 223.17C699.386 223.161 698.234 223.609 698.252 224.506ZM704.475 221.113V211.621H706.725V215.33H708.887V217.158H706.725V221.113H704.475Z" fill="#BA141A"/>
<rect x="830.002" y="184" width="240" height="72" rx="8" fill="#BA141A" fill-opacity="0.08"/>
<path d="M940.369 212.611V228.66H938.1V212.611H940.369ZM927.447 219.436C927.44 215.955 929.231 213.742 931.679 213.742C934.097 213.742 935.887 215.955 935.894 219.436C935.887 222.954 934.097 225.154 931.679 225.154C929.231 225.154 927.44 222.954 927.447 219.436ZM929.616 219.436C929.603 221.829 930.436 223.122 931.679 223.122C932.898 223.122 933.724 221.829 933.724 219.436C933.724 217.068 932.898 215.769 931.679 215.769C930.436 215.769 929.603 217.068 929.616 219.436ZM948.423 216.241C948.411 219.106 949.635 221.997 952.202 223.24L950.847 225.023C949.138 224.178 947.976 222.599 947.311 220.673C946.615 222.742 945.378 224.433 943.563 225.334L942.189 223.513C944.893 222.27 946.173 219.212 946.179 216.241V213.848H948.423V216.241ZM952.911 228.622V212.611H955.155V218.783H957.516V220.679H955.155V228.622H952.911ZM971.532 212.611V228.622H969.3V212.611H971.532ZM958.162 224.104C959.38 224.097 960.779 224.091 962.233 224.06V222.705C960.481 222.388 959.343 221.294 959.349 219.802C959.343 218.006 960.972 216.788 963.327 216.788C965.702 216.788 967.355 218.006 967.355 219.802C967.355 221.288 966.211 222.376 964.465 222.699V223.979C965.801 223.911 967.15 223.805 968.424 223.631L968.573 225.297C965.08 225.9 961.307 225.931 958.454 225.931L958.162 224.104ZM958.479 216.16V214.401H962.233V212.692H964.477V214.401H968.194V216.16H958.479ZM961.481 219.802C961.475 220.642 962.24 221.095 963.327 221.095C964.452 221.095 965.211 220.642 965.211 219.802C965.211 218.97 964.452 218.497 963.327 218.497C962.24 218.497 961.475 218.97 961.481 219.802Z" fill="#BA141A"/>
<line x1="694.502" y1="256" x2="694.502" y2="352" stroke="#DFDFDF"/>
<line x1="998.002" y1="352.5" x2="390.002" y2="352.5" stroke="#DFDFDF"/>
<line x1="390.502" y1="352" x2="390.502" y2="392" stroke="#DFDFDF"/>
<rect x="270.502" y="392.5" width="239" height="71" rx="7.5" fill="white"/>
<rect x="270.502" y="392.5" width="239" height="71" rx="7.5" stroke="#DFDFDF"/>
<path d="M364.713 419.762V429.078H363.043V427.162H359.07V425.791H363.043V423.875H359.237C358.218 426.406 355.854 428.19 352.443 429.166L351.775 427.865C355.502 426.802 357.682 424.798 357.98 422.258H352.584V420.887H359.791C359.791 421.467 359.729 422.029 359.624 422.557H363.043V419.762H364.713ZM354.219 432.33C354.219 430.423 356.293 429.263 359.527 429.254C362.718 429.263 364.81 430.423 364.818 432.33C364.81 434.246 362.718 435.424 359.527 435.424C356.293 435.424 354.219 434.246 354.219 432.33ZM355.871 432.33C355.871 433.438 357.277 434.079 359.527 434.088C361.733 434.079 363.14 433.438 363.148 432.33C363.14 431.205 361.733 430.563 359.527 430.572C357.277 430.563 355.871 431.205 355.871 432.33ZM371.498 420.658C372.808 420.649 373.924 421.142 374.662 421.959H378.6V419.744H380.27V429.043H378.6V426.916H374.653C373.915 427.725 372.799 428.208 371.498 428.199C369.125 428.208 367.358 426.635 367.367 424.438C367.358 422.214 369.125 420.649 371.498 420.658ZM368.967 424.438C368.958 425.817 370.021 426.793 371.498 426.775C372.931 426.793 373.994 425.817 373.994 424.438C373.994 423.022 372.931 422.082 371.498 422.1C370.021 422.082 368.958 423.022 368.967 424.438ZM369.67 432.436C369.661 430.511 371.7 429.386 374.996 429.395C378.274 429.386 380.313 430.511 380.322 432.436C380.313 434.352 378.274 435.468 374.996 435.459C371.7 435.468 369.661 434.352 369.67 432.436ZM371.305 432.436C371.296 433.517 372.685 434.149 374.996 434.141C377.308 434.149 378.688 433.517 378.688 432.436C378.688 431.311 377.308 430.687 374.996 430.678C372.685 430.687 371.296 431.311 371.305 432.436ZM375.427 423.295C375.532 423.646 375.594 424.033 375.594 424.438C375.594 424.824 375.532 425.202 375.427 425.545H378.6V423.295H375.427ZM388.496 424.385C388.487 427.021 390.219 429.746 392.645 430.783L391.73 432.084C389.876 431.267 388.399 429.526 387.67 427.426C386.94 429.676 385.464 431.592 383.627 432.488L382.66 431.17C385.033 430.054 386.791 427.101 386.809 424.385V422.715H383.205V421.326H392.082V422.715H388.496V424.385ZM394.068 435.494V419.744H395.738V435.494H394.068ZM411.348 419.762V431.697H409.678V430.186H406.514V429.008H409.678V419.762H411.348ZM398.182 426.951C401.091 426.925 405.02 426.898 408.377 426.477L408.482 427.672C407.138 427.9 405.723 428.041 404.334 428.138V431.205H402.664V428.226C401.135 428.287 399.667 428.287 398.393 428.287L398.182 426.951ZM399.412 423.137C399.403 421.467 400.994 420.359 403.332 420.359C405.635 420.359 407.234 421.467 407.234 423.137C407.234 424.815 405.635 425.879 403.332 425.879C401.003 425.879 399.403 424.815 399.412 423.137ZM400.361 435.16V430.537H402.014V433.807H411.734V435.16H400.361ZM400.994 423.137C400.985 424.068 401.935 424.648 403.332 424.648C404.677 424.648 405.644 424.068 405.652 423.137C405.644 422.196 404.677 421.59 403.332 421.607C401.935 421.59 400.985 422.196 400.994 423.137ZM426.852 419.744V427.848H425.199V419.744H426.852ZM413.861 426.441C416.322 425.624 417.825 423.559 417.834 421.379V420.166H419.539V421.379C419.53 423.488 421.042 425.404 423.459 426.16L422.633 427.461C420.796 426.863 419.416 425.624 418.704 424.024C417.992 425.747 416.586 427.118 414.705 427.76L413.861 426.441ZM416.516 429.922V428.604H426.869V432.541H418.186V434H427.396V435.336H416.568V431.275H425.217V429.922H416.516Z" fill="#333333"/>
<line x1="694.502" y1="352" x2="694.502" y2="392" stroke="#DFDFDF"/>
<rect x="574.502" y="392.5" width="239" height="71" rx="7.5" fill="white"/>
<rect x="574.502" y="392.5" width="239" height="71" rx="7.5" stroke="#DFDFDF"/>
<path d="M660.625 419.744V435.529H658.955V419.744H660.625ZM648.584 431.662V421.203H656.125V422.592H650.271V430.238C653.251 430.229 655.167 430.142 657.391 429.746L657.566 431.135C655.211 431.565 653.154 431.653 649.885 431.662H648.584ZM668.939 424.385C668.931 427.021 670.662 429.746 673.088 430.783L672.174 432.084C670.319 431.267 668.843 429.526 668.113 427.426C667.384 429.676 665.907 431.592 664.07 432.488L663.104 431.17C665.477 430.054 667.234 427.101 667.252 424.385V422.715H663.648V421.326H672.525V422.715H668.939V424.385ZM674.512 435.494V419.744H676.182V435.494H674.512ZM686.693 420.676V422.029H681.139V423.471H686.236V424.736H681.139V426.336C683.837 426.327 685.472 426.283 687.432 425.967L687.572 427.303C685.454 427.646 683.696 427.672 680.664 427.672H679.486V420.676H686.693ZM681.508 430.168V428.867H691.809V432.682H683.213V434.035H692.371V435.336H681.543V431.434H690.156V430.168H681.508ZM687.291 424.613V423.277H690.156V419.744H691.809V428.199H690.156V424.613H687.291ZM699.719 422.627C699.719 424.736 701.187 426.723 703.586 427.531L702.725 428.85C700.958 428.234 699.64 426.978 698.945 425.387C698.26 427.162 696.906 428.533 695.061 429.219L694.129 427.9C696.625 427.048 698.058 424.921 698.066 422.574V420.711H699.719V422.627ZM696.66 435.16V430.221H698.365V433.807H707.312V435.16H696.66ZM704.957 431.346V419.727H706.627V424.473H708.912V425.896H706.627V431.346H704.957ZM714.168 420.465C716.242 420.447 717.851 421.651 718.193 423.418H721.27V419.744H722.939V428.199H721.27V424.789H718.202C717.877 426.6 716.26 427.812 714.168 427.812C711.76 427.812 710.028 426.292 710.037 424.121C710.028 421.977 711.76 420.447 714.168 420.465ZM711.637 424.121C711.628 425.466 712.683 426.406 714.168 426.406C715.627 426.406 716.664 425.466 716.664 424.121C716.664 422.768 715.627 421.845 714.168 421.854C712.683 421.845 711.628 422.768 711.637 424.121ZM712.674 435.301V428.955H714.326V430.783H721.27V428.955H722.939V435.301H712.674ZM714.326 433.93H721.27V432.102H714.326V433.93ZM739.762 429.008V430.326H733.328V435.494H731.693V430.326H725.348V429.008H739.762ZM727.141 427.215V420.377H728.793V422.434H736.281V420.377H737.951V427.215H727.141ZM728.793 425.879H736.281V423.77H728.793V425.879Z" fill="#333333"/>
<line x1="998.502" y1="352" x2="998.502" y2="392" stroke="#DFDFDF"/>
<rect x="878.502" y="392.5" width="239" height="71" rx="7.5" fill="white"/>
<rect x="878.502" y="392.5" width="239" height="71" rx="7.5" stroke="#DFDFDF"/>
<path d="M958.496 432.137V433.525H944.082V432.137H950.428V428.498H945.734V421.01H956.773V428.498H952.08V432.137H958.496ZM947.352 427.18H955.139V422.346H947.352V427.18ZM972.682 419.744V427.936H971.029V419.744H972.682ZM960.465 427.303V420.395H962.1V422.539H966.301V420.395H967.953V427.303H960.465ZM962.1 425.967H966.301V423.822H962.1V425.967ZM962.346 429.992V428.691H972.699V432.559H964.016V434.035H973.227V435.336H962.398V431.346H971.047V429.992H962.346ZM988.273 419.744V435.529H986.604V419.744H988.273ZM976.074 422.521V421.168H983.457V426.916H977.797V430.361C980.354 430.353 982.578 430.229 985.215 429.799L985.373 431.17C982.587 431.636 980.214 431.741 977.428 431.75H976.092V425.58H981.752V422.521H976.074ZM999.506 421.133V422.504H993.371V425.545H998.908V426.881H993.371V430.414C996.122 430.396 998.117 430.3 1000.46 429.922L1000.63 431.275C998.135 431.68 995.973 431.759 993.002 431.768H991.719V421.133H999.506ZM1002.16 435.494V419.744H1003.85V435.494H1002.16ZM1011.78 422.627C1011.78 424.736 1013.24 426.723 1015.64 427.531L1014.78 428.85C1013.01 428.234 1011.7 426.978 1011 425.387C1010.32 427.162 1008.96 428.533 1007.12 429.219L1006.19 427.9C1008.68 427.048 1010.11 424.921 1010.12 422.574V420.711H1011.78V422.627ZM1008.72 435.16V430.221H1010.42V433.807H1019.37V435.16H1008.72ZM1017.01 431.346V419.727H1018.68V424.473H1020.97V425.896H1018.68V431.346H1017.01ZM1026.22 420.465C1028.3 420.447 1029.91 421.651 1030.25 423.418H1033.33V419.744H1035V428.199H1033.33V424.789H1030.26C1029.93 426.6 1028.32 427.812 1026.22 427.812C1023.82 427.812 1022.08 426.292 1022.09 424.121C1022.08 421.977 1023.82 420.447 1026.22 420.465ZM1023.69 424.121C1023.68 425.466 1024.74 426.406 1026.22 426.406C1027.68 426.406 1028.72 425.466 1028.72 424.121C1028.72 422.768 1027.68 421.845 1026.22 421.854C1024.74 421.845 1023.68 422.768 1023.69 424.121ZM1024.73 435.301V428.955H1026.38V430.783H1033.33V428.955H1035V435.301H1024.73ZM1026.38 433.93H1033.33V432.102H1026.38V433.93ZM1051.82 429.008V430.326H1045.38V435.494H1043.75V430.326H1037.4V429.008H1051.82ZM1039.2 427.215V420.377H1040.85V422.434H1048.34V420.377H1050.01V427.215H1039.2ZM1040.85 425.879H1048.34V423.77H1040.85V425.879Z" fill="#333333"/>
</svg>
