<svg width="200" height="24" viewBox="0 0 200 24" fill="none" xmlns="http://www.w3.org/2000/svg">
<path d="M49.4669 0H35.1504C34.8501 0 34.5697 0.117626 34.3595 0.323494L31.1458 3.46054C30.9356 3.66641 30.8154 3.94088 30.8154 4.23497V23.8218C30.8154 23.9199 30.8955 23.9983 30.9956 23.9983H36.3618C36.4619 23.9983 36.542 23.9199 36.542 23.8218V5.8035C36.542 5.70546 36.6221 5.62705 36.7222 5.62705H49.4569C49.557 5.62705 49.6371 5.54863 49.6371 5.45059V0.186264C49.6371 0.0882315 49.557 0.00978289 49.4569 0.00978289L49.4669 0Z" fill="#BA141A"/>
<path d="M27.6918 0.178387V19.7652C27.6918 20.0593 27.5717 20.3338 27.3615 20.5397L24.1578 23.6767C23.9475 23.8826 23.6672 24.0002 23.3669 24.0002H4.32497C4.02462 24.0002 3.7443 23.8826 3.53406 23.6767L0.330382 20.5397C0.12014 20.3338 0 20.0593 0 19.7652V7.10928H5.73659V18.2065C5.73659 18.3046 5.81669 18.383 5.91681 18.383H10.7924C10.8925 18.383 10.9726 18.3046 10.9726 18.2065V0.1882C10.9726 0.0901674 11.0527 0.0117188 11.1528 0.0117188H16.529C16.6291 0.0117188 16.7092 0.0901674 16.7092 0.1882V18.2065C16.7092 18.3046 16.7893 18.383 16.8894 18.383H21.765C21.8652 18.383 21.9452 18.3046 21.9452 18.2065V0.1882C21.9452 0.0901674 22.0253 0.0117188 22.1255 0.0117188H27.4916C27.5917 0.0117188 27.6718 0.0901674 27.6718 0.1882L27.6918 0.178387Z" fill="#BA141A"/>
<path d="M49.4768 9.45703H38.2539C38.1544 9.45703 38.0737 9.53603 38.0737 9.63348V14.2116C38.0737 14.3091 38.1544 14.3881 38.2539 14.3881H49.4768C49.5764 14.3881 49.6571 14.3091 49.6571 14.2116V9.63348C49.6571 9.53603 49.5764 9.45703 49.4768 9.45703Z" fill="#BA141A"/>
<path d="M52.7805 7.10547H58.5171V23.771C58.5171 23.8886 58.417 23.9964 58.2868 23.9964H53.0008C52.8806 23.9964 52.7705 23.8984 52.7705 23.771V7.10547H52.7805Z" fill="#BA141A"/>
<path d="M53.001 0H58.2871C58.4072 0 58.5174 0.0980132 58.5174 0.225455V5.61723H52.7808V0.225455C52.7808 0.107816 52.8809 0 53.011 0H53.001Z" fill="#B5B3B3"/>
<path d="M0.220255 0H5.50633C5.62647 0 5.73659 0.0980132 5.73659 0.225455V5.61723H0V0.225455C0 0.107816 0.100111 0 0.230261 0H0.220255Z" fill="#B5B3B3"/>
<path d="M71.0419 16.6289L72.2833 22.6089L73.2945 16.6289H74.5058L73.1443 23.9225H71.4924L70.321 18.1876L69.1997 23.9225H67.5178L66.1562 16.6289H67.3676L68.3788 22.6187L69.5902 16.6289H71.0218H71.0419Z" fill="#939598"/>
<path d="M75.667 20.2642C75.667 19.5486 75.7471 18.9506 75.9073 18.4702C76.0674 17.9899 76.2877 17.6174 76.558 17.3331C76.8383 17.0488 77.1587 16.8527 77.5191 16.735C77.8895 16.6174 78.28 16.5586 78.6905 16.5586C79.1009 16.5586 79.5014 16.6174 79.8618 16.735C80.2322 16.8527 80.5526 17.0488 80.8229 17.3331C81.1032 17.6174 81.3135 17.9899 81.4737 18.4702C81.6339 18.9506 81.7139 19.5486 81.7139 20.2642C81.7139 20.9799 81.6339 21.5876 81.4737 22.068C81.3135 22.5484 81.0932 22.9209 80.8229 23.2052C80.5526 23.4895 80.2222 23.6856 79.8618 23.8032C79.4914 23.9208 79.1009 23.9698 78.6905 23.9698C78.28 23.9698 77.8795 23.911 77.5191 23.8032C77.1487 23.6856 76.8283 23.4895 76.558 23.2052C76.2777 22.9209 76.0674 22.5484 75.9073 22.068C75.7471 21.5876 75.667 20.9897 75.667 20.2642ZM76.9385 20.2642C76.9385 20.774 76.9785 21.2053 77.0686 21.5582C77.1587 21.9112 77.2788 22.1856 77.429 22.4013C77.5892 22.617 77.7694 22.7641 77.9796 22.8523C78.1899 22.9405 78.4302 22.9895 78.6805 22.9895C78.9307 22.9895 79.171 22.9405 79.3813 22.8523C79.5915 22.7641 79.7817 22.617 79.9319 22.4013C80.0921 22.1856 80.2122 21.9112 80.2923 21.5582C80.3824 21.2053 80.4225 20.774 80.4225 20.2642C80.4225 19.7544 80.3824 19.3231 80.2923 18.9702C80.2022 18.6173 80.0821 18.3428 79.9319 18.1271C79.7717 17.9114 79.5915 17.7644 79.3813 17.6762C79.171 17.5879 78.9307 17.5389 78.6805 17.5389C78.4302 17.5389 78.1899 17.5879 77.9796 17.6762C77.7694 17.7644 77.5792 17.9114 77.429 18.1271C77.2688 18.3428 77.1487 18.6173 77.0686 18.9702C76.9785 19.3231 76.9385 19.7544 76.9385 20.2642Z" fill="#939598"/>
<path d="M89.1329 16.6289V23.8833H87.2808L84.3874 17.8053V23.8833H83.106V16.6289H85.0082L87.8514 22.6873V16.6289H89.1329Z" fill="#939598"/>
<path d="M91.5251 21.6855C91.5251 21.8913 91.5352 22.0678 91.5652 22.2345C91.5952 22.4011 91.6353 22.5285 91.7154 22.6462C91.7854 22.754 91.8856 22.8422 92.0157 22.9011C92.1459 22.9599 92.306 22.9893 92.5063 22.9893C92.7365 22.9893 92.9268 22.9501 93.0669 22.8618C93.2071 22.7834 93.3172 22.6658 93.3873 22.5188C93.4574 22.3717 93.5074 22.205 93.5374 22.009C93.5575 21.8129 93.5675 21.607 93.5675 21.3816V16.6172H94.8389V21.3816C94.8389 21.8717 94.7789 22.2835 94.6587 22.6168C94.5386 22.9501 94.3784 23.2148 94.1582 23.4206C93.9479 23.6265 93.6976 23.7736 93.4073 23.8618C93.117 23.95 92.8066 23.999 92.4662 23.999C92.0157 23.999 91.6453 23.9402 91.3549 23.8128C91.0646 23.6853 90.8343 23.5187 90.6741 23.303C90.504 23.0873 90.3938 22.8422 90.3238 22.5678C90.2637 22.2933 90.2236 21.9992 90.2236 21.6953V20.9894H91.5051V21.6953L91.5251 21.6855Z" fill="#939598"/>
<path d="M97.6723 21.4404C97.6723 22.009 97.8125 22.4109 98.1028 22.6462C98.3832 22.8814 98.7736 22.9991 99.2542 22.9991C99.7347 22.9991 100.125 22.8814 100.405 22.6462C100.686 22.4109 100.826 22.009 100.826 21.4404V16.6172H102.097V21.2737C102.097 21.7737 102.027 22.1952 101.897 22.5482C101.757 22.8913 101.567 23.1755 101.317 23.3814C101.066 23.5971 100.766 23.7441 100.416 23.8422C100.065 23.9402 99.6847 23.9892 99.2542 23.9892C98.8237 23.9892 98.4332 23.9402 98.0828 23.8422C97.7324 23.7441 97.4321 23.5971 97.1818 23.3814C96.9315 23.1657 96.7413 22.8913 96.6011 22.5482C96.461 22.205 96.4009 21.7737 96.4009 21.2737V16.6172H97.6723V21.4404Z" fill="#939598"/>
<path d="M107.694 19.7541H111.509V20.8031H107.694V23.9205H106.423V16.6367H111.509V17.6856H107.694V19.7639V19.7541Z" fill="#939598"/>
<path d="M113.921 21.4404C113.921 22.009 114.061 22.4109 114.351 22.6462C114.632 22.8814 115.022 22.9991 115.503 22.9991C115.983 22.9991 116.374 22.8814 116.654 22.6462C116.934 22.4109 117.075 22.009 117.075 21.4404V16.6172H118.346V21.2737C118.346 21.7737 118.276 22.1952 118.146 22.5482C118.006 22.8913 117.815 23.1755 117.565 23.3814C117.315 23.5971 117.014 23.7441 116.664 23.8422C116.314 23.9402 115.923 23.9892 115.503 23.9892C115.082 23.9892 114.682 23.9402 114.331 23.8422C113.981 23.7441 113.681 23.5971 113.43 23.3814C113.18 23.1657 112.99 22.8913 112.85 22.5482C112.709 22.205 112.649 21.7737 112.649 21.2737V16.6172H113.921V21.4404Z" fill="#939598"/>
<path d="M119.467 16.6289H124.944V17.7269H122.751V23.9127H121.48V17.7269H119.467V16.6289Z" fill="#939598"/>
<path d="M127.347 21.4404C127.347 22.009 127.487 22.4109 127.777 22.6462C128.057 22.8814 128.448 22.9991 128.928 22.9991C129.409 22.9991 129.799 22.8814 130.08 22.6462C130.36 22.4109 130.5 22.009 130.5 21.4404V16.6172H131.772V21.2737C131.772 21.7737 131.702 22.1952 131.572 22.5482C131.431 22.8913 131.241 23.1755 130.991 23.3814C130.741 23.5971 130.44 23.7441 130.09 23.8422C129.739 23.9402 129.349 23.9892 128.928 23.9892C128.508 23.9892 128.108 23.9402 127.757 23.8422C127.407 23.7441 127.106 23.5971 126.856 23.3814C126.606 23.1657 126.416 22.8913 126.275 22.5482C126.135 22.205 126.075 21.7737 126.075 21.2737V16.6172H127.347V21.4404Z" fill="#939598"/>
<path d="M136.207 16.6172C137.078 16.6172 137.719 16.8133 138.129 17.2152C138.539 17.6171 138.75 18.2347 138.75 19.068C138.75 20.2052 138.349 20.9502 137.538 21.2933L138.87 23.8912H137.588L136.377 21.5188H134.615V23.901H133.374V16.6172H136.217H136.207ZM136.157 20.5189C136.367 20.5189 136.557 20.4993 136.727 20.4503C136.898 20.4012 137.038 20.3228 137.148 20.2052C137.268 20.0875 137.358 19.9405 137.418 19.7542C137.478 19.568 137.508 19.3425 137.508 19.068C137.508 18.5386 137.388 18.1661 137.148 17.9406C136.908 17.7152 136.577 17.6073 136.157 17.6073H134.615V20.5091H136.157V20.5189Z" fill="#939598"/>
<path d="M145.447 22.8637V23.9127H140.071V16.6289H145.357V17.6779H141.353V19.7561H145.357V20.8051H141.353V22.8736H145.457L145.447 22.8637Z" fill="#939598"/>
<path d="M150.633 16.6289V23.9127H149.362V16.6289H150.633Z" fill="#939598"/>
<path d="M158.232 16.6289V23.8833H156.38L153.487 17.8053V23.8833H152.205V16.6289H154.117L156.961 22.6873V16.6289H158.242H158.232Z" fill="#939598"/>
<path d="M161.926 16.6583C162.597 16.6583 163.158 16.7367 163.608 16.8935C164.059 17.0504 164.419 17.2857 164.689 17.5896C164.96 17.8935 165.15 18.266 165.27 18.7169C165.38 19.1581 165.44 19.6678 165.44 20.2364C165.44 20.805 165.38 21.3246 165.27 21.7755C165.16 22.2265 164.96 22.6088 164.689 22.9127C164.419 23.2166 164.059 23.4519 163.608 23.6186C163.158 23.7852 162.597 23.8636 161.926 23.8636H159.704V16.6484H161.926V16.6583ZM162.076 22.8637C162.397 22.8637 162.697 22.8343 162.947 22.7657C163.208 22.6971 163.428 22.5696 163.608 22.3833C163.788 22.1873 163.928 21.9226 164.019 21.5795C164.119 21.2363 164.169 20.7854 164.169 20.2364C164.169 19.6874 164.119 19.2561 164.019 18.9228C163.918 18.5895 163.768 18.3248 163.578 18.1287C163.388 17.9425 163.158 17.815 162.877 17.7464C162.597 17.6778 162.287 17.6484 161.936 17.6484H160.985V22.8735H162.076V22.8637Z" fill="#939598"/>
<path d="M168.153 21.4404C168.153 22.009 168.293 22.4109 168.584 22.6462C168.874 22.8814 169.255 22.9991 169.735 22.9991C170.216 22.9991 170.606 22.8814 170.886 22.6462C171.167 22.4109 171.307 22.009 171.307 21.4404V16.6172H172.578V21.2737C172.578 21.7737 172.508 22.1952 172.378 22.5482C172.238 22.8913 172.048 23.1755 171.797 23.3814C171.547 23.5971 171.247 23.7441 170.896 23.8422C170.546 23.9402 170.166 23.9892 169.735 23.9892C169.305 23.9892 168.914 23.9402 168.564 23.8422C168.213 23.7441 167.913 23.5971 167.663 23.3814C167.412 23.1657 167.222 22.8913 167.082 22.5482C166.942 22.205 166.882 21.7737 166.882 21.2737V16.6172H168.153V21.4404Z" fill="#939598"/>
<path d="M175.071 21.7347C175.071 22.1955 175.211 22.5288 175.502 22.7444C175.782 22.9601 176.212 23.068 176.763 23.068C177.274 23.068 177.684 22.9993 177.974 22.8621C178.265 22.7248 178.425 22.4699 178.425 22.1072C178.425 21.8916 178.375 21.7151 178.265 21.5778C178.155 21.4406 178.024 21.3328 177.864 21.2347C177.704 21.1465 177.524 21.0681 177.344 21.0093C177.163 20.9505 176.983 20.8916 176.823 20.8328L175.872 20.4897C175.562 20.3721 175.281 20.2642 175.031 20.1368C174.781 20.0191 174.57 19.8819 174.39 19.7348C174.21 19.5878 174.07 19.4211 173.98 19.2251C173.89 19.029 173.83 18.8133 173.83 18.5486C173.83 18.2546 173.89 17.9801 174 17.735C174.11 17.4899 174.29 17.284 174.52 17.1076C174.751 16.9409 175.041 16.8037 175.401 16.7056C175.752 16.6076 176.162 16.5586 176.633 16.5586C177.624 16.5586 178.345 16.7253 178.785 17.0586C179.226 17.3919 179.456 17.8526 179.456 18.4506V18.6957H178.185V18.4898C178.185 18.1859 178.044 17.9604 177.774 17.8036C177.504 17.6467 177.133 17.5781 176.653 17.5781C176.443 17.5781 176.242 17.5879 176.052 17.6174C175.862 17.6468 175.702 17.686 175.562 17.7546C175.421 17.8232 175.311 17.9114 175.231 18.0193C175.151 18.1271 175.111 18.2644 175.111 18.4212C175.111 18.5879 175.151 18.7349 175.221 18.8428C175.291 18.9506 175.401 19.0486 175.552 19.1368C175.702 19.2251 175.872 19.3035 176.082 19.3819C176.292 19.4604 176.533 19.5486 176.803 19.6368L177.744 19.9799C178.084 20.0976 178.375 20.225 178.615 20.3524C178.865 20.4799 179.066 20.6171 179.226 20.774C179.386 20.9309 179.506 21.1073 179.586 21.2936C179.666 21.4896 179.706 21.7151 179.706 21.9602C179.706 22.2641 179.646 22.5288 179.526 22.7738C179.406 23.0189 179.226 23.2346 178.986 23.411C178.745 23.5875 178.435 23.7248 178.064 23.8228C177.694 23.9208 177.254 23.9698 176.753 23.9698C176.182 23.9698 175.712 23.911 175.331 23.7934C174.951 23.6757 174.651 23.5189 174.43 23.313C174.2 23.1072 174.04 22.8719 173.95 22.6072C173.86 22.3327 173.81 22.0484 173.81 21.7445V21.4896H175.081V21.7151L175.071 21.7347Z" fill="#939598"/>
<path d="M180.408 16.6289H185.884V17.7269H183.691V23.9127H182.42V17.7269H180.408V16.6289Z" fill="#939598"/>
<path d="M189.848 16.6172C190.719 16.6172 191.36 16.8133 191.771 17.2152C192.181 17.6171 192.391 18.2347 192.391 19.068C192.391 20.2052 191.991 20.9502 191.18 21.2933L192.511 23.8912H191.23L190.019 21.5188H188.257V23.901H187.015V16.6172H189.858H189.848ZM189.798 20.5189C190.009 20.5189 190.199 20.4993 190.369 20.4503C190.539 20.4012 190.679 20.3228 190.789 20.2052C190.91 20.0875 191 19.9405 191.06 19.7542C191.12 19.568 191.15 19.3425 191.15 19.068C191.15 18.5386 191.03 18.1661 190.789 17.9406C190.549 17.7152 190.219 17.6073 189.798 17.6073H188.257V20.5091H189.798V20.5189Z" fill="#939598"/>
<path d="M198.669 16.6172H199.99L197.117 21.0679V23.9108H195.876V21.0679L193.002 16.6172H194.324L196.496 20.0581L198.669 16.6172Z" fill="#939598"/>
<path d="M68.2384 12.6948C67.8279 12.489 67.4975 12.2341 67.2272 11.9302C66.9669 11.6263 66.7567 11.293 66.5965 10.9106C66.4363 10.5283 66.3262 10.1166 66.2661 9.66565C66.2061 9.2147 66.166 8.73435 66.166 8.23438V5.03852C66.166 4.52875 66.1961 4.0484 66.2661 3.60726C66.3262 3.15631 66.4463 2.74455 66.5965 2.36223C66.7567 1.9799 66.9669 1.64659 67.2272 1.35249C67.4875 1.0584 67.8279 0.803524 68.2384 0.597656L69.3397 1.9701C69.0994 2.10735 68.8892 2.26421 68.719 2.44067C68.5488 2.61713 68.4086 2.83278 68.2985 3.06806C68.1883 3.31314 68.1082 3.59746 68.0582 3.92097C68.0081 4.24447 67.9781 4.61698 67.9781 5.03852V8.23438C67.9781 8.69514 67.9981 9.09706 68.0382 9.42057C68.0782 9.75388 68.1483 10.0382 68.2484 10.2833C68.3485 10.5283 68.4687 10.7342 68.6289 10.9106C68.789 11.0871 68.9893 11.244 69.2295 11.3812L68.2484 12.6851L68.2384 12.6948Z" fill="#231F20"/>
<path d="M74.4053 6.86295C74.7056 7.43154 75.026 8.02951 75.3864 8.64712C75.7469 9.26472 76.1073 9.84311 76.4677 10.3921L75.2563 11.294C74.9359 10.794 74.6055 10.2843 74.2752 9.75489C73.9448 9.22551 73.6344 8.70593 73.3341 8.18636C73.304 8.13735 73.284 8.09815 73.254 8.04913C73.234 8.00012 73.2139 7.94129 73.1939 7.86287C73.1739 7.94129 73.1539 8.00992 73.1338 8.04913C73.1138 8.09815 73.0938 8.13735 73.0638 8.18636C72.7935 8.73534 72.5231 9.27454 72.2328 9.80392C71.9525 10.3431 71.6521 10.8823 71.3218 11.4214L69.9902 10.6078C70.3406 10.0392 70.691 9.4314 71.0214 8.79419C71.3618 8.15698 71.6622 7.53936 71.9325 6.94136C72.0526 6.67667 72.1427 6.43158 72.2028 6.19631C72.2628 5.96103 72.2929 5.69636 72.2929 5.39246V2.76518H70.2205V1.26528H75.9771V2.76518H74.0048V5.39246C74.0048 5.69636 74.0349 5.95123 74.0849 6.1669C74.135 6.38257 74.2351 6.62766 74.3653 6.88254L74.4053 6.86295ZM78.47 0.922193V5.23561H79.6213V0.84375H81.3533V12.4998H79.6213V6.76491H78.47V12.4214H76.758V0.931976H78.47V0.922193Z" fill="#231F20"/>
<path d="M83.2459 11.3929C83.4861 11.2557 83.6864 11.0988 83.8466 10.9224C84.0068 10.7459 84.1269 10.5303 84.227 10.295C84.3271 10.0499 84.3972 9.76559 84.4372 9.43229C84.4773 9.09898 84.4973 8.70682 84.4973 8.24607V5.05024C84.4973 4.6287 84.4773 4.24636 84.4172 3.93266C84.3672 3.60915 84.2871 3.32486 84.1769 3.07978C84.0668 2.8347 83.9267 2.62885 83.7565 2.45239C83.5863 2.27593 83.376 2.11907 83.1357 1.98182L84.237 0.609375C84.6475 0.815243 84.9779 1.07012 85.2482 1.36421C85.5085 1.65831 85.7187 2.00142 85.8789 2.37394C86.0391 2.75627 86.1492 3.16803 86.2093 3.61897C86.2694 4.06992 86.3094 4.55027 86.3094 5.05024V8.24607C86.3094 8.75584 86.2794 9.23622 86.2093 9.67737C86.1392 10.1185 86.0391 10.54 85.8789 10.9224C85.7187 11.3047 85.5085 11.6478 85.2482 11.9419C84.9879 12.2458 84.6475 12.4909 84.237 12.7066L83.2559 11.4027L83.2459 11.3929Z" fill="#231F20"/>
<path d="M91.4554 9.54718V7.42968H88.1416V6.01801H95.9706V7.42968H93.1974V9.54718H91.4654H91.4554ZM91.946 0.8125C92.4866 0.8125 92.9571 0.871322 93.3676 0.998764C93.7781 1.1164 94.1085 1.28306 94.3788 1.48893C94.6491 1.69479 94.8493 1.93007 94.9795 2.19476C95.1096 2.45945 95.1797 2.73393 95.1797 3.01823V3.1849C95.1797 3.47899 95.1096 3.75346 94.9795 4.01815C94.8493 4.28283 94.6391 4.51811 94.3788 4.72398C94.1085 4.92985 93.7681 5.0867 93.3676 5.21414C92.9571 5.33178 92.4866 5.40041 91.946 5.40041C91.4054 5.40041 90.9048 5.34158 90.5043 5.21414C90.0938 5.0867 89.7535 4.92985 89.4832 4.72398C89.2128 4.51811 89.0026 4.28283 88.8725 4.01815C88.7423 3.75346 88.6722 3.46919 88.6722 3.1849V3.01823C88.6722 2.73393 88.7423 2.45945 88.8725 2.19476C89.0026 1.93007 89.2128 1.69479 89.4832 1.48893C89.7535 1.28306 90.0938 1.12621 90.5043 0.998764C90.9148 0.881125 91.3953 0.8125 91.946 0.8125ZM98.924 11.1843V12.6548H90.9248C90.6345 12.6548 90.4242 12.6254 90.2841 12.5666C90.1439 12.5077 90.0037 12.3999 89.8636 12.2431L89.5032 11.8804C89.4331 11.8019 89.363 11.7235 89.313 11.6549C89.2629 11.5863 89.2228 11.5078 89.1928 11.4294C89.1628 11.351 89.1428 11.2529 89.1327 11.1549C89.1227 11.0471 89.1127 10.9196 89.1127 10.7628V8.82175H90.8848V10.5765C90.8848 10.6941 90.9148 10.7922 90.9649 10.8804L91.1851 11.1157C91.1851 11.1157 91.2552 11.1647 91.2852 11.1745C91.3153 11.1843 91.3753 11.1941 91.4454 11.1941H98.904L98.924 11.1843ZM93.4777 3.05745C93.4777 2.84178 93.3576 2.63589 93.1073 2.45944C92.867 2.28298 92.4766 2.18495 91.946 2.18495C91.4154 2.18495 91.0149 2.27317 90.7646 2.45944C90.5143 2.63589 90.3842 2.84178 90.3842 3.05745V3.13586C90.3842 3.35153 90.5143 3.5574 90.7646 3.74366C91.0149 3.92992 91.4054 4.01815 91.946 4.01815C92.4866 4.01815 92.857 3.92992 93.1073 3.74366C93.3476 3.5574 93.4777 3.36134 93.4777 3.13586V3.05745ZM94.2987 8.0571H96.9117V0.841909H98.6637V10.1452H96.9117V9.34132H94.2987V8.06689V8.0571Z" fill="#231F20"/>
<path d="M105.461 12.6935V9.20352H100.996V7.68404H111.668V9.20352H107.253V12.6935H105.461ZM101.627 0.949219H111.038V2.46871H107.303V2.90005C107.303 3.00789 107.303 3.10592 107.313 3.17454C107.323 3.24316 107.343 3.32158 107.383 3.3804C107.423 3.43922 107.474 3.49805 107.534 3.54707C107.594 3.60589 107.674 3.6647 107.774 3.72352C108.355 4.07644 108.955 4.40976 109.576 4.71366C110.187 5.01756 110.817 5.32144 111.458 5.61554L110.727 6.98798C110.026 6.67428 109.336 6.33117 108.665 5.97825C107.994 5.62534 107.353 5.26262 106.733 4.88029C106.633 4.81167 106.552 4.75287 106.482 4.71366C106.422 4.67444 106.372 4.62542 106.362 4.5568C106.342 4.62542 106.302 4.67442 106.242 4.72344C106.182 4.77246 106.102 4.82149 106.012 4.89011C104.73 5.68417 103.399 6.40961 102.017 7.06643L101.256 5.69398C101.947 5.38028 102.598 5.05676 103.189 4.73325C103.789 4.40975 104.36 4.07645 104.921 3.73333C105.011 3.67451 105.091 3.61567 105.151 3.55685C105.211 3.49803 105.261 3.44903 105.301 3.39021C105.341 3.33139 105.361 3.26278 105.371 3.18435C105.371 3.10593 105.381 3.0177 105.381 2.90987V2.47852H101.647V0.959002L101.627 0.949219Z" fill="#231F20"/>
<path d="M116.234 11.5587C116.073 11.5587 115.943 11.5587 115.833 11.5391C115.723 11.5293 115.623 11.4999 115.523 11.4607C115.433 11.4215 115.343 11.3724 115.262 11.3136C115.182 11.2548 115.082 11.1666 114.982 11.0587L114.301 10.3235C114.211 10.2255 114.131 10.1372 114.081 10.049C114.021 9.97057 113.981 9.88234 113.951 9.79411C113.921 9.70588 113.901 9.60785 113.881 9.49021C113.871 9.37257 113.861 9.23533 113.861 9.06868V1.67703C113.861 1.34372 114.021 1.17706 114.351 1.17706H119.627C119.958 1.17706 120.128 1.34372 120.128 1.67703V11.0391C120.128 11.3822 119.958 11.5587 119.627 11.5587H116.244H116.234ZM118.326 10.0196V2.69658H115.633V8.96083C115.633 9.03925 115.633 9.10787 115.663 9.16669C115.683 9.2255 115.723 9.28433 115.803 9.35295L116.274 9.87252C116.334 9.93134 116.394 9.98038 116.444 9.99018C116.494 10.0098 116.554 10.0196 116.614 10.0196H118.326ZM123.922 0.84375V12.4998H122.15V0.84375H123.922Z" fill="#231F20"/>
<path d="M131.13 6.01004C131.13 6.66686 130.8 6.99037 130.129 6.99037H127.927V9.1569C127.927 9.29415 127.977 9.40197 128.067 9.4804L128.467 9.93134C128.467 9.93134 128.558 10.0098 128.598 10.0294C128.638 10.049 128.698 10.0588 128.768 10.0588H131.431V11.5685H128.307C128.027 11.5685 127.817 11.5391 127.667 11.4901C127.516 11.4313 127.346 11.3136 127.176 11.1077L126.565 10.4607C126.485 10.3725 126.415 10.2843 126.365 10.2156C126.315 10.147 126.275 10.0686 126.245 9.98037C126.215 9.89214 126.195 9.8039 126.185 9.69607C126.185 9.58823 126.175 9.46079 126.175 9.29413V6.01004C126.175 5.70614 126.335 5.54929 126.665 5.54929H129.178C129.308 5.54929 129.368 5.4807 129.368 5.33365V2.75539H126.215V1.2555H130.63C130.97 1.2555 131.141 1.42213 131.141 1.75544V6.01004H131.13ZM133.994 0.922193V5.23561H135.145V0.84375H136.877V12.4998H135.145V6.76491H133.994V12.4214H132.282V0.931976H133.994V0.922193Z" fill="#231F20"/>
<path d="M143.445 4.00039C143.835 4.43173 144.236 4.85326 144.646 5.24539C145.057 5.63752 145.487 6.03948 145.928 6.4316L144.827 7.59819C144.366 7.19626 143.936 6.80411 143.545 6.41198C143.155 6.01985 142.774 5.60813 142.414 5.17679C142.354 5.10817 142.294 5.04934 142.264 5.01012C142.224 4.97091 142.194 4.91211 142.163 4.84349C142.163 4.90231 142.133 4.96111 142.093 5.01012C142.053 5.05914 142.003 5.11795 141.943 5.18657C141.563 5.62772 141.182 6.04927 140.802 6.4512C140.421 6.85313 139.991 7.25507 139.52 7.6766L138.369 6.51983C138.86 6.08849 139.31 5.66694 139.721 5.2552C140.131 4.84347 140.522 4.42192 140.882 3.99058C140.952 3.90235 141.022 3.81412 141.072 3.7455C141.122 3.67688 141.162 3.59847 141.192 3.52004C141.222 3.44162 141.242 3.36317 141.242 3.28475C141.242 3.20632 141.252 3.10829 141.252 2.98085V1.07902H143.075V2.98085C143.075 3.21613 143.095 3.4024 143.145 3.54945C143.195 3.6867 143.295 3.84354 143.455 4.00039H143.445ZM148.861 11.147V12.6566H141.503C141.222 12.6566 141.012 12.6272 140.882 12.5684C140.742 12.5096 140.602 12.4018 140.462 12.2449L140.061 11.8332C139.991 11.7547 139.921 11.6763 139.871 11.6077C139.821 11.5391 139.781 11.4607 139.751 11.3822C139.721 11.3038 139.701 11.2058 139.691 11.1077C139.681 10.9999 139.671 10.8725 139.671 10.7156V8.43144H141.443V10.4803C141.443 10.6176 141.473 10.7156 141.523 10.7842L141.783 11.0587C141.823 11.1176 141.903 11.1371 142.043 11.1371H148.851L148.861 11.147ZM148.691 0.84375V3.82394H150.303V5.32383H148.691V9.4804H146.899V0.84375H148.691Z" fill="#231F20"/>
<path d="M161.826 0.84029V6.8889H160.074V4.57532H157.931C157.871 4.89883 157.751 5.20272 157.581 5.48701C157.411 5.77131 157.19 6.0164 156.92 6.23207C156.65 6.44774 156.339 6.6144 155.979 6.73204C155.619 6.84968 155.228 6.90849 154.788 6.90849C154.277 6.90849 153.827 6.83008 153.426 6.67323C153.026 6.51637 152.695 6.31049 152.415 6.0458C152.135 5.78112 151.924 5.46741 151.784 5.1243C151.644 4.77138 151.564 4.40866 151.564 4.01653V3.63422C151.564 3.24209 151.634 2.86955 151.784 2.51663C151.924 2.16372 152.135 1.85003 152.415 1.58535C152.695 1.32066 153.026 1.10497 153.426 0.957924C153.827 0.801073 154.277 0.722656 154.788 0.722656C155.218 0.722656 155.619 0.781478 155.979 0.90892C156.339 1.03636 156.65 1.19322 156.92 1.40889C157.18 1.61476 157.401 1.86963 157.571 2.15392C157.741 2.44802 157.861 2.75192 157.921 3.07543H160.064V0.850103H161.816L161.826 0.84029ZM154.377 8.63387H160.084V7.51629H161.836V12.163C161.836 12.4767 161.666 12.6434 161.325 12.6434H154.407C154.127 12.6434 153.927 12.614 153.787 12.5649C153.656 12.5159 153.506 12.4081 153.336 12.2415L152.986 11.8983C152.916 11.8297 152.845 11.7611 152.795 11.6925C152.745 11.6337 152.705 11.565 152.675 11.4964C152.645 11.4278 152.625 11.3494 152.615 11.2611C152.605 11.1729 152.595 11.0651 152.595 10.9376V7.51629H154.367V8.63387H154.377ZM156.249 3.6244C156.249 3.23228 156.129 2.89897 155.879 2.61467C155.639 2.33038 155.278 2.18333 154.808 2.18333C154.337 2.18333 153.967 2.33038 153.716 2.61467C153.476 2.89897 153.346 3.24208 153.346 3.6244V4.00675C153.346 4.38907 153.466 4.72237 153.716 5.00666C153.957 5.29096 154.327 5.43801 154.808 5.43801C155.288 5.43801 155.639 5.29096 155.879 5.00666C156.119 4.72237 156.249 4.38907 156.249 4.00675V3.6244ZM160.084 11.1631V10.1044H154.377V10.7122C154.377 10.7906 154.407 10.869 154.477 10.9278L154.617 11.0749C154.678 11.1337 154.748 11.1533 154.828 11.1533H160.094L160.084 11.1631Z" fill="#231F20"/>
<path d="M168.544 2.62795V3.4416C168.544 3.67688 168.564 3.87295 168.614 4.0298C168.664 4.18665 168.744 4.3337 168.874 4.46115C169.024 4.60819 169.195 4.76505 169.395 4.95131C169.595 5.12777 169.805 5.31403 170.026 5.5101C170.246 5.69636 170.476 5.89241 170.706 6.07867C170.937 6.26493 171.157 6.43161 171.357 6.58846L170.386 7.79424C170.166 7.63739 169.935 7.46093 169.695 7.27467C169.455 7.0786 169.225 6.88253 169.004 6.68647C168.774 6.4904 168.564 6.29436 168.354 6.0983C168.153 5.90223 167.983 5.72578 167.843 5.57873C167.793 5.51991 167.753 5.47088 167.713 5.41206C167.673 5.35324 167.643 5.29443 167.623 5.23561C167.603 5.29443 167.573 5.35324 167.523 5.41206C167.473 5.47088 167.433 5.51991 167.402 5.57873C167.252 5.73558 167.082 5.91202 166.872 6.10808C166.672 6.30415 166.451 6.51001 166.221 6.71588C165.991 6.92174 165.761 7.11783 165.52 7.3237C165.29 7.51977 165.06 7.70603 164.85 7.87268L163.818 6.68647C164.029 6.51001 164.249 6.33356 164.489 6.1473C164.719 5.96104 164.94 5.76498 165.16 5.56892C165.38 5.37285 165.58 5.18657 165.781 5.00031C165.981 4.81405 166.161 4.63759 166.311 4.48074C166.451 4.33369 166.542 4.18664 166.592 4.0494C166.642 3.90235 166.662 3.7161 166.662 3.48082V2.66717H164.149V1.19668H171.017V2.66717H168.534L168.544 2.62795ZM174.731 11.147V12.6566H167.042C166.752 12.6566 166.542 12.6272 166.401 12.5684C166.261 12.5096 166.121 12.4018 165.981 12.2449L165.62 11.8822C165.55 11.8038 165.48 11.7253 165.43 11.6567C165.38 11.5881 165.34 11.5097 165.31 11.4312C165.28 11.3528 165.26 11.2548 165.25 11.1567C165.24 11.0489 165.23 10.9215 165.23 10.7646V8.44126H167.002V10.5392C167.002 10.6764 167.032 10.7744 167.102 10.8431L167.312 11.0783C167.312 11.0783 167.382 11.1273 167.412 11.1371C167.443 11.1469 167.503 11.1567 167.573 11.1567H174.721L174.731 11.147ZM174.461 0.84375V9.4804H172.689V0.84375H174.461Z" fill="#231F20"/>
<path d="M176.793 8.07785V6.70541H187.465V8.07785H176.793ZM177.173 2.29395V0.950915H181.258V0H183.05V0.950915H187.115V2.29395H177.173ZM183.921 8.70525C184.442 8.70525 184.882 8.75429 185.243 8.85232C185.603 8.95035 185.893 9.07779 186.124 9.24444C186.354 9.4111 186.514 9.61696 186.614 9.85224C186.714 10.0875 186.764 10.362 186.764 10.6463C186.764 10.9306 186.714 11.1855 186.614 11.4208C186.514 11.656 186.344 11.8619 186.124 12.0286C185.893 12.1952 185.603 12.3324 185.243 12.4207C184.882 12.5187 184.442 12.5677 183.921 12.5677H180.377C179.856 12.5677 179.416 12.5187 179.056 12.4207C178.685 12.3226 178.395 12.1952 178.165 12.0286C177.934 11.8619 177.774 11.656 177.674 11.4208C177.574 11.1855 177.524 10.9306 177.524 10.6463C177.524 10.362 177.574 10.0875 177.674 9.85224C177.774 9.61696 177.944 9.4111 178.165 9.24444C178.395 9.07779 178.685 8.94055 179.056 8.85232C179.416 8.75429 179.866 8.70525 180.377 8.70525H183.921ZM183.01 2.67626C183.961 2.67626 184.672 2.83312 185.123 3.13702C185.573 3.44092 185.803 3.87228 185.803 4.41145C185.803 4.95063 185.573 5.38197 185.123 5.69568C184.672 6.00938 183.961 6.16621 183.01 6.16621H181.258C180.277 6.16621 179.566 6.00938 179.116 5.69568C178.665 5.38197 178.445 4.95063 178.445 4.41145C178.445 3.87228 178.665 3.45072 179.116 3.13702C179.566 2.82331 180.277 2.66648 181.248 2.66648H183L183.01 2.67626ZM183.941 11.2345C184.302 11.2345 184.552 11.1757 184.692 11.0678C184.832 10.9502 184.902 10.813 184.902 10.6561C184.902 10.4797 184.832 10.3424 184.692 10.2248C184.552 10.1071 184.302 10.0581 183.941 10.0581H180.347C179.987 10.0581 179.736 10.1169 179.596 10.2248C179.456 10.3424 179.386 10.4797 179.386 10.6561C179.386 10.8326 179.456 10.96 179.596 11.0678C179.736 11.1855 179.987 11.2345 180.347 11.2345H183.941ZM183.09 4.8918C183.441 4.8918 183.691 4.8526 183.841 4.77417C183.991 4.69574 184.061 4.57809 184.061 4.42124C184.061 4.26439 183.991 4.15654 183.841 4.07812C183.691 3.99969 183.441 3.96048 183.09 3.96048H181.188C180.838 3.96048 180.587 3.99969 180.447 4.07812C180.307 4.15654 180.237 4.27419 180.237 4.42124C180.237 4.56829 180.307 4.69574 180.447 4.77417C180.587 4.8526 180.838 4.8918 181.188 4.8918H183.09Z" fill="#231F20"/>
<path d="M192.521 9.54718V7.42968H189.208V6.01801H197.037V7.42968H194.263V9.54718H192.531H192.521ZM193.022 0.8125C193.563 0.8125 194.033 0.871322 194.444 0.998764C194.854 1.1164 195.184 1.28306 195.455 1.48893C195.725 1.69479 195.925 1.93007 196.055 2.19476C196.186 2.45945 196.256 2.73393 196.256 3.01823V3.1849C196.256 3.47899 196.186 3.75346 196.055 4.01815C195.925 4.28283 195.715 4.51811 195.455 4.72398C195.184 4.92985 194.844 5.0867 194.444 5.21414C194.033 5.33178 193.563 5.40041 193.022 5.40041C192.481 5.40041 191.981 5.34158 191.58 5.21414C191.17 5.0867 190.829 4.92985 190.559 4.72398C190.289 4.51811 190.079 4.28283 189.948 4.01815C189.818 3.75346 189.748 3.46919 189.748 3.1849V3.01823C189.748 2.73393 189.818 2.45945 189.948 2.19476C190.079 1.93007 190.289 1.69479 190.559 1.48893C190.829 1.28306 191.17 1.12621 191.58 0.998764C191.991 0.881125 192.471 0.8125 193.022 0.8125ZM200 11.1843V12.6548H192.001C191.71 12.6548 191.5 12.6254 191.36 12.5666C191.22 12.5077 191.08 12.3999 190.939 12.2431L190.579 11.8804C190.509 11.8019 190.439 11.7235 190.389 11.6549C190.339 11.5863 190.299 11.5078 190.269 11.4294C190.239 11.351 190.219 11.2529 190.209 11.1549C190.199 11.0471 190.189 10.9196 190.189 10.7628V8.82175H191.961V10.5765C191.961 10.6941 191.991 10.7922 192.041 10.8804L192.261 11.1157C192.261 11.1157 192.331 11.1647 192.361 11.1745C192.391 11.1843 192.451 11.1941 192.521 11.1941H199.98L200 11.1843ZM194.554 3.05745C194.554 2.84178 194.434 2.63589 194.183 2.45944C193.943 2.28298 193.553 2.18495 193.022 2.18495C192.491 2.18495 192.091 2.27317 191.841 2.45944C191.59 2.63589 191.46 2.84178 191.46 3.05745V3.13586C191.46 3.35153 191.59 3.5574 191.841 3.74366C192.091 3.92992 192.481 4.01815 193.022 4.01815C193.563 4.01815 193.933 3.92992 194.183 3.74366C194.434 3.5574 194.554 3.36134 194.554 3.13586V3.05745ZM195.375 8.0571H197.988V0.841909H199.74V10.1452H197.988V9.34132H195.375V8.06689V8.0571Z" fill="#231F20"/>
</svg>
