<svg width="140" height="58" viewBox="0 0 140 58" fill="none" xmlns="http://www.w3.org/2000/svg">
<path d="M118.358 0H84.1079C83.3998 0 82.7225 0.274088 82.2145 0.776582L74.5333 8.3749C74.0408 8.86217 73.7483 9.54739 73.7483 10.2478V57.5736C73.7483 57.8173 73.9484 58 74.1793 58H87.0018C87.2481 58 87.4328 57.8021 87.4328 57.5736V14.0089C87.4328 13.7653 87.6329 13.5826 87.8638 13.5826H118.327C118.573 13.5826 118.758 13.3846 118.758 13.1562V0.426359C118.758 0.182725 118.558 0 118.327 0H118.358Z" fill="#BA141A"/>
<path d="M66.2672 0.426359V47.7522C66.2672 48.4526 65.9901 49.1226 65.4821 49.6251L57.801 57.2234C57.3084 57.7107 56.6157 58 55.9076 58H10.3593C9.65125 58 8.97395 57.7259 8.46598 57.2234L0.784809 49.6251C0.292229 49.1378 -0.000244141 48.4526 -0.000244141 47.7522V17.1762H13.7304V43.9911C13.7304 44.2347 13.9305 44.4174 14.1614 44.4174H25.8294C26.0757 44.4174 26.2604 44.2195 26.2604 43.9911V0.426359C26.2604 0.182725 26.4605 0 26.6914 0H39.5447C39.791 0 39.9757 0.197952 39.9757 0.426359V43.9758C39.9757 44.2195 40.1758 44.4022 40.4067 44.4022H52.0747C52.321 44.4022 52.5057 44.2043 52.5057 43.9758V0.426359C52.5057 0.182725 52.7058 0 52.9367 0H65.7592C66.0055 0 66.1902 0.197952 66.1902 0.426359H66.2672Z" fill="#BA141A"/>
<path d="M118.342 22.8711H91.5428C91.2963 22.8711 91.0964 23.0688 91.0964 23.3127V34.3371C91.0964 34.581 91.2963 34.7787 91.5428 34.7787H118.342C118.589 34.7787 118.789 34.581 118.789 34.3371V23.3127C118.789 23.0688 118.589 22.8711 118.342 22.8711Z" fill="#BA141A"/>
<path d="M126.285 17.1797H140V57.4554C140 57.7447 139.754 57.9883 139.461 57.9883H126.824C126.531 57.9883 126.285 57.7447 126.285 57.4554V17.1797Z" fill="#BA141A"/>
<path d="M126.824 0H139.461C139.754 0 140 0.243634 140 0.532948V13.5673H126.285V0.532948C126.285 0.243634 126.531 0 126.824 0Z" fill="#B5B3B3"/>
<path d="M0.569286 0H13.207C13.4995 0 13.7458 0.243634 13.7458 0.532948V13.5673H0.0305176V0.532948C0.0305176 0.243634 0.276817 0 0.569286 0Z" fill="#B5B3B3"/>
</svg>
