<svg width="20" height="20" viewBox="0 0 20 20" fill="none" xmlns="http://www.w3.org/2000/svg">
<path fill-rule="evenodd" clip-rule="evenodd" d="M8.74992 12.5002C10.821 12.5002 12.4999 10.8212 12.4999 8.75016C12.4999 6.6791 10.821 5.00016 8.74992 5.00016C6.67885 5.00016 4.99992 6.6791 4.99992 8.75016C4.99992 10.8212 6.67885 12.5002 8.74992 12.5002ZM8.74992 14.1668C11.7415 14.1668 14.1666 11.7417 14.1666 8.75016C14.1666 5.75862 11.7415 3.3335 8.74992 3.3335C5.75838 3.3335 3.33325 5.75862 3.33325 8.75016C3.33325 11.7417 5.75838 14.1668 8.74992 14.1668Z" fill="black"/>
<path fill-rule="evenodd" clip-rule="evenodd" d="M12.2559 11.0776L16.4226 15.2443L15.2441 16.4228L11.0774 12.2561L12.2559 11.0776Z" fill="black"/>
</svg>
