<svg width="20" height="20" viewBox="0 0 20 20" fill="none" xmlns="http://www.w3.org/2000/svg">
<path fill-rule="evenodd" clip-rule="evenodd" d="M9.99967 15.0007C12.7611 15.0007 14.9997 12.7621 14.9997 10.0007C14.9997 7.23923 12.7611 5.00065 9.99967 5.00065C7.23825 5.00065 4.99967 7.23923 4.99967 10.0007C4.99967 12.7621 7.23825 15.0007 9.99967 15.0007ZM9.99967 16.6673C13.6816 16.6673 16.6663 13.6825 16.6663 10.0007C16.6663 6.31875 13.6816 3.33398 9.99967 3.33398C6.31778 3.33398 3.33301 6.31875 3.33301 10.0007C3.33301 13.6825 6.31778 16.6673 9.99967 16.6673Z" fill="#F01B1B"/>
<ellipse cx="10.0003" cy="7.49935" rx="0.833333" ry="0.833333" fill="#F01B1B"/>
<rect x="9.16699" y="9.16602" width="1.66667" height="4.16667" rx="0.833333" fill="#F01B1B"/>
</svg>
