<svg width="64" height="64" viewBox="0 0 64 64" fill="none" xmlns="http://www.w3.org/2000/svg">
<rect width="64" height="64" rx="32" fill="#BA141A" fill-opacity="0.08"/>
<path d="M27.3333 41.3346V44.268C27.3333 44.6413 27.3333 44.828 27.2607 44.9706C27.1968 45.0961 27.0948 45.1981 26.9693 45.262C26.8267 45.3346 26.64 45.3346 26.2667 45.3346H23.7333C23.36 45.3346 23.1733 45.3346 23.0307 45.262C22.9052 45.1981 22.8032 45.0961 22.7393 44.9706C22.6667 44.828 22.6667 44.6413 22.6667 44.268V41.3346M41.3333 41.3346V44.268C41.3333 44.6413 41.3333 44.828 41.2607 44.9706C41.1968 45.0961 41.0948 45.1981 40.9693 45.262C40.8267 45.3346 40.64 45.3346 40.2667 45.3346H37.7333C37.36 45.3346 37.1733 45.3346 37.0307 45.262C36.9052 45.1981 36.8032 45.0961 36.7393 44.9706C36.6667 44.828 36.6667 44.6413 36.6667 44.268V41.3346M20 32.0013H44M20 23.3346H44M24.6667 36.668H26.6667M37.3333 36.668H39.3333M26.4 41.3346H37.6C39.8402 41.3346 40.9603 41.3346 41.816 40.8987C42.5686 40.5152 43.1805 39.9032 43.564 39.1506C44 38.295 44 37.1748 44 34.9346V25.068C44 22.8278 44 21.7077 43.564 20.852C43.1805 20.0994 42.5686 19.4874 41.816 19.1039C40.9603 18.668 39.8402 18.668 37.6 18.668H26.4C24.1598 18.668 23.0397 18.668 22.184 19.1039C21.4314 19.4874 20.8195 20.0994 20.436 20.852C20 21.7077 20 22.8278 20 25.068V34.9346C20 37.1748 20 38.295 20.436 39.1506C20.8195 39.9032 21.4314 40.5152 22.184 40.8987C23.0397 41.3346 24.1598 41.3346 26.4 41.3346Z" stroke="#BA141A" stroke-width="2" stroke-linecap="round" stroke-linejoin="round"/>
</svg>
