<svg width="64" height="64" viewBox="0 0 64 64" fill="none" xmlns="http://www.w3.org/2000/svg">
<rect width="64" height="64" rx="32" fill="#BA141A" fill-opacity="0.08"/>
<path d="M28.6666 45.3346H35.3333M26.6666 18.668H37.3333M31.9999 22.668V18.668M21.3333 32.0013H42.6666M38.6666 41.3346L40.6666 45.3346M25.3333 41.3346L23.3333 45.3346M27.3333 36.668H27.3466M36.6666 36.668H36.6799M27.7333 41.3346H36.2666C38.5068 41.3346 39.6269 41.3346 40.4825 40.8987C41.2352 40.5152 41.8471 39.9032 42.2306 39.1506C42.6666 38.295 42.6666 37.1748 42.6666 34.9346V29.068C42.6666 26.8278 42.6666 25.7077 42.2306 24.852C41.8471 24.0994 41.2352 23.4874 40.4825 23.1039C39.6269 22.668 38.5068 22.668 36.2666 22.668H27.7333C25.493 22.668 24.3729 22.668 23.5173 23.1039C22.7646 23.4874 22.1527 24.0994 21.7692 24.852C21.3333 25.7077 21.3333 26.8278 21.3333 29.068V34.9346C21.3333 37.1748 21.3333 38.295 21.7692 39.1506C22.1527 39.9032 22.7646 40.5152 23.5173 40.8987C24.3729 41.3346 25.493 41.3346 27.7333 41.3346ZM27.9999 36.668C27.9999 37.0362 27.7014 37.3346 27.3333 37.3346C26.9651 37.3346 26.6666 37.0362 26.6666 36.668C26.6666 36.2998 26.9651 36.0013 27.3333 36.0013C27.7014 36.0013 27.9999 36.2998 27.9999 36.668ZM37.3333 36.668C37.3333 37.0362 37.0348 37.3346 36.6666 37.3346C36.2984 37.3346 35.9999 37.0362 35.9999 36.668C35.9999 36.2998 36.2984 36.0013 36.6666 36.0013C37.0348 36.0013 37.3333 36.2998 37.3333 36.668Z" stroke="#BA141A" stroke-width="2" stroke-linecap="round" stroke-linejoin="round"/>
</svg>
