<svg width="216" height="26" viewBox="0 0 216 26" fill="none" xmlns="http://www.w3.org/2000/svg">
<g clip-path="url(#clip0_21_1067)">
<path d="M53.4243 0H37.9625C37.6381 0 37.3354 0.127451 37.1083 0.35049L33.6375 3.74918C33.4104 3.97222 33.2807 4.26961 33.2807 4.58824V25.8088C33.2807 25.915 33.3672 26 33.4753 26H39.2708C39.3789 26 39.4654 25.915 39.4654 25.8088V6.27696C39.4654 6.17075 39.5519 6.08578 39.66 6.08578H53.4135C53.5216 6.08578 53.6081 6.00082 53.6081 5.89461V0.191176C53.6081 0.0849673 53.5216 0 53.4135 0H53.4243Z" fill="#BA141A"/>
<path d="M29.9072 0.191176V21.4118C29.9072 21.7304 29.7774 22.0278 29.5504 22.2508L26.0904 25.6495C25.8633 25.8725 25.5606 26 25.2362 26H4.67097C4.3466 26 4.04385 25.8725 3.81679 25.6495L0.35681 22.2508C0.129749 22.0278 0 21.7304 0 21.4118V7.70016H6.19552V19.723C6.19552 19.8292 6.28202 19.9142 6.39015 19.9142H11.6558C11.7639 19.9142 11.8504 19.8292 11.8504 19.723V0.191176C11.8504 0.0849673 11.9369 0 12.0451 0H17.8513C17.9595 0 18.046 0.0849673 18.046 0.191176V19.7124C18.046 19.8186 18.1325 19.9036 18.2406 19.9036H23.5062C23.6144 19.9036 23.7009 19.8186 23.7009 19.7124V0.191176C23.7009 0.0849673 23.7874 0 23.8955 0H29.6909C29.7991 0 29.8856 0.0849673 29.8856 0.191176H29.9072Z" fill="#BA141A"/>
<path d="M53.4351 10.2491H41.3143C41.2068 10.2491 41.1197 10.3347 41.1197 10.4403V15.4003C41.1197 15.5059 41.2068 15.5915 41.3143 15.5915H53.4351C53.5425 15.5915 53.6297 15.5059 53.6297 15.4003V10.4403C53.6297 10.3347 53.5425 10.2491 53.4351 10.2491Z" fill="#BA141A"/>
<path d="M57.0031 7.7002H63.1986V25.7558C63.1986 25.8832 63.0905 26 62.95 26H57.241C57.1112 26 56.9923 25.8938 56.9923 25.7558V7.7002H57.0031Z" fill="#BA141A"/>
<path d="M57.2519 0H62.9608C63.0906 0 63.2095 0.106209 63.2095 0.244281V6.08578H57.014V0.244281C57.014 0.11683 57.1221 0 57.2627 0H57.2519Z" fill="#B5B3B3"/>
<path d="M0.248686 0H5.95765C6.0874 0 6.20634 0.106209 6.20634 0.244281V6.08578H0V0.244281C0 0.11683 0.108124 0 0.248686 0Z" fill="#B5B3B3"/>
<path d="M76.725 18.0131L78.0658 24.4918L79.1578 18.0131H80.4661L78.9956 25.915H77.2116L75.9465 19.7018L74.7355 25.915H72.919L71.4485 18.0131H72.7569L73.8489 24.5024L75.1572 18.0131H76.7034H76.725Z" fill="#939598"/>
<path d="M81.7203 21.9534C81.7203 21.1781 81.8068 20.5302 81.9798 20.0098C82.1528 19.4894 82.3907 19.0858 82.6826 18.7778C82.9854 18.4698 83.3314 18.2573 83.7206 18.1299C84.1207 18.0024 84.5424 17.9387 84.9857 17.9387C85.429 17.9387 85.8615 18.0024 86.2507 18.1299C86.6508 18.2573 86.9968 18.4698 87.2887 18.7778C87.5915 19.0858 87.8185 19.4894 87.9915 20.0098C88.1645 20.5302 88.251 21.1781 88.251 21.9534C88.251 22.7288 88.1645 23.3873 87.9915 23.9077C87.8185 24.4281 87.5807 24.8317 87.2887 25.1397C86.9968 25.4477 86.64 25.6601 86.2507 25.7876C85.8507 25.915 85.429 25.9681 84.9857 25.9681C84.5424 25.9681 84.1099 25.9044 83.7206 25.7876C83.3206 25.6601 82.9746 25.4477 82.6826 25.1397C82.3799 24.8317 82.1528 24.4281 81.9798 23.9077C81.8068 23.3873 81.7203 22.7394 81.7203 21.9534ZM83.0935 21.9534C83.0935 22.5057 83.1368 22.973 83.2341 23.3554C83.3314 23.7377 83.4611 24.0351 83.6233 24.2688C83.7963 24.5024 83.9909 24.6618 84.218 24.7573C84.4451 24.8529 84.7046 24.906 84.9749 24.906C85.2452 24.906 85.5047 24.8529 85.7317 24.7573C85.9588 24.6618 86.1642 24.5024 86.3264 24.2688C86.4994 24.0351 86.6292 23.7377 86.7157 23.3554C86.813 22.973 86.8562 22.5057 86.8562 21.9534C86.8562 21.4011 86.813 20.9338 86.7157 20.5515C86.6184 20.1691 86.4886 19.8717 86.3264 19.6381C86.1534 19.4044 85.9588 19.2451 85.7317 19.1495C85.5047 19.0539 85.2452 19.0008 84.9749 19.0008C84.7046 19.0008 84.4451 19.0539 84.218 19.1495C83.9909 19.2451 83.7855 19.4044 83.6233 19.6381C83.4503 19.8717 83.3206 20.1691 83.2341 20.5515C83.1368 20.9338 83.0935 21.4011 83.0935 21.9534Z" fill="#939598"/>
<path d="M96.2739 18.0131V25.8725H94.2736L91.1488 19.2876V25.8725H89.7648V18.0131H91.8192L94.8899 24.5768V18.0131H96.2739Z" fill="#939598"/>
<path d="M98.8473 23.4935C98.8473 23.7165 98.8581 23.9077 98.8905 24.0882C98.9229 24.2688 98.9662 24.4069 99.0527 24.5343C99.1284 24.6511 99.2365 24.7467 99.3771 24.8104C99.5176 24.8742 99.6906 24.906 99.9069 24.906C100.156 24.906 100.361 24.8636 100.512 24.768C100.664 24.683 100.783 24.5555 100.858 24.3962C100.934 24.2369 100.988 24.0564 101.021 23.8439C101.042 23.6315 101.053 23.4085 101.053 23.1642V18.0024H102.426V23.1642C102.426 23.6953 102.361 24.1413 102.232 24.5024C102.102 24.8636 101.929 25.1503 101.691 25.3734C101.464 25.5964 101.194 25.7557 100.88 25.8513C100.566 25.9469 100.231 26 99.8636 26C99.3771 26 98.977 25.9363 98.6635 25.7982C98.3499 25.6601 98.1012 25.4796 97.9282 25.2459C97.7444 25.0122 97.6255 24.7467 97.5498 24.4493C97.4849 24.152 97.4417 23.8333 97.4417 23.5041V22.7394H98.8256V23.5041L98.8473 23.4935Z" fill="#939598"/>
<path d="M105.497 23.2279C105.497 23.8439 105.648 24.2794 105.962 24.5343C106.265 24.7892 106.686 24.9167 107.205 24.9167C107.724 24.9167 108.146 24.7892 108.449 24.5343C108.751 24.2794 108.903 23.8439 108.903 23.2279V18.0024H110.276V23.0474C110.276 23.589 110.2 24.0457 110.06 24.4281C109.908 24.7998 109.703 25.1078 109.433 25.3309C109.162 25.5645 108.838 25.7238 108.459 25.8301C108.081 25.9363 107.67 25.9894 107.205 25.9894C106.74 25.9894 106.319 25.9363 105.94 25.8301C105.562 25.7238 105.237 25.5645 104.967 25.3309C104.697 25.0972 104.491 24.7998 104.34 24.4281C104.189 24.0564 104.124 23.589 104.124 23.0474V18.0024H105.497V23.2279Z" fill="#939598"/>
<path d="M116.32 21.4011H120.44V22.5376H116.32V25.915H114.947V18.0237H120.44V19.1601H116.32V21.4118V21.4011Z" fill="#939598"/>
<path d="M123.035 23.2279C123.035 23.8439 123.186 24.2794 123.5 24.5343C123.802 24.7892 124.224 24.9167 124.743 24.9167C125.262 24.9167 125.684 24.7892 125.986 24.5343C126.289 24.2794 126.441 23.8439 126.441 23.2279V18.0024H127.814V23.0474C127.814 23.589 127.738 24.0457 127.598 24.4281C127.446 24.7998 127.241 25.1078 126.97 25.3309C126.7 25.5645 126.376 25.7238 125.997 25.8301C125.619 25.9363 125.197 25.9894 124.743 25.9894C124.289 25.9894 123.856 25.9363 123.478 25.8301C123.1 25.7238 122.775 25.5645 122.505 25.3309C122.235 25.0972 122.029 24.7998 121.878 24.4281C121.726 24.0564 121.661 23.589 121.661 23.0474V18.0024H123.035V23.2279Z" fill="#939598"/>
<path d="M129.025 18.0131H134.939V19.2026H132.571V25.9044H131.198V19.2026H129.025V18.0131Z" fill="#939598"/>
<path d="M137.534 23.2279C137.534 23.8439 137.685 24.2794 137.999 24.5343C138.302 24.7892 138.723 24.9167 139.242 24.9167C139.761 24.9167 140.183 24.7892 140.486 24.5343C140.789 24.2794 140.94 23.8439 140.94 23.2279V18.0024H142.313V23.0474C142.313 23.589 142.238 24.0457 142.097 24.4281C141.946 24.7998 141.74 25.1078 141.47 25.3309C141.2 25.5645 140.875 25.7238 140.497 25.8301C140.118 25.9363 139.697 25.9894 139.242 25.9894C138.788 25.9894 138.356 25.9363 137.977 25.8301C137.599 25.7238 137.275 25.5645 137.004 25.3309C136.734 25.0972 136.529 24.7998 136.377 24.4281C136.226 24.0564 136.161 23.589 136.161 23.0474V18.0024H137.534V23.2279Z" fill="#939598"/>
<path d="M147.114 18.0024C148.055 18.0024 148.747 18.2149 149.19 18.6503C149.633 19.0858 149.86 19.7549 149.86 20.6577C149.86 21.8897 149.428 22.6969 148.552 23.0686L149.99 25.8832H148.606L147.298 23.3129H145.395V25.8938H144.054V18.0024H147.125H147.114ZM147.06 22.2296C147.287 22.2296 147.492 22.2083 147.676 22.1552C147.86 22.1021 148.011 22.0171 148.13 21.8897C148.26 21.7622 148.357 21.6029 148.422 21.4011C148.487 21.1993 148.52 20.9551 148.52 20.6577C148.52 20.0841 148.39 19.6805 148.13 19.4363C147.871 19.192 147.514 19.0752 147.06 19.0752H145.395V22.2189H147.06V22.2296Z" fill="#939598"/>
<path d="M157.094 24.768V25.9044H151.288V18.0131H156.997V19.1495H152.672V21.4011H156.997V22.5376H152.672V24.7786H157.105L157.094 24.768Z" fill="#939598"/>
<path d="M162.695 18.0131V25.9044H161.321V18.0131H162.695Z" fill="#939598"/>
<path d="M170.89 18.0131V25.8725H168.89L165.765 19.2876V25.8725H164.381V18.0131H166.447L169.517 24.5768V18.0131H170.901H170.89Z" fill="#939598"/>
<path d="M174.891 18.0449C175.616 18.0449 176.221 18.1299 176.708 18.2998C177.194 18.4698 177.583 18.7247 177.875 19.0539C178.167 19.3832 178.373 19.7868 178.502 20.2753C178.621 20.7533 178.686 21.3055 178.686 21.9216C178.686 22.5376 178.621 23.1005 178.502 23.589C178.383 24.0776 178.167 24.4918 177.875 24.8211C177.583 25.1503 177.194 25.4052 176.708 25.5858C176.221 25.7663 175.616 25.8513 174.891 25.8513H172.491V18.0343H174.891V18.0449ZM175.042 24.768C175.388 24.768 175.713 24.7361 175.983 24.6618C176.264 24.5874 176.502 24.4493 176.697 24.2475C176.891 24.0351 177.043 23.7484 177.14 23.3766C177.248 23.0049 177.302 22.5163 177.302 21.9216C177.302 21.3268 177.248 20.8595 177.14 20.4984C177.032 20.1372 176.87 19.8505 176.664 19.6381C176.459 19.4363 176.21 19.2982 175.907 19.2238C175.605 19.1495 175.27 19.1176 174.891 19.1176H173.864V24.7786H175.042V24.768Z" fill="#939598"/>
<path d="M181.616 23.2279C181.616 23.8439 181.768 24.2794 182.081 24.5343C182.395 24.7892 182.806 24.9167 183.325 24.9167C183.844 24.9167 184.266 24.7892 184.568 24.5343C184.871 24.2794 185.022 23.8439 185.022 23.2279V18.0024H186.396V23.0474C186.396 23.589 186.32 24.0457 186.179 24.4281C186.028 24.7998 185.823 25.1078 185.552 25.3309C185.282 25.5645 184.958 25.7238 184.579 25.8301C184.201 25.9363 183.79 25.9894 183.325 25.9894C182.86 25.9894 182.438 25.9363 182.06 25.8301C181.681 25.7238 181.357 25.5645 181.087 25.3309C180.816 25.0972 180.611 24.7998 180.46 24.4281C180.308 24.0564 180.243 23.589 180.243 23.0474V18.0024H181.616V23.2279Z" fill="#939598"/>
<path d="M189.077 23.5466C189.077 24.0457 189.228 24.4069 189.542 24.6405C189.845 24.8742 190.31 24.991 190.904 24.991C191.456 24.991 191.899 24.9167 192.213 24.768C192.526 24.6193 192.699 24.3431 192.699 23.9502C192.699 23.7165 192.645 23.5253 192.526 23.3766C192.407 23.2279 192.267 23.1111 192.094 23.0049C191.921 22.9093 191.726 22.8243 191.531 22.7606C191.337 22.6969 191.142 22.6332 190.969 22.5694L189.942 22.1977C189.607 22.0703 189.304 21.9534 189.034 21.8154C188.763 21.6879 188.536 21.5392 188.342 21.3799C188.147 21.2206 187.996 21.04 187.898 20.8276C187.801 20.6152 187.736 20.3815 187.736 20.0948C187.736 19.7761 187.801 19.4788 187.92 19.2132C188.039 18.9477 188.234 18.7247 188.482 18.5335C188.731 18.3529 189.045 18.2042 189.434 18.098C189.812 17.9918 190.256 17.9387 190.764 17.9387C191.834 17.9387 192.613 18.1193 193.088 18.4804C193.564 18.8415 193.813 19.3407 193.813 19.9886V20.2541H192.44V20.031C192.44 19.7018 192.288 19.4575 191.996 19.2876C191.704 19.1176 191.304 19.0433 190.785 19.0433C190.558 19.0433 190.342 19.0539 190.137 19.0858C189.931 19.1176 189.758 19.1601 189.607 19.2345C189.455 19.3088 189.337 19.4044 189.25 19.5212C189.164 19.6381 189.12 19.7868 189.12 19.9567C189.12 20.1373 189.164 20.2966 189.239 20.4134C189.315 20.5302 189.434 20.6364 189.596 20.732C189.758 20.8276 189.942 20.9126 190.169 20.9975C190.396 21.0825 190.656 21.1781 190.948 21.2737L191.964 21.6454C192.332 21.7729 192.645 21.9109 192.905 22.049C193.175 22.1871 193.391 22.3358 193.564 22.5057C193.737 22.6756 193.867 22.8668 193.953 23.0686C194.04 23.281 194.083 23.5253 194.083 23.7908C194.083 24.1201 194.018 24.4069 193.889 24.6724C193.759 24.9379 193.564 25.1716 193.305 25.3627C193.045 25.5539 192.71 25.7026 192.31 25.8088C191.91 25.915 191.434 25.9681 190.894 25.9681C190.277 25.9681 189.769 25.9044 189.358 25.777C188.947 25.6495 188.623 25.4796 188.385 25.2565C188.136 25.0335 187.963 24.7786 187.866 24.4918C187.769 24.1944 187.715 23.8864 187.715 23.5572V23.281H189.088V23.5253L189.077 23.5466Z" fill="#939598"/>
<path d="M194.84 18.0131H200.754V19.2026H198.387V25.9044H197.013V19.2026H194.84V18.0131Z" fill="#939598"/>
<path d="M205.036 18.0024C205.977 18.0024 206.669 18.2149 207.112 18.6503C207.555 19.0858 207.783 19.7549 207.783 20.6577C207.783 21.8897 207.35 22.6969 206.474 23.0686L207.912 25.8832H206.528L205.22 23.3129H203.317V25.8938H201.976V18.0024H205.047H205.036ZM204.982 22.2296C205.209 22.2296 205.415 22.2083 205.598 22.1552C205.782 22.1021 205.934 22.0171 206.053 21.8897C206.182 21.7622 206.28 21.6029 206.344 21.4011C206.409 21.1993 206.442 20.9551 206.442 20.6577C206.442 20.0841 206.312 19.6805 206.053 19.4363C205.793 19.192 205.436 19.0752 204.982 19.0752H203.317V22.2189H204.982V22.2296Z" fill="#939598"/>
<path d="M214.573 18.0024H216L212.897 22.8243V25.9044H211.556V22.8243L208.453 18.0024H209.88L212.226 21.7304L214.573 18.0024Z" fill="#939598"/>
<path d="M73.6975 13.754C73.2542 13.531 72.8974 13.2549 72.6055 12.9256C72.3244 12.5964 72.0973 12.2352 71.9243 11.821C71.7513 11.4068 71.6324 10.9607 71.5675 10.4722C71.5026 9.98361 71.4594 9.46319 71.4594 8.92152V5.4591C71.4594 4.90681 71.4918 4.38639 71.5675 3.90845C71.6324 3.41989 71.7621 2.97381 71.9243 2.55959C72.0973 2.14538 72.3244 1.78427 72.6055 1.46564C72.8866 1.14701 73.2542 0.870866 73.6975 0.647827L74.8869 2.13476C74.6274 2.28345 74.4003 2.45338 74.2165 2.64456C74.0327 2.83574 73.8813 3.0694 73.7624 3.3243C73.6435 3.58982 73.557 3.89783 73.5029 4.24832C73.4488 4.59881 73.4164 5.0024 73.4164 5.4591V8.92152C73.4164 9.4207 73.438 9.85616 73.4813 10.2067C73.5245 10.5678 73.6002 10.8758 73.7083 11.1413C73.8165 11.4068 73.9462 11.6299 74.1192 11.821C74.2922 12.0122 74.5085 12.1821 74.768 12.3308L73.7083 13.7434L73.6975 13.754Z" fill="#231F20"/>
<path d="M80.358 7.43469C80.6824 8.05071 81.0284 8.69858 81.4176 9.3677C81.8069 10.0368 82.1961 10.6635 82.5854 11.2582L81.2771 12.2353C80.9311 11.6937 80.5743 11.1414 80.2174 10.5679C79.8606 9.99433 79.5254 9.43143 79.2011 8.86852C79.1686 8.81541 79.147 8.77293 79.1146 8.71982C79.0929 8.66672 79.0713 8.60299 79.0497 8.51803C79.0281 8.60299 79.0065 8.67734 78.9848 8.71982C78.9632 8.77293 78.9416 8.81541 78.9091 8.86852C78.6172 9.46329 78.3253 10.0474 78.0117 10.621C77.709 11.2051 77.3846 11.7893 77.0278 12.3734L75.5897 11.4919C75.9682 10.8759 76.3466 10.2174 76.7034 9.52701C77.071 8.83666 77.3954 8.16754 77.6873 7.51966C77.8171 7.2329 77.9144 6.96737 77.9793 6.71247C78.0441 6.45757 78.0766 6.1708 78.0766 5.84156V2.99515H75.8384V1.37015H82.0556V2.99515H79.9255V5.84156C79.9255 6.1708 79.9579 6.44695 80.012 6.68061C80.0661 6.91427 80.1742 7.17979 80.3148 7.45594L80.358 7.43469ZM84.7478 0.998419V5.67162H85.9913V0.913452H87.8618V13.5417H85.9913V7.32848H84.7478V13.4568H82.8989V0.998419H84.7478Z" fill="#231F20"/>
<path d="M89.9054 12.3415C90.1649 12.1928 90.3811 12.0228 90.5541 11.8317C90.7271 11.6405 90.8569 11.4068 90.965 11.1519C91.0731 10.8864 91.1488 10.5784 91.192 10.2173C91.2353 9.85616 91.2569 9.43132 91.2569 8.93214V5.46972C91.2569 5.01302 91.2353 4.59881 91.1704 4.25894C91.1164 3.90845 91.0299 3.60044 90.9109 3.33492C90.792 3.0694 90.6406 2.84636 90.4568 2.65518C90.273 2.464 90.0459 2.29407 89.7864 2.14538L90.9758 0.658447C91.4191 0.881486 91.7759 1.15763 92.0679 1.47626C92.349 1.79489 92.576 2.16662 92.749 2.57021C92.922 2.98443 93.041 3.43051 93.1059 3.91907C93.1707 4.40763 93.214 4.92806 93.214 5.46972V8.93214C93.214 9.48443 93.1815 10.0049 93.1059 10.4828C93.0302 10.9607 92.922 11.4174 92.749 11.8317C92.576 12.2459 92.349 12.6176 92.0679 12.9362C91.7867 13.2655 91.4191 13.531 90.9758 13.7647L89.9162 12.3521L89.9054 12.3415Z" fill="#231F20"/>
<path d="M98.7715 10.3448V8.05071H95.1926V6.5213H103.648V8.05071H100.653V10.3448H98.7824H98.7715ZM99.3122 0.881592C99.896 0.881592 100.404 0.945317 100.848 1.08339C101.291 1.21084 101.648 1.3914 101.94 1.61444C102.232 1.83747 102.448 2.09238 102.588 2.37914C102.729 2.66591 102.805 2.96329 102.805 3.2713V3.45185C102.805 3.77048 102.729 4.06787 102.588 4.35463C102.448 4.6414 102.221 4.8963 101.94 5.11934C101.648 5.34238 101.28 5.51231 100.848 5.65038C100.404 5.77783 99.896 5.85218 99.3122 5.85218C98.7283 5.85218 98.1877 5.78846 97.7552 5.65038C97.3119 5.51231 96.9442 5.34238 96.6523 5.11934C96.3604 4.8963 96.1333 4.6414 95.9927 4.35463C95.8522 4.06787 95.7765 3.75986 95.7765 3.45185V3.2713C95.7765 2.96329 95.8522 2.66591 95.9927 2.37914C96.1333 2.09238 96.3604 1.83747 96.6523 1.61444C96.9442 1.3914 97.3119 1.22146 97.7552 1.08339C98.1985 0.955938 98.7175 0.881592 99.3122 0.881592ZM106.838 12.1185V13.7117H98.1985C97.8849 13.7117 97.6579 13.6798 97.5065 13.6161C97.3551 13.5523 97.2037 13.4355 97.0524 13.2656L96.6631 12.8726C96.5874 12.7876 96.5117 12.7027 96.4577 12.6283C96.4036 12.554 96.3604 12.469 96.3279 12.384C96.2955 12.2991 96.2739 12.1929 96.2631 12.0867C96.2522 11.9698 96.2414 11.8318 96.2414 11.6618V9.55888H98.1552V11.46C98.1552 11.5875 98.1877 11.6937 98.2417 11.7893L98.4796 12.0442C98.4796 12.0442 98.5553 12.0973 98.5877 12.1079C98.6202 12.1185 98.685 12.1291 98.7607 12.1291H106.816L106.838 12.1185ZM100.956 3.31378C100.956 3.08012 100.826 2.85708 100.556 2.66591C100.296 2.47473 99.8744 2.36852 99.3013 2.36852C98.7283 2.36852 98.2958 2.46411 98.0255 2.66591C97.7552 2.85708 97.6146 3.08012 97.6146 3.31378V3.39875C97.6146 3.63241 97.7552 3.85545 98.0255 4.05725C98.2958 4.25904 98.7175 4.35463 99.3013 4.35463C99.8852 4.35463 100.285 4.25904 100.556 4.05725C100.815 3.85545 100.956 3.64303 100.956 3.39875V3.31378ZM101.842 8.73045H104.664V0.913455H106.556V10.9927H104.664V10.1218H101.842V8.74107V8.73045Z" fill="#231F20"/>
<path d="M113.898 13.7541V9.97308H109.076V8.32684H120.602V9.97308H115.834V13.7541H113.898ZM109.757 1.03027H119.921V2.67652H115.888V3.14384C115.888 3.26067 115.888 3.36687 115.898 3.44122C115.909 3.51557 115.931 3.60053 115.974 3.66426C116.017 3.72799 116.071 3.79171 116.136 3.84482C116.201 3.90854 116.288 3.97227 116.396 4.03599C117.023 4.41835 117.672 4.77946 118.342 5.1087C119.002 5.43795 119.683 5.7672 120.375 6.08583L119.585 7.57276C118.829 7.23289 118.083 6.86116 117.358 6.4788C116.634 6.09645 115.942 5.70348 115.271 5.28926C115.163 5.21491 115.077 5.15119 115.001 5.1087C114.936 5.06622 114.882 5.01312 114.871 4.93877C114.85 5.01312 114.806 5.06622 114.742 5.11933C114.677 5.17243 114.59 5.22553 114.493 5.29988C113.109 6.16017 111.671 6.94612 110.179 7.65772L109.357 6.1708C110.103 5.83093 110.806 5.48044 111.444 5.12995C112.092 4.77946 112.709 4.41835 113.314 4.04661C113.412 3.98289 113.498 3.91916 113.563 3.85544C113.628 3.79171 113.682 3.73861 113.725 3.67488C113.768 3.61116 113.79 3.53681 113.801 3.45184C113.801 3.36687 113.812 3.27129 113.812 3.15446V2.68714H109.779V1.03027H109.757Z" fill="#231F20"/>
<path d="M125.532 12.5221C125.359 12.5221 125.219 12.5221 125.1 12.5009C124.981 12.4902 124.873 12.4584 124.765 12.4159C124.667 12.3734 124.57 12.3203 124.484 12.2566C124.397 12.1929 124.289 12.0973 124.181 11.9804L123.446 11.1839C123.348 11.0777 123.262 10.9821 123.208 10.8865C123.143 10.8015 123.1 10.7059 123.067 10.6103C123.035 10.5148 123.013 10.4086 122.991 10.2811C122.981 10.1536 122.97 10.005 122.97 9.8244V1.81623C122.97 1.45512 123.143 1.27456 123.5 1.27456H129.198C129.555 1.27456 129.738 1.45512 129.738 1.81623V11.9592C129.738 12.3309 129.555 12.5221 129.198 12.5221H125.543H125.532ZM127.803 10.8546V2.9208H124.894V9.70757C124.894 9.79254 124.894 9.86688 124.927 9.93061C124.948 9.99434 124.992 10.0581 125.078 10.1324L125.586 10.6953C125.651 10.759 125.716 10.8121 125.77 10.8228C125.824 10.844 125.889 10.8546 125.954 10.8546H127.803ZM133.847 0.913452V13.5417H131.933V0.913452H133.847Z" fill="#231F20"/>
<path d="M141.621 6.51067C141.621 7.22228 141.264 7.57277 140.54 7.57277H138.161V9.91999C138.161 10.0687 138.215 10.1855 138.313 10.2705L138.745 10.759C138.745 10.759 138.842 10.844 138.886 10.8652C138.929 10.8865 138.994 10.8971 139.07 10.8971H141.946V12.5327H138.572C138.269 12.5327 138.042 12.5009 137.88 12.4478C137.718 12.384 137.534 12.2566 137.35 12.0336L136.691 11.3326C136.604 11.237 136.529 11.1414 136.475 11.067C136.42 10.9927 136.377 10.9077 136.345 10.8121C136.312 10.7166 136.291 10.621 136.28 10.5041C136.28 10.3873 136.269 10.2492 136.269 10.0687V6.51067C136.269 6.18143 136.442 6.01149 136.799 6.01149H139.513C139.653 6.01149 139.718 5.93714 139.718 5.77783V2.98453H136.312V1.35953H141.081C141.448 1.35953 141.632 1.54009 141.632 1.9012V6.51067H141.621ZM144.714 0.998419V5.67162H145.957V0.913452H147.828V13.5417H145.957V7.32848H144.714V13.4568H142.865V0.998419H144.714Z" fill="#231F20"/>
<path d="M154.921 4.33339C155.342 4.80071 155.775 5.25741 156.218 5.68224C156.661 6.10708 157.126 6.54254 157.602 6.96737L156.413 8.23126C155.915 7.79581 155.45 7.37097 155.029 6.94613C154.607 6.5213 154.196 6.07522 153.807 5.6079C153.742 5.53355 153.677 5.46983 153.645 5.42734C153.601 5.38486 153.569 5.32113 153.537 5.24679C153.537 5.31051 153.504 5.37424 153.461 5.42734C153.418 5.48045 153.364 5.54417 153.299 5.61852C152.888 6.09646 152.477 6.55316 152.066 6.98862C151.655 7.42407 151.19 7.85953 150.682 8.31623L149.439 7.06296C149.968 6.59564 150.455 6.13894 150.898 5.69286C151.342 5.24679 151.763 4.79009 152.153 4.32277C152.228 4.22718 152.304 4.13159 152.358 4.05724C152.412 3.9829 152.455 3.89793 152.488 3.81296C152.52 3.72799 152.542 3.64303 152.542 3.55806C152.542 3.47309 152.553 3.36688 152.553 3.22881V1.16835H154.521V3.22881C154.521 3.48371 154.542 3.68551 154.596 3.84482C154.65 3.99352 154.758 4.16345 154.931 4.33339H154.921ZM160.77 12.076V13.7117H152.823C152.52 13.7117 152.293 13.6798 152.153 13.6161C152.001 13.5523 151.85 13.4355 151.698 13.2656L151.266 12.8195C151.19 12.7345 151.115 12.6496 151.061 12.5752C151.006 12.5009 150.963 12.4159 150.931 12.3309C150.898 12.246 150.877 12.1398 150.866 12.0336C150.855 11.9167 150.844 11.7786 150.844 11.6087V9.13404H152.758V11.3538C152.758 11.5025 152.791 11.6087 152.845 11.6831L153.126 11.9804C153.169 12.0442 153.255 12.0654 153.407 12.0654H160.759L160.77 12.076ZM160.597 0.913452V4.14221H162.338V5.76721H160.597V10.2705H158.662V0.913452H160.597Z" fill="#231F20"/>
<path d="M174.783 0.91334V7.46644H172.891V4.95991H170.577C170.512 5.3104 170.382 5.63965 170.198 5.94765C170.015 6.25566 169.777 6.52118 169.485 6.75484C169.193 6.9885 168.858 7.16906 168.468 7.29651C168.079 7.42396 167.658 7.48769 167.182 7.48769C166.63 7.48769 166.144 7.40272 165.711 7.23278C165.279 7.06285 164.922 6.83981 164.619 6.55305C164.317 6.26628 164.089 5.92641 163.938 5.55468C163.787 5.17233 163.7 4.77935 163.7 4.35452V3.9403C163.7 3.51546 163.776 3.11187 163.938 2.72952C164.089 2.34716 164.317 2.00729 164.619 1.72053C164.922 1.43376 165.279 1.2001 165.711 1.04079C166.144 0.870856 166.63 0.785889 167.182 0.785889C167.647 0.785889 168.079 0.849614 168.468 0.987686C168.858 1.12576 169.193 1.29569 169.485 1.52935C169.766 1.75239 170.004 2.02854 170.188 2.33654C170.371 2.65517 170.501 2.98442 170.566 3.33491H172.88V0.91334H174.772H174.783ZM166.728 9.35697H172.891V8.14618H174.783V13.1805C174.783 13.5204 174.599 13.7009 174.232 13.7009H166.76C166.457 13.7009 166.241 13.6691 166.09 13.616C165.949 13.5628 165.787 13.446 165.603 13.2655L165.225 12.8937C165.149 12.8194 165.073 12.745 165.019 12.6707C164.965 12.607 164.922 12.5326 164.89 12.4583C164.857 12.3839 164.836 12.299 164.825 12.2034C164.814 12.1078 164.803 11.991 164.803 11.8529V8.14618H166.717V9.35697H166.728ZM168.75 3.92968C168.75 3.50484 168.62 3.14373 168.35 2.83573C168.09 2.52772 167.701 2.3684 167.193 2.3684C166.684 2.3684 166.284 2.52772 166.014 2.83573C165.755 3.14373 165.614 3.51546 165.614 3.92968V4.3439C165.614 4.75811 165.744 5.11922 166.014 5.42723C166.274 5.73523 166.674 5.89455 167.193 5.89455C167.712 5.89455 168.09 5.73523 168.35 5.42723C168.609 5.11922 168.75 4.75811 168.75 4.3439V3.92968ZM172.891 12.0972V10.9501H166.728V11.6086C166.728 11.6936 166.76 11.7785 166.836 11.8423L166.987 12.0016C167.052 12.0653 167.128 12.0865 167.214 12.0865H172.902L172.891 12.0972Z" fill="#231F20"/>
<path d="M182.038 2.84646V3.72799C182.038 3.9829 182.06 4.19532 182.114 4.36525C182.168 4.53518 182.254 4.6945 182.395 4.83257C182.557 4.99188 182.741 5.16182 182.957 5.36362C183.173 5.55479 183.4 5.75659 183.638 5.96901C183.876 6.17081 184.125 6.38322 184.374 6.58502C184.622 6.78682 184.86 6.96737 185.076 7.13731L184.028 8.44368C183.79 8.27375 183.541 8.08257 183.282 7.88077C183.022 7.66835 182.773 7.45594 182.535 7.24352C182.287 7.0311 182.06 6.81868 181.833 6.60626C181.616 6.39384 181.433 6.20267 181.281 6.04335C181.227 5.97963 181.184 5.92652 181.141 5.8628C181.097 5.79907 181.065 5.73535 181.043 5.67162C181.022 5.73535 180.989 5.79907 180.935 5.8628C180.881 5.92652 180.838 5.97963 180.805 6.04335C180.643 6.21329 180.459 6.40447 180.232 6.61688C180.016 6.8293 179.778 7.05234 179.53 7.27538C179.281 7.49842 179.032 7.71084 178.773 7.93388C178.524 8.1463 178.275 8.34809 178.048 8.52865L176.935 7.24352C177.162 7.05234 177.4 6.86117 177.659 6.65937C177.908 6.45757 178.146 6.24515 178.383 6.03273C178.621 5.82031 178.838 5.61852 179.054 5.41672C179.27 5.21492 179.465 5.02375 179.627 4.85381C179.778 4.6945 179.876 4.53518 179.93 4.38649C179.984 4.22718 180.005 4.02538 180.005 3.77048V2.88894H177.291V1.29581H184.709V2.88894H182.027L182.038 2.84646ZM188.709 12.076V13.7117H180.405C180.092 13.7117 179.865 13.6798 179.713 13.6161C179.562 13.5523 179.411 13.4355 179.259 13.2656L178.87 12.8726C178.794 12.7876 178.719 12.7027 178.665 12.6283C178.611 12.554 178.567 12.469 178.535 12.384C178.502 12.2991 178.481 12.1929 178.47 12.0867C178.459 11.9698 178.448 11.8318 178.448 11.6618V9.14466H180.362V11.4175C180.362 11.5662 180.395 11.6724 180.47 11.7468L180.697 12.0017C180.697 12.0017 180.773 12.0548 180.805 12.0654C180.838 12.076 180.903 12.0867 180.978 12.0867H188.699L188.709 12.076ZM188.417 0.913452V10.2705H186.504V0.913452H188.417Z" fill="#231F20"/>
<path d="M190.948 8.75163V7.26471H202.474V8.75163H190.948ZM191.348 2.48529V1.03023H195.759V0H197.695V1.03023H202.084V2.48529H191.348ZM198.635 9.43137C199.197 9.43137 199.673 9.48448 200.062 9.59069C200.452 9.69689 200.765 9.83497 201.014 10.0155C201.263 10.1961 201.436 10.4191 201.544 10.674C201.652 10.9289 201.706 11.2263 201.706 11.5343C201.706 11.8423 201.652 12.1185 201.544 12.3734C201.436 12.6283 201.252 12.8513 201.014 13.0319C200.765 13.2124 200.452 13.3611 200.062 13.4567C199.673 13.5629 199.197 13.616 198.635 13.616H194.808C194.245 13.616 193.77 13.5629 193.38 13.4567C192.98 13.3505 192.667 13.2124 192.418 13.0319C192.169 12.8513 191.996 12.6283 191.888 12.3734C191.78 12.1185 191.726 11.8423 191.726 11.5343C191.726 11.2263 191.78 10.9289 191.888 10.674C191.996 10.4191 192.18 10.1961 192.418 10.0155C192.667 9.83497 192.98 9.68627 193.38 9.59069C193.77 9.48448 194.256 9.43137 194.808 9.43137H198.635ZM197.662 2.89951C198.689 2.89951 199.457 3.06944 199.944 3.39869C200.43 3.72794 200.679 4.19526 200.679 4.77941C200.679 5.36356 200.43 5.83088 199.944 6.17075C199.457 6.51062 198.689 6.68056 197.662 6.68056H195.77C194.71 6.68056 193.943 6.51062 193.456 6.17075C192.969 5.83088 192.732 5.36356 192.732 4.77941C192.732 4.19526 192.969 3.73856 193.456 3.39869C193.943 3.05882 194.71 2.88889 195.759 2.88889H197.651L197.662 2.89951ZM198.668 12.1716C199.057 12.1716 199.327 12.1078 199.479 11.991C199.63 11.8636 199.706 11.7149 199.706 11.5449C199.706 11.3538 199.63 11.2051 199.479 11.0776C199.327 10.9502 199.057 10.8971 198.668 10.8971H194.786C194.397 10.8971 194.126 10.9608 193.975 11.0776C193.824 11.2051 193.748 11.3538 193.748 11.5449C193.748 11.7361 193.824 11.8742 193.975 11.991C194.126 12.1185 194.397 12.1716 194.786 12.1716H198.668ZM197.738 5.29984C198.116 5.29984 198.387 5.25735 198.549 5.17239C198.711 5.08742 198.787 4.95997 198.787 4.79003C198.787 4.6201 198.711 4.50327 198.549 4.4183C198.387 4.33333 198.116 4.29085 197.738 4.29085H195.683C195.305 4.29085 195.035 4.33333 194.883 4.4183C194.732 4.50327 194.656 4.63072 194.656 4.79003C194.656 4.94935 194.732 5.08742 194.883 5.17239C195.035 5.25735 195.305 5.29984 195.683 5.29984H197.738Z" fill="#231F20"/>
<path d="M207.934 10.3448V8.05071H204.355V6.5213H212.81V8.05071H209.815V10.3448H207.945H207.934ZM208.475 0.881592C209.058 0.881592 209.567 0.945317 210.01 1.08339C210.453 1.21084 210.81 1.3914 211.102 1.61444C211.394 1.83747 211.61 2.09238 211.751 2.37914C211.891 2.66591 211.967 2.96329 211.967 3.2713V3.45185C211.967 3.77048 211.891 4.06787 211.751 4.35463C211.61 4.6414 211.383 4.8963 211.102 5.11934C210.81 5.34238 210.442 5.51231 210.01 5.65038C209.567 5.77783 209.058 5.85218 208.475 5.85218C207.891 5.85218 207.35 5.78846 206.918 5.65038C206.474 5.51231 206.107 5.34238 205.815 5.11934C205.523 4.8963 205.296 4.6414 205.155 4.35463C205.015 4.06787 204.939 3.75986 204.939 3.45185V3.2713C204.939 2.96329 205.015 2.66591 205.155 2.37914C205.296 2.09238 205.523 1.83747 205.815 1.61444C206.107 1.3914 206.474 1.22146 206.918 1.08339C207.361 0.955938 207.88 0.881592 208.475 0.881592ZM216 12.1185V13.7117H207.361C207.047 13.7117 206.82 13.6798 206.669 13.6161C206.517 13.5523 206.366 13.4355 206.215 13.2656L205.825 12.8726C205.75 12.7876 205.674 12.7027 205.62 12.6283C205.566 12.554 205.523 12.469 205.49 12.384C205.458 12.2991 205.436 12.1929 205.425 12.0867C205.415 11.9698 205.404 11.8318 205.404 11.6618V9.55888H207.318V11.46C207.318 11.5875 207.35 11.6937 207.404 11.7893L207.642 12.0442C207.642 12.0442 207.718 12.0973 207.75 12.1079C207.783 12.1185 207.847 12.1291 207.923 12.1291H215.978L216 12.1185ZM210.118 3.31378C210.118 3.08012 209.988 2.85708 209.718 2.66591C209.458 2.47473 209.037 2.36852 208.464 2.36852C207.891 2.36852 207.458 2.46411 207.188 2.66591C206.918 2.85708 206.777 3.08012 206.777 3.31378V3.39875C206.777 3.63241 206.918 3.85545 207.188 4.05725C207.458 4.25904 207.88 4.35463 208.464 4.35463C209.048 4.35463 209.448 4.25904 209.718 4.05725C209.988 3.85545 210.118 3.64303 210.118 3.39875V3.31378ZM211.005 8.73045H213.827V0.913455H215.719V10.9927H213.827V10.1218H211.005V8.74107V8.73045Z" fill="#231F20"/>
</g>
<defs>
<clipPath id="clip0_21_1067">
<rect width="216" height="26" fill="white"/>
</clipPath>
</defs>
</svg>
