<svg width="64" height="64" viewBox="0 0 64 64" fill="none" xmlns="http://www.w3.org/2000/svg">
<rect width="64" height="64" rx="32" fill="#BA141A" fill-opacity="0.08"/>
<path d="M22.9648 27.2422C22.9736 30.248 24.1865 33.1748 26.8496 34.3262L25.4785 36.1191C23.7031 35.2578 22.5078 33.6582 21.8398 31.6807C21.1543 33.7812 19.9238 35.5039 18.0957 36.4004L16.6895 34.5723C19.4316 33.333 20.6797 30.248 20.6973 27.2422V24.8516H22.9648V27.2422ZM25.0566 30.459V28.6484H28.2031V23.6211H30.418V39.6523H28.2031V30.459H25.0566ZM39.7695 23.7617C43.4521 23.7617 45.5791 24.7285 45.5879 26.5039C45.5791 28.2705 43.4521 29.2285 39.7695 29.2285C36.0781 29.2285 33.9336 28.2705 33.9336 26.5039C33.9336 24.7285 36.0781 23.7617 39.7695 23.7617ZM32.4746 31.707V29.9492H47.0645V31.707H40.877V32.7793H45.2891V36.8574H36.377V37.8242H45.7109V39.5117H34.1797V35.293H43.0742V34.4141H34.1621V32.7793H38.627V31.707H32.4746ZM36.2891 26.5039C36.2803 27.2686 37.4229 27.585 39.7695 27.5938C42.1338 27.585 43.2676 27.2686 43.2676 26.5039C43.2676 25.7744 42.1338 25.4141 39.7695 25.4141C37.4229 25.4141 36.2803 25.7744 36.2891 26.5039Z" fill="#BA141A"/>
</svg>
