<svg width="64" height="64" viewBox="0 0 64 64" fill="none" xmlns="http://www.w3.org/2000/svg">
<rect width="64" height="64" rx="32" fill="#BA141A" fill-opacity="0.08"/>
<path d="M30.4707 23.6387V35.7148H28.2207V34.4492H25.1621V32.9199H28.2207V23.6387H30.4707ZM16.8652 30.7227C19.792 30.7051 23.7471 30.6611 27.1309 30.248L27.2539 31.8477C25.9883 32.0586 24.6787 32.208 23.3867 32.3047V35.3457H21.1367V37.543H30.8223V39.3359H18.9043V34.5547H21.1367V32.4365C19.7041 32.4893 18.3418 32.498 17.1289 32.498L16.8652 30.7227ZM18.043 27.0488C18.043 25.3438 19.6865 24.1748 22.0684 24.1836C24.3887 24.1748 26.0498 25.3438 26.0586 27.0488C26.0498 28.7627 24.3887 29.8701 22.0684 29.8613C19.6865 29.8701 18.043 28.7627 18.043 27.0488ZM20.1699 27.0488C20.1611 27.8223 20.9258 28.2529 22.0684 28.2441C23.1406 28.2529 23.9141 27.8223 23.9316 27.0488C23.9141 26.2578 23.1406 25.8184 22.0684 25.8184C20.9258 25.8184 20.1611 26.2578 20.1699 27.0488ZM47.0645 32.4453V34.2383H40.8418V39.6172H38.627V34.2383H32.4746V32.4453H47.0645ZM33.1953 29.7559C36.4297 29.3604 38.2227 27.7959 38.46 26.2227H33.793V24.4648H45.7637V26.2227H41.0967C41.3252 27.7959 43.0918 29.3604 46.3789 29.7559L45.5703 31.5137C42.7578 31.1357 40.7451 29.9404 39.7783 28.2969C38.8027 29.9404 36.8076 31.1357 34.0215 31.5137L33.1953 29.7559Z" fill="#BA141A"/>
</svg>
