<svg width="794" height="246" viewBox="0 0 794 246" fill="none" xmlns="http://www.w3.org/2000/svg">
<g clip-path="url(#clip0_5290_45616)">
<path d="M763.202 75.8555L719.984 117.984L740.75 164.615H770.847L750.082 118.054L793.691 75.9247L763.202 75.8555Z" fill="white"/>
<path d="M22.0921 235.926C23.5242 243.174 24.9332 246.475 27.936 245.344C30.1304 244.513 31.7011 241.374 33.2025 237.772C35.0734 233.271 35.1427 231.886 35.212 229.739C35.0272 225.792 34.8194 221.821 34.5884 217.851C29.4605 219.697 24.3327 221.221 19.3203 222.237C20.175 226.369 21.0989 230.893 22.0921 235.903V235.926Z" fill="white"/>
<path d="M85.424 30.1012C84.8696 28.6238 83.4837 28.3006 81.3124 29.1085C76.9468 30.7244 67.3148 35.6183 57.3594 44.4596C63.619 45.7293 70.895 47.5068 78.633 50.023C84.1997 39.6119 86.4865 32.9405 85.4471 30.1243L85.424 30.1012Z" fill="white"/>
<path d="M33.4898 201.388C33.2819 181.605 35.7535 161.175 40.9506 140.053C42.4058 134.282 44.1151 128.488 45.963 122.693C47.3489 118.307 48.8503 113.921 50.4441 109.535C55.8491 94.7844 62.4783 79.9642 70.3549 65.0748C69.4541 64.5901 68.5763 64.1053 67.6986 63.6436C61.9009 60.5965 58.0896 58.9113 53.0773 57.2262C53.0773 57.2262 50.4903 56.372 46.5173 55.7949C43.3991 59.6731 40.4194 64.013 37.7861 68.8376C19.0995 103.187 7.91987 138.783 9.0286 161.752C9.07479 165.469 9.12099 166.346 9.74465 173.063C10.1835 177.703 12.401 189.615 16.8359 210.345C21.4094 207.805 27.0454 204.897 33.536 201.919C33.536 201.734 33.536 201.55 33.4898 201.388Z" fill="white"/>
<path d="M130.33 79.342C115.132 64.5911 95.775 55.542 78.6129 50.0018C70.898 47.5087 63.622 45.7081 57.3393 44.4385C44.9585 41.9223 36.5507 41.4375 36.5507 41.4375C20.4742 42.2224 22.068 57.5042 22.068 57.5042C22.5992 59.2586 24.2623 58.0352 24.2623 58.0352C32.3468 54.6418 40.847 54.9649 46.483 55.796C50.4559 56.3962 53.0429 57.2272 53.0429 57.2272C58.0553 58.9124 61.8665 60.5744 67.6642 63.6447C68.4958 64.0833 69.3966 64.568 70.3206 65.0759C84.5723 72.8091 101.503 83.3818 101.503 83.3818C109.403 88.4834 107.301 92.8694 107.301 92.8694C104.876 101.826 61.9127 108.036 50.4328 109.536C48.8159 113.922 47.3376 118.308 45.9517 122.694C76.2107 125.926 94.8511 151.296 94.8511 151.296C97.6691 154.805 97.8308 159.191 97.8308 159.191C96.7683 175.696 45.1433 196.934 45.1433 196.934C40.9856 198.596 37.1281 200.281 33.5017 201.943C27.011 204.921 21.3981 207.83 16.8015 210.369C7.72384 215.424 2.64219 219.049 2.64219 219.049C-2.27778 223.435 2.01853 223.619 2.01853 223.619C7.49285 224.012 13.3137 223.481 19.2962 222.28C24.3085 221.265 29.4133 219.741 34.5642 217.894C71.8451 204.413 109.75 172.303 109.75 172.303C124.509 159.676 124.764 152.289 124.764 152.289C124.232 129.389 78.405 117.27 78.405 117.27C106.585 107.805 130.03 89.6376 130.03 89.6376C135.389 84.813 130.284 79.3651 130.284 79.3651L130.33 79.342Z" fill="white"/>
<path d="M76.9846 20.5459C73.4737 28.487 65.3199 32.5729 58.7369 29.6873C52.1769 26.8018 49.6823 18.0067 53.1932 10.0656C56.7042 2.12462 64.8579 -1.96131 71.441 0.947314C78.0009 3.83286 80.4956 12.628 76.9846 20.569V20.5459Z" fill="white"/>
<path d="M160.242 164.915L183.225 76.1553H216.001C224.64 76.1553 231.108 77.8635 235.404 81.3031C239.7 84.7427 241.849 89.9366 241.849 96.9312C241.849 103.326 239.978 108.335 236.213 111.959C232.448 115.583 226.742 117.938 219.074 118.977L218.866 119.577C224.017 120.616 227.897 122.693 230.507 125.81C233.117 128.926 234.411 133.012 234.411 138.114C234.411 146.701 231.616 153.303 226.026 157.966C220.436 162.606 212.421 164.938 201.981 164.938H160.219L160.242 164.915ZM186.251 149.379H197.084C202.189 149.379 206.069 148.248 208.749 146.009C211.428 143.769 212.768 140.514 212.768 136.221C212.768 132.966 211.844 130.634 209.973 129.157C208.102 127.703 205.076 126.964 200.895 126.964H192.002L186.251 149.356V149.379ZM195.813 112.582H205.03C210.042 112.582 213.761 111.567 216.186 109.535C218.612 107.504 219.836 104.411 219.836 100.232C219.836 97.3698 218.912 95.246 217.064 93.8148C215.216 92.3836 212.444 91.668 208.772 91.668H201.126L195.813 112.582Z" fill="white"/>
<path d="M236.773 164.915L259.595 76.1553H282.393L259.387 164.915H236.773Z" fill="white"/>
<path d="M298.312 164.915L321.319 76.1553H355.412L352.756 123.224C352.709 123.917 352.64 125.025 352.548 126.595C352.178 133.289 351.693 138.806 351.092 143.146C352.64 137.098 355.042 130.565 358.299 123.594L358.622 122.809L380.52 76.1784H415.699L392.716 164.938H372.389L392.947 85.5506L355.204 164.938H333.907L337.926 85.92L317.484 164.938H298.336L298.312 164.915Z" fill="white"/>
<path d="M398.336 164.915L450.885 76.1553H477.286L486.064 164.915H462.965L462.203 146.793H430.743L420.557 164.915H398.336ZM439.89 130.796H461.071L459.339 95.1768L439.89 130.796Z" fill="white"/>
<path d="M496.129 164.915L514.677 93.3069H490.539L494.974 76.1553H563.738L559.303 93.3069H537.406L518.858 164.915H496.129Z" fill="white"/>
<path d="M543.484 164.915L566.467 76.1553H601.3C609.084 76.1553 615.159 77.9789 619.524 81.6032C623.89 85.2274 626.084 90.2829 626.084 96.7465C626.084 103.21 624.121 108.635 620.194 112.675C616.267 116.714 610.632 119.185 603.286 120.108L603.078 120.824C606.843 121.631 609.523 122.947 611.093 124.794C612.664 126.641 613.45 129.342 613.45 132.92C613.45 134.489 613.288 137.883 612.988 143.123C612.687 148.363 612.526 152.795 612.526 156.443C612.526 157.643 612.572 158.959 612.687 160.39C612.803 161.821 612.964 163.322 613.219 164.938H590.79C590.605 163.206 590.467 161.637 590.397 160.182C590.305 158.728 590.259 157.366 590.259 156.096C590.259 153.603 590.467 150.395 590.905 146.447C591.344 142.5 591.552 139.799 591.552 138.368C591.552 135.39 590.859 133.289 589.496 132.043C588.134 130.796 585.662 130.173 582.128 130.173H574.713L565.728 164.938H543.507L543.484 164.915ZM578.825 114.475H586.563C592.522 114.475 597.003 113.275 600.052 110.897C603.101 108.52 604.626 105.011 604.626 100.348C604.626 97.3467 603.748 95.1999 602.039 93.9302C600.307 92.6606 597.304 92.0142 593.007 92.0142H584.553L578.802 114.475H578.825Z" fill="white"/>
<path d="M618.82 164.915L641.642 76.1553H664.44L641.434 164.915H618.82Z" fill="white"/>
<path d="M642.688 164.915L684.634 119.3L666.895 76.1553H691.956L701.334 105.403L724.872 76.1553H752.428L713.207 118.353L731.871 164.938H706.97L696.183 132.25L670.105 164.938H642.688V164.915Z" fill="white"/>
<path d="M165.415 232.207H161.257C160.864 232.207 160.656 231.999 160.656 231.607V198.412C160.656 198.019 160.864 197.812 161.257 197.812H165.415C165.807 197.812 166.015 198.019 166.015 198.412V231.607C166.015 231.999 165.807 232.207 165.415 232.207Z" fill="white"/>
<path d="M188.11 232.162C187.948 232.162 187.832 232.092 187.717 231.954C187.601 231.815 187.555 231.677 187.555 231.515V217.018C187.555 214.825 187.209 213.256 186.539 212.286C185.846 211.317 184.783 210.832 183.328 210.832C181.319 210.832 179.84 211.386 178.87 212.494C177.9 213.602 177.438 215.218 177.438 217.295V231.562C177.438 231.954 177.253 232.162 176.884 232.162H173.096C172.934 232.162 172.818 232.092 172.703 231.954C172.587 231.815 172.541 231.677 172.541 231.515V213.371C172.541 212.217 172.541 211.109 172.518 210.047C172.518 208.985 172.472 208.154 172.403 207.531C172.333 207.138 172.564 206.931 173.049 206.931H176.653C176.976 206.931 177.115 207.046 177.069 207.3L177.022 208.962C177.785 208.223 178.685 207.6 179.748 207.069C180.811 206.538 182.035 206.284 183.444 206.284C186.354 206.284 188.595 207.138 190.119 208.87C191.644 210.578 192.429 213.071 192.429 216.326V231.562C192.429 231.954 192.244 232.162 191.875 232.162H188.087H188.11Z" fill="white"/>
<path d="M212.342 231.789C211.926 232.066 211.233 232.32 210.309 232.551C209.386 232.782 208.392 232.898 207.33 232.898C206.059 232.898 205.043 232.621 204.281 232.09C203.519 231.559 202.964 230.935 202.595 230.243C202.179 229.458 201.902 228.535 201.809 227.473C201.717 226.411 201.671 224.957 201.671 223.133V211.683H197.882C197.721 211.683 197.605 211.637 197.49 211.521C197.374 211.406 197.328 211.291 197.328 211.129V207.528C197.328 207.366 197.374 207.251 197.49 207.135C197.605 207.02 197.721 206.974 197.882 206.974H201.671V200.579C201.671 200.418 201.74 200.302 201.855 200.187C201.971 200.072 202.109 200.025 202.271 200.025H205.967C206.152 200.025 206.29 200.072 206.406 200.187C206.521 200.302 206.567 200.418 206.567 200.579V206.974H210.956C211.118 206.974 211.233 207.02 211.349 207.135C211.464 207.251 211.511 207.366 211.511 207.528V211.129C211.511 211.291 211.464 211.406 211.349 211.521C211.233 211.637 211.118 211.683 210.956 211.683H206.567V223.456C206.567 225.534 206.614 226.826 206.706 227.38C206.822 227.934 207.122 228.258 207.584 228.373C208.046 228.488 208.554 228.535 209.131 228.465C209.524 228.396 209.963 228.327 210.448 228.211C210.933 228.096 211.372 227.981 211.718 227.819C211.88 227.75 211.973 227.75 212.042 227.819C212.111 227.865 212.157 228.004 212.227 228.258L212.596 231.259C212.619 231.466 212.55 231.651 212.365 231.813L212.342 231.789Z" fill="white"/>
<path d="M235.718 220.712C235.718 220.966 235.649 221.127 235.51 221.266C235.372 221.381 235.233 221.45 235.072 221.45H220.058C220.219 223.482 220.843 225.144 221.975 226.437C223.107 227.729 224.631 228.376 226.594 228.376C227.588 228.376 228.743 228.237 230.013 227.983C231.283 227.729 232.461 227.268 233.524 226.644C233.732 226.529 233.87 226.529 233.94 226.69C234.009 226.852 234.032 227.037 234.032 227.291V230.43C234.032 230.707 233.986 230.915 233.893 231.077C233.801 231.238 233.616 231.377 233.339 231.538C232.438 232.023 231.353 232.369 230.128 232.577C228.904 232.785 227.634 232.9 226.363 232.9C222.598 232.9 219.734 231.769 217.817 229.507C215.877 227.245 214.93 223.92 214.93 219.534C214.93 217.895 215.138 216.279 215.576 214.71C215.992 213.14 216.639 211.709 217.517 210.462C218.394 209.216 219.48 208.223 220.82 207.461C222.159 206.699 223.73 206.33 225.555 206.33C227.38 206.33 228.974 206.676 230.267 207.369C231.561 208.061 232.623 209.008 233.432 210.208C234.263 211.386 234.841 212.771 235.21 214.363C235.58 215.956 235.764 217.641 235.764 219.419C235.764 219.627 235.764 219.881 235.741 220.158C235.741 220.435 235.741 220.619 235.741 220.758L235.718 220.712ZM225.717 210.67C224.885 210.67 224.169 210.855 223.522 211.224C222.876 211.593 222.344 212.055 221.882 212.632C221.42 213.209 221.051 213.879 220.774 214.64C220.496 215.402 220.289 216.164 220.15 216.926H230.59C230.59 216.326 230.498 215.656 230.29 214.917C230.082 214.179 229.805 213.509 229.389 212.886C228.997 212.263 228.488 211.732 227.888 211.316C227.287 210.901 226.548 210.67 225.694 210.67H225.717Z" fill="white"/>
<path d="M241.446 232.252C241.122 232.252 240.938 232.067 240.938 231.698V195.755C240.938 195.594 240.984 195.478 241.099 195.363C241.215 195.247 241.33 195.201 241.492 195.201H245.326C245.488 195.201 245.603 195.247 245.719 195.363C245.834 195.478 245.881 195.594 245.881 195.755V231.698C245.881 231.859 245.834 231.975 245.719 232.09C245.603 232.205 245.488 232.252 245.326 232.252H241.446Z" fill="white"/>
<path d="M252.477 232.252C252.154 232.252 251.969 232.067 251.969 231.698V195.755C251.969 195.594 252.015 195.478 252.13 195.363C252.246 195.247 252.361 195.201 252.523 195.201H256.357C256.519 195.201 256.635 195.247 256.75 195.363C256.866 195.478 256.912 195.594 256.912 195.755V231.698C256.912 231.859 256.866 231.975 256.75 232.09C256.635 232.205 256.519 232.252 256.357 232.252H252.477Z" fill="white"/>
<path d="M265.423 202.195C264.545 202.195 263.806 201.895 263.206 201.295C262.605 200.695 262.305 199.979 262.305 199.102C262.305 198.225 262.605 197.463 263.206 196.863C263.806 196.24 264.545 195.939 265.423 195.939C266.301 195.939 267.04 196.24 267.664 196.863C268.264 197.486 268.564 198.225 268.564 199.102C268.564 199.979 268.264 200.695 267.664 201.295C267.063 201.895 266.301 202.195 265.423 202.195ZM263.46 232.251C263.298 232.251 263.182 232.205 263.067 232.09C262.951 231.974 262.905 231.859 262.905 231.697V207.712C262.905 207.551 262.951 207.435 263.067 207.32C263.182 207.205 263.298 207.158 263.46 207.158H267.294C267.456 207.158 267.571 207.205 267.687 207.32C267.802 207.435 267.848 207.551 267.848 207.712V231.697C267.848 231.859 267.802 231.974 267.687 232.09C267.571 232.205 267.456 232.251 267.294 232.251H263.46Z" fill="white"/>
<path d="M283.104 239.271C281.88 239.271 280.679 239.179 279.501 239.017C278.322 238.856 277.144 238.555 275.99 238.117C275.712 237.955 275.528 237.84 275.412 237.748C275.297 237.655 275.25 237.494 275.25 237.286L275.481 233.592C275.551 233.015 275.851 232.854 276.382 233.131C277.422 233.639 278.53 234.031 279.731 234.285C280.933 234.539 282.064 234.677 283.127 234.677C285.113 234.677 286.684 234.169 287.839 233.131C289.017 232.092 289.641 230.684 289.733 228.883C288.948 229.737 288.024 230.361 286.938 230.799C285.876 231.215 284.813 231.446 283.797 231.446C282.272 231.446 280.863 231.145 279.547 230.545C278.23 229.945 277.121 229.137 276.174 228.075C275.227 227.036 274.488 225.767 273.957 224.312C273.426 222.858 273.148 221.265 273.148 219.534C273.148 215.033 274.049 211.708 275.874 209.538C277.676 207.369 280.286 206.307 283.658 206.307C284.259 206.307 284.882 206.376 285.506 206.537C286.13 206.699 286.73 206.884 287.308 207.138C287.885 207.392 288.416 207.669 288.902 207.992C289.387 208.315 289.802 208.661 290.172 209.008L290.126 207.415C290.103 207.184 290.126 206.999 290.172 206.907C290.241 206.814 290.426 206.768 290.726 206.768H294.33C294.699 206.768 294.884 206.999 294.884 207.461V226.298C294.884 230.407 293.891 233.592 291.881 235.855C289.872 238.117 286.938 239.248 283.081 239.248L283.104 239.271ZM284.259 210.808C282.342 210.808 280.886 211.501 279.847 212.909C278.831 214.317 278.322 216.533 278.322 219.557C278.322 220.711 278.484 221.75 278.784 222.65C279.085 223.574 279.5 224.336 280.032 224.959C280.563 225.582 281.164 226.067 281.857 226.39C282.549 226.713 283.266 226.898 284.028 226.898C284.882 226.898 285.668 226.736 286.407 226.39C287.146 226.044 287.77 225.559 288.324 224.936C288.878 224.289 289.294 223.528 289.618 222.604C289.941 221.704 290.103 220.642 290.103 219.465C290.103 216.695 289.595 214.571 288.555 213.047C287.516 211.547 286.084 210.785 284.259 210.785V210.808Z" fill="white"/>
<path d="M321.39 220.712C321.39 220.966 321.321 221.127 321.182 221.266C321.044 221.381 320.905 221.45 320.743 221.45H305.729C305.891 223.482 306.515 225.144 307.647 226.437C308.778 227.729 310.303 228.376 312.266 228.376C313.259 228.376 314.414 228.237 315.685 227.983C316.955 227.729 318.133 227.268 319.196 226.644C319.404 226.529 319.542 226.529 319.612 226.69C319.681 226.852 319.704 227.037 319.704 227.291V230.43C319.704 230.707 319.658 230.915 319.565 231.077C319.473 231.238 319.288 231.377 319.011 231.538C318.087 232.023 317.025 232.369 315.8 232.577C314.576 232.785 313.306 232.9 312.035 232.9C308.27 232.9 305.406 231.769 303.489 229.507C301.549 227.245 300.602 223.92 300.602 219.534C300.602 217.895 300.809 216.279 301.248 214.71C301.664 213.14 302.311 211.709 303.189 210.462C304.066 209.216 305.152 208.223 306.492 207.461C307.831 206.699 309.402 206.33 311.227 206.33C313.052 206.33 314.645 206.676 315.939 207.369C317.232 208.061 318.295 209.008 319.103 210.208C319.935 211.386 320.512 212.771 320.882 214.363C321.252 215.956 321.436 217.641 321.436 219.419C321.436 219.627 321.436 219.881 321.413 220.158C321.413 220.435 321.413 220.619 321.413 220.758L321.39 220.712ZM311.389 210.67C310.557 210.67 309.841 210.855 309.194 211.224C308.547 211.593 308.016 212.055 307.554 212.632C307.092 213.209 306.723 213.879 306.445 214.64C306.168 215.402 305.96 216.164 305.822 216.926H316.262C316.262 216.326 316.17 215.656 315.962 214.917C315.754 214.179 315.477 213.509 315.061 212.886C314.668 212.263 314.16 211.732 313.56 211.316C312.959 210.901 312.22 210.67 311.365 210.67H311.389Z" fill="white"/>
<path d="M342.797 232.162C342.635 232.162 342.52 232.092 342.404 231.954C342.289 231.815 342.242 231.677 342.242 231.515V217.018C342.242 214.825 341.896 213.256 341.203 212.286C340.51 211.317 339.447 210.832 337.992 210.832C335.983 210.832 334.504 211.386 333.534 212.494C332.564 213.602 332.102 215.218 332.102 217.295V231.562C332.102 231.954 331.917 232.162 331.548 232.162H327.76C327.598 232.162 327.483 232.092 327.367 231.954C327.252 231.815 327.205 231.677 327.205 231.515V213.371C327.205 212.217 327.205 211.109 327.182 210.047C327.182 208.985 327.136 208.154 327.067 207.531C326.997 207.138 327.228 206.931 327.714 206.931H331.317C331.64 206.931 331.779 207.046 331.733 207.3L331.686 208.962C332.449 208.223 333.349 207.6 334.435 207.069C335.498 206.538 336.722 206.284 338.131 206.284C341.041 206.284 343.282 207.138 344.806 208.87C346.331 210.578 347.116 213.071 347.116 216.326V231.562C347.116 231.954 346.931 232.162 346.562 232.162H342.774H342.797Z" fill="white"/>
<path d="M371.303 232.115C370.957 232.23 370.564 232.346 370.079 232.438C369.594 232.53 369.063 232.6 368.508 232.669C367.954 232.738 367.353 232.761 366.73 232.784C366.106 232.784 365.505 232.784 364.928 232.761C363.011 232.646 361.325 232.23 359.846 231.515C358.368 230.799 357.121 229.876 356.127 228.721C355.134 227.567 354.372 226.205 353.864 224.635C353.356 223.066 353.102 221.381 353.102 219.557C353.102 217.641 353.402 215.886 354.025 214.271C354.626 212.655 355.481 211.27 356.613 210.092C357.721 208.915 359.061 208.015 360.609 207.368C362.156 206.722 363.889 206.422 365.806 206.422C366.753 206.422 367.7 206.468 368.647 206.583C369.594 206.699 370.541 206.907 371.442 207.207C371.557 207.23 371.65 207.299 371.719 207.391C371.788 207.484 371.788 207.668 371.765 207.945L371.349 211.085C371.326 211.293 371.257 211.454 371.141 211.547C371.026 211.639 370.841 211.662 370.564 211.593C369.894 211.339 369.109 211.177 368.208 211.085C367.307 210.993 366.476 210.946 365.667 210.946C363.196 210.946 361.325 211.731 360.054 213.324C358.784 214.917 358.137 216.995 358.137 219.58C358.137 222.165 358.738 224.081 359.939 225.605C361.14 227.129 362.872 228.029 365.159 228.306C367.261 228.56 369.132 228.421 370.772 227.89C371.072 227.775 371.257 227.752 371.349 227.844C371.419 227.936 371.488 228.075 371.511 228.26L371.742 231.399C371.765 231.653 371.742 231.815 371.742 231.93C371.696 232.046 371.557 232.115 371.303 232.184V232.115Z" fill="white"/>
<path d="M395.984 220.712C395.984 220.966 395.915 221.127 395.776 221.266C395.637 221.381 395.499 221.45 395.337 221.45H380.323C380.485 223.482 381.109 225.144 382.24 226.437C383.372 227.729 384.897 228.376 386.86 228.376C387.853 228.376 389.008 228.237 390.279 227.983C391.549 227.729 392.727 227.268 393.79 226.644C393.997 226.529 394.136 226.529 394.205 226.69C394.275 226.852 394.298 227.037 394.298 227.291V230.43C394.298 230.707 394.252 230.915 394.159 231.077C394.067 231.238 393.882 231.377 393.605 231.538C392.681 232.023 391.618 232.369 390.394 232.577C389.17 232.785 387.899 232.9 386.629 232.9C382.864 232.9 380 231.769 378.083 229.507C376.142 227.245 375.195 223.92 375.195 219.534C375.195 217.895 375.403 216.279 375.842 214.71C376.258 213.14 376.905 211.709 377.782 210.462C378.66 209.216 379.746 208.223 381.085 207.461C382.425 206.699 383.996 206.33 385.821 206.33C387.645 206.33 389.239 206.676 390.533 207.369C391.826 208.061 392.889 209.008 393.697 210.208C394.529 211.386 395.106 212.771 395.476 214.363C395.845 215.956 396.03 217.641 396.03 219.419C396.03 219.627 396.03 219.881 396.03 220.158C396.03 220.435 396.03 220.619 396.03 220.758L395.984 220.712ZM385.982 210.67C385.151 210.67 384.435 210.855 383.788 211.224C383.141 211.593 382.61 212.055 382.148 212.632C381.686 213.209 381.316 213.879 381.039 214.64C380.739 215.402 380.554 216.164 380.416 216.926H390.856C390.856 216.326 390.764 215.656 390.556 214.917C390.371 214.179 390.071 213.509 389.678 212.886C389.285 212.263 388.777 211.732 388.177 211.316C387.576 210.901 386.837 210.67 385.982 210.67Z" fill="white"/>
<path d="M430.41 229.734C429.625 230.588 428.608 231.303 427.384 231.904C426.16 232.504 424.843 232.85 423.481 232.966C422.741 233.035 421.933 233.035 421.032 232.966C420.131 232.896 419.277 232.804 418.422 232.665C417.59 232.527 416.828 232.365 416.135 232.204C415.442 232.042 414.957 231.881 414.657 231.719C414.195 231.511 413.918 231.35 413.825 231.234C413.733 231.119 413.71 230.911 413.779 230.565L414.103 227.194C414.126 226.94 414.218 226.802 414.334 226.733C414.449 226.663 414.68 226.733 415.027 226.871C415.396 227.033 415.904 227.194 416.574 227.402C417.244 227.61 417.983 227.772 418.815 227.91C419.646 228.049 420.455 228.141 421.309 228.164C422.164 228.187 422.903 228.141 423.573 227.979C424.451 227.772 425.167 227.495 425.721 227.125C426.275 226.779 426.691 226.363 427.015 225.902C427.338 225.44 427.546 224.909 427.684 224.355C427.8 223.801 427.869 223.201 427.869 222.601C427.869 222.024 427.5 221.239 426.761 220.223C426.021 219.23 424.936 218.307 423.55 217.476C421.841 216.46 420.362 215.537 419.115 214.66C417.868 213.805 416.851 212.928 416.043 212.074C415.234 211.22 414.634 210.343 414.241 209.419C413.848 208.496 413.641 207.503 413.641 206.418C413.641 205.172 413.918 203.972 414.449 202.84C414.98 201.709 415.719 200.694 416.643 199.863C417.567 199.008 418.676 198.339 419.97 197.831C421.263 197.323 422.695 197.069 424.243 197.069C425.79 197.069 427.13 197.162 428.146 197.369C429.163 197.577 430.041 197.808 430.78 198.085C431.103 198.2 431.311 198.339 431.403 198.477C431.473 198.616 431.496 198.801 431.403 199.008L430.803 201.917C430.733 202.263 430.641 202.471 430.502 202.61C430.364 202.725 430.133 202.725 429.786 202.61C429.324 202.448 428.839 202.309 428.285 202.171C427.731 202.032 427.176 201.917 426.599 201.825C426.021 201.732 425.467 201.663 424.936 201.64C424.404 201.617 423.919 201.64 423.504 201.686C421.794 201.963 420.616 202.517 419.923 203.348C419.23 204.179 418.907 205.241 418.907 206.511C418.907 207.273 419.3 208.104 420.085 209.05C420.87 209.973 422.025 210.897 423.55 211.82C425.467 212.974 427.038 214.013 428.262 214.914C429.486 215.814 430.456 216.691 431.172 217.545C431.888 218.376 432.397 219.23 432.674 220.084C432.951 220.939 433.113 221.862 433.113 222.878C433.113 225.555 432.212 227.841 430.433 229.711L430.41 229.734Z" fill="white"/>
<path d="M458.551 228.699C457.466 230.061 456.149 231.1 454.624 231.815C453.1 232.531 451.391 232.877 449.473 232.877C447.556 232.877 445.801 232.531 444.323 231.838C442.821 231.146 441.597 230.176 440.581 228.976C439.587 227.752 438.825 226.344 438.317 224.728C437.809 223.112 437.555 221.404 437.555 219.581C437.555 217.757 437.809 216.049 438.317 214.433C438.825 212.817 439.564 211.409 440.581 210.208C441.574 209.008 442.821 208.061 444.299 207.369C445.778 206.676 447.51 206.33 449.473 206.33C451.437 206.33 453.146 206.676 454.624 207.369C456.126 208.061 457.373 209.008 458.366 210.208C459.36 211.409 460.122 212.817 460.63 214.433C461.138 216.049 461.392 217.757 461.392 219.581C461.392 221.404 461.138 223.043 460.653 224.613C460.168 226.183 459.475 227.545 458.551 228.699ZM449.473 210.762C448.295 210.762 447.256 211.016 446.401 211.547C445.524 212.055 444.831 212.748 444.276 213.579C443.722 214.41 443.329 215.356 443.052 216.395C442.775 217.434 442.636 218.496 442.636 219.557C442.636 220.619 442.775 221.681 443.052 222.72C443.329 223.759 443.745 224.728 444.276 225.559C444.831 226.413 445.524 227.083 446.401 227.614C447.256 228.122 448.295 228.399 449.473 228.399C450.652 228.399 451.691 228.145 452.546 227.614C453.4 227.106 454.116 226.413 454.671 225.559C455.225 224.705 455.641 223.759 455.895 222.72C456.172 221.681 456.311 220.619 456.311 219.557C456.311 218.496 456.172 217.48 455.895 216.441C455.618 215.402 455.202 214.456 454.671 213.602C454.116 212.771 453.423 212.078 452.546 211.547C451.668 211.016 450.652 210.739 449.473 210.739V210.762Z" fill="white"/>
<path d="M466.946 232.252C466.622 232.252 466.438 232.067 466.438 231.698V195.755C466.438 195.594 466.484 195.478 466.599 195.363C466.715 195.247 466.83 195.201 466.992 195.201H470.826C470.988 195.201 471.103 195.247 471.219 195.363C471.334 195.478 471.381 195.594 471.381 195.755V231.698C471.381 231.859 471.334 231.975 471.219 232.09C471.103 232.205 470.988 232.252 470.826 232.252H466.946Z" fill="white"/>
<path d="M493.971 232.161C493.809 232.161 493.694 232.114 493.579 232.045C493.463 231.976 493.44 231.86 493.463 231.699V229.875C492.678 230.845 491.708 231.607 490.576 232.114C489.444 232.645 488.243 232.899 486.995 232.899C484.039 232.899 481.845 232.022 480.366 230.291C478.911 228.559 478.172 226.089 478.172 222.858V207.576C478.172 207.414 478.218 207.276 478.334 207.137C478.449 206.999 478.565 206.929 478.726 206.929H482.468C482.63 206.929 482.745 206.999 482.884 207.16C482.999 207.322 483.069 207.46 483.069 207.622V222.119C483.069 224.404 483.438 226.02 484.177 226.943C484.917 227.89 486.025 228.352 487.481 228.352C489.121 228.352 490.483 227.728 491.569 226.482C492.655 225.235 493.186 223.388 493.186 220.918V207.553C493.186 207.391 493.232 207.253 493.348 207.114C493.463 206.976 493.578 206.906 493.74 206.906H497.528C497.69 206.906 497.806 206.999 497.921 207.16C498.036 207.322 498.083 207.483 498.083 207.645V226.251C498.083 227.197 498.083 228.121 498.129 229.044C498.152 229.944 498.175 230.799 498.175 231.56C498.175 231.953 498.013 232.161 497.667 232.161H493.971Z" fill="white"/>
<path d="M518.03 231.789C517.614 232.066 516.921 232.32 515.997 232.551C515.073 232.782 514.08 232.898 513.018 232.898C511.747 232.898 510.731 232.621 509.969 232.09C509.206 231.559 508.652 230.935 508.282 230.243C507.867 229.458 507.589 228.535 507.52 227.473C507.428 226.411 507.382 224.957 507.382 223.133V211.683H503.593C503.432 211.683 503.316 211.637 503.201 211.521C503.085 211.406 503.039 211.291 503.039 211.129V207.528C503.039 207.366 503.085 207.251 503.201 207.135C503.316 207.02 503.432 206.974 503.593 206.974H507.382V200.579C507.382 200.418 507.451 200.302 507.566 200.187C507.682 200.072 507.82 200.025 507.982 200.025H511.678C511.863 200.025 512.001 200.072 512.117 200.187C512.232 200.302 512.278 200.418 512.278 200.579V206.974H516.667C516.829 206.974 516.944 207.02 517.06 207.135C517.175 207.251 517.221 207.366 517.221 207.528V211.129C517.221 211.291 517.175 211.406 517.06 211.521C516.944 211.637 516.829 211.683 516.667 211.683H512.278V223.456C512.278 225.534 512.325 226.826 512.417 227.38C512.533 227.934 512.833 228.258 513.272 228.373C513.734 228.488 514.242 228.535 514.819 228.465C515.212 228.396 515.651 228.327 516.136 228.211C516.621 228.096 517.037 227.981 517.406 227.819C517.568 227.75 517.66 227.75 517.73 227.819C517.799 227.865 517.845 228.004 517.914 228.258L518.284 231.259C518.307 231.466 518.238 231.651 518.053 231.813L518.03 231.789Z" fill="white"/>
<path d="M524.142 202.195C523.264 202.195 522.525 201.895 521.925 201.295C521.324 200.695 521.047 199.979 521.047 199.102C521.047 198.225 521.347 197.463 521.925 196.863C522.525 196.24 523.264 195.939 524.142 195.939C525.02 195.939 525.759 196.24 526.383 196.863C526.983 197.486 527.307 198.225 527.307 199.102C527.307 199.979 527.006 200.695 526.383 201.295C525.782 201.895 525.02 202.195 524.142 202.195ZM522.179 232.251C522.017 232.251 521.901 232.205 521.786 232.09C521.671 231.974 521.624 231.859 521.624 231.697V207.712C521.624 207.551 521.671 207.435 521.786 207.32C521.901 207.205 522.017 207.158 522.179 207.158H526.013C526.175 207.158 526.29 207.205 526.406 207.32C526.521 207.435 526.567 207.551 526.567 207.712V231.697C526.567 231.859 526.521 231.974 526.406 232.09C526.29 232.205 526.175 232.251 526.013 232.251H522.179Z" fill="white"/>
<path d="M552.481 228.699C551.395 230.061 550.079 231.1 548.554 231.815C547.03 232.531 545.32 232.877 543.403 232.877C541.486 232.877 539.731 232.531 538.252 231.838C536.751 231.146 535.527 230.176 534.51 228.976C533.517 227.752 532.755 226.344 532.247 224.728C531.738 223.112 531.484 221.404 531.484 219.581C531.484 217.757 531.738 216.049 532.247 214.433C532.755 212.817 533.494 211.409 534.51 210.208C535.503 209.008 536.751 208.061 538.229 207.369C539.707 206.676 541.44 206.33 543.403 206.33C545.367 206.33 547.076 206.676 548.554 207.369C550.056 208.061 551.303 209.008 552.296 210.208C553.289 211.409 554.052 212.817 554.56 214.433C555.068 216.049 555.322 217.757 555.322 219.581C555.322 221.404 555.068 223.043 554.583 224.613C554.098 226.183 553.405 227.545 552.481 228.699ZM543.403 210.762C542.225 210.762 541.186 211.016 540.331 211.547C539.453 212.055 538.76 212.748 538.206 213.579C537.652 214.41 537.236 215.356 536.982 216.395C536.705 217.434 536.566 218.496 536.566 219.557C536.566 220.619 536.705 221.681 536.982 222.72C537.259 223.759 537.675 224.728 538.206 225.559C538.76 226.413 539.453 227.083 540.331 227.614C541.186 228.122 542.225 228.399 543.403 228.399C544.581 228.399 545.621 228.145 546.475 227.614C547.33 227.106 548.046 226.413 548.6 225.559C549.155 224.705 549.547 223.759 549.825 222.72C550.102 221.681 550.24 220.619 550.24 219.557C550.24 218.496 550.102 217.48 549.825 216.441C549.547 215.402 549.132 214.456 548.6 213.602C548.046 212.771 547.353 212.078 546.475 211.547C545.598 211.016 544.581 210.739 543.403 210.739V210.762Z" fill="white"/>
<path d="M576.649 232.162C576.487 232.162 576.371 232.092 576.256 231.954C576.14 231.815 576.094 231.677 576.094 231.515V217.018C576.094 214.825 575.748 213.256 575.055 212.286C574.362 211.317 573.299 210.832 571.844 210.832C569.835 210.832 568.356 211.386 567.386 212.494C566.416 213.602 565.954 215.218 565.954 217.295V231.562C565.954 231.954 565.769 232.162 565.4 232.162H561.612C561.45 232.162 561.334 232.092 561.219 231.954C561.103 231.815 561.057 231.677 561.057 231.515V213.371C561.057 212.217 561.057 211.109 561.057 210.047C561.057 208.985 561.011 208.154 560.942 207.531C560.872 207.138 561.103 206.931 561.589 206.931H565.192C565.515 206.931 565.654 207.046 565.608 207.3L565.561 208.962C566.324 208.223 567.224 207.6 568.31 207.069C569.373 206.538 570.597 206.284 572.006 206.284C574.916 206.284 577.157 207.138 578.681 208.87C580.206 210.578 580.991 213.071 580.991 216.326V231.562C580.991 231.954 580.806 232.162 580.437 232.162H576.649Z" fill="white"/>
<path d="M607.064 218.241V231.607C607.064 231.999 606.856 232.207 606.463 232.207H602.398C602.029 232.207 601.844 231.999 601.844 231.607V198.366C601.844 198.204 601.89 198.089 602.005 197.973C602.121 197.858 602.236 197.812 602.398 197.812H611.614C614.987 197.812 617.666 198.643 619.629 200.282C621.593 201.921 622.563 204.483 622.563 207.946C622.563 209.608 622.286 211.108 621.708 212.401C621.154 213.694 620.346 214.779 619.329 215.633C618.313 216.487 617.112 217.156 615.726 217.595C614.34 218.033 612.839 218.264 611.176 218.264H607.018L607.064 218.241ZM607.064 202.613V213.509H610.76C612.792 213.509 614.409 213.07 615.587 212.216C616.765 211.362 617.366 209.908 617.366 207.899C617.366 206.168 616.904 204.852 615.957 203.952C615.01 203.052 613.786 202.613 612.261 202.613H607.064Z" fill="white"/>
<path d="M639.77 211.547C639.17 211.385 638.639 211.293 638.177 211.247C637.715 211.201 637.322 211.201 636.999 211.247C636.098 211.431 635.359 211.824 634.781 212.401C634.227 213.001 633.788 213.694 633.511 214.479C633.21 215.263 633.026 216.118 632.933 217.041C632.841 217.941 632.795 218.818 632.795 219.649V231.515C632.795 231.93 632.61 232.161 632.24 232.161H628.452C628.129 232.161 627.944 231.93 627.944 231.469V213.094C627.944 212.124 627.944 211.154 627.898 210.185C627.875 209.215 627.852 208.361 627.852 207.623C627.852 207.346 627.898 207.184 627.99 207.092C628.083 207.022 628.244 206.976 628.452 206.976H632.24C632.448 206.976 632.587 206.999 632.61 207.068C632.633 207.138 632.656 207.23 632.656 207.392V209.423C632.864 209.054 633.141 208.684 633.511 208.315C633.857 207.946 634.25 207.623 634.642 207.322C635.058 207.022 635.474 206.791 635.89 206.63C636.306 206.468 636.721 206.376 637.068 206.376C637.645 206.376 638.177 206.376 638.638 206.376C639.1 206.376 639.609 206.561 640.117 206.861C640.279 206.93 640.371 207.022 640.394 207.161C640.417 207.299 640.44 207.438 640.44 207.553V210.97C640.44 211.085 640.394 211.224 640.302 211.385C640.209 211.547 640.024 211.593 639.747 211.524L639.77 211.547Z" fill="white"/>
<path d="M663.457 228.699C662.372 230.061 661.055 231.1 659.531 231.815C658.006 232.531 656.297 232.877 654.38 232.877C652.463 232.877 650.707 232.531 649.229 231.838C647.727 231.146 646.503 230.176 645.487 228.976C644.494 227.752 643.731 226.344 643.223 224.728C642.715 223.112 642.461 221.404 642.461 219.581C642.461 217.757 642.715 216.049 643.223 214.433C643.731 212.817 644.47 211.409 645.487 210.208C646.48 209.008 647.727 208.061 649.206 207.369C650.684 206.676 652.416 206.33 654.38 206.33C656.343 206.33 658.052 206.676 659.531 207.369C661.032 208.061 662.279 209.008 663.273 210.208C664.266 211.409 665.028 212.817 665.536 214.433C666.044 216.049 666.299 217.757 666.299 219.581C666.299 221.404 666.044 223.043 665.559 224.613C665.074 226.183 664.381 227.545 663.457 228.699ZM654.357 210.762C653.179 210.762 652.139 211.016 651.285 211.547C650.407 212.055 649.714 212.748 649.159 213.579C648.605 214.41 648.212 215.356 647.935 216.395C647.658 217.434 647.519 218.496 647.519 219.557C647.519 220.619 647.658 221.681 647.935 222.72C648.212 223.759 648.628 224.728 649.159 225.559C649.714 226.413 650.407 227.083 651.285 227.614C652.139 228.122 653.179 228.399 654.357 228.399C655.535 228.399 656.574 228.145 657.429 227.614C658.283 227.106 658.999 226.413 659.554 225.559C660.108 224.705 660.501 223.759 660.778 222.72C661.055 221.681 661.194 220.619 661.194 219.557C661.194 218.496 661.055 217.48 660.778 216.441C660.501 215.402 660.085 214.456 659.554 213.602C658.999 212.771 658.306 212.078 657.429 211.547C656.551 211.016 655.535 210.739 654.357 210.739V210.762Z" fill="white"/>
<path d="M681.53 232.045C681.53 232.045 681.345 232.114 681.161 232.114H677.234C677.049 232.114 676.934 232.114 676.841 232.045C676.772 231.999 676.703 231.884 676.633 231.699L668.341 207.483C668.272 207.322 668.272 207.206 668.341 207.114C668.41 207.022 668.595 206.976 668.942 206.976H672.914C673.076 206.976 673.192 206.976 673.284 207.045C673.376 207.091 673.446 207.183 673.515 207.345L679.22 224.566L684.879 207.345C684.949 207.183 685.018 207.091 685.134 207.045C685.249 206.999 685.365 206.976 685.526 206.976H689.545C689.869 206.976 690.077 207.022 690.146 207.114C690.215 207.206 690.215 207.322 690.146 207.483L681.761 231.699C681.692 231.884 681.646 231.999 681.576 232.045H681.53Z" fill="white"/>
<path d="M695.884 202.195C695.007 202.195 694.267 201.895 693.667 201.295C693.066 200.695 692.789 199.979 692.789 199.102C692.789 198.225 693.089 197.463 693.667 196.863C694.267 196.24 695.007 195.939 695.884 195.939C696.762 195.939 697.501 196.24 698.125 196.863C698.725 197.486 699.049 198.225 699.049 199.102C699.049 199.979 698.748 200.695 698.125 201.295C697.524 201.895 696.762 202.195 695.884 202.195ZM693.921 232.251C693.759 232.251 693.644 232.205 693.528 232.09C693.413 231.974 693.367 231.859 693.367 231.697V207.712C693.367 207.551 693.413 207.435 693.528 207.32C693.644 207.205 693.759 207.158 693.921 207.158H697.755C697.917 207.158 698.032 207.205 698.148 207.32C698.263 207.435 698.31 207.551 698.31 207.712V231.697C698.31 231.859 698.263 231.974 698.148 232.09C698.032 232.205 697.917 232.251 697.755 232.251H693.921Z" fill="white"/>
<path d="M721.15 232.298C720.688 232.298 720.457 232.044 720.457 231.56V229.828C719.857 230.682 718.956 231.398 717.778 231.975C716.6 232.552 715.399 232.829 714.175 232.829C712.535 232.829 711.056 232.529 709.763 231.906C708.469 231.283 707.384 230.382 706.483 229.228C705.582 228.051 704.912 226.643 704.427 224.981C703.942 223.318 703.711 221.426 703.711 219.325C703.711 217.224 703.965 215.447 704.45 213.785C704.935 212.123 705.628 210.737 706.529 209.583C707.43 208.429 708.515 207.529 709.809 206.905C711.102 206.259 712.558 205.959 714.175 205.959C715.399 205.959 716.531 206.213 717.616 206.698C718.702 207.183 719.649 207.875 720.457 208.752V195.71C720.457 195.456 720.504 195.317 720.573 195.225C720.642 195.156 720.781 195.109 721.012 195.109H724.754C725.146 195.109 725.354 195.317 725.354 195.71V231.606C725.354 231.86 725.285 232.021 725.123 232.16C724.962 232.275 724.8 232.344 724.615 232.344H721.15V232.298ZM714.683 210.576C712.789 210.576 711.357 211.338 710.34 212.884C709.347 214.408 708.839 216.555 708.839 219.325C708.839 222.303 709.347 224.519 710.386 226.019C711.426 227.497 712.858 228.259 714.683 228.259C715.468 228.259 716.23 228.074 716.923 227.658C717.616 227.266 718.24 226.689 718.771 225.927C719.302 225.165 719.718 224.242 720.018 223.134C720.319 222.026 720.48 220.756 720.48 219.325C720.48 216.393 719.972 214.2 718.956 212.746C717.94 211.315 716.507 210.576 714.683 210.576Z" fill="white"/>
<path d="M751.835 220.712C751.835 220.966 751.766 221.127 751.628 221.266C751.489 221.381 751.35 221.45 751.189 221.45H736.175C736.336 223.482 736.96 225.144 738.092 226.437C739.224 227.729 740.748 228.376 742.712 228.376C743.705 228.376 744.86 228.237 746.13 227.983C747.401 227.729 748.579 227.268 749.641 226.644C749.849 226.529 749.988 226.529 750.057 226.69C750.126 226.852 750.149 227.037 750.149 227.291V230.43C750.149 230.707 750.103 230.915 750.011 231.077C749.918 231.238 749.734 231.377 749.456 231.538C748.532 232.023 747.47 232.369 746.246 232.577C745.021 232.785 743.751 232.9 742.481 232.9C738.716 232.9 735.851 231.769 733.934 229.507C731.994 227.245 731.047 223.92 731.047 219.534C731.047 217.895 731.255 216.279 731.694 214.71C732.109 213.14 732.756 211.709 733.634 210.462C734.512 209.216 735.597 208.223 736.937 207.461C738.277 206.699 739.847 206.33 741.672 206.33C743.497 206.33 745.091 206.676 746.384 207.369C747.678 208.061 748.74 209.008 749.549 210.208C750.38 211.386 750.958 212.771 751.327 214.363C751.697 215.956 751.882 217.641 751.882 219.419C751.882 219.627 751.882 219.881 751.882 220.158C751.882 220.435 751.882 220.619 751.882 220.758L751.835 220.712ZM741.834 210.67C741.002 210.67 740.286 210.855 739.639 211.224C738.993 211.593 738.461 212.055 737.999 212.632C737.537 213.209 737.168 213.879 736.891 214.64C736.59 215.402 736.406 216.164 736.267 216.926H746.708C746.708 216.326 746.615 215.656 746.407 214.917C746.223 214.179 745.922 213.509 745.53 212.886C745.137 212.263 744.629 211.732 744.028 211.316C743.428 210.901 742.688 210.67 741.834 210.67Z" fill="white"/>
<path d="M769.606 211.547C769.006 211.385 768.474 211.293 768.012 211.247C767.55 211.201 767.158 211.201 766.834 211.247C765.934 211.431 765.194 211.824 764.617 212.401C764.063 213.001 763.624 213.694 763.347 214.479C763.046 215.263 762.862 216.118 762.769 217.041C762.677 217.941 762.631 218.818 762.631 219.649V231.515C762.631 231.93 762.446 232.161 762.076 232.161H758.288C757.965 232.161 757.78 231.93 757.78 231.469V213.094C757.78 212.124 757.78 211.154 757.734 210.185C757.711 209.215 757.688 208.361 757.688 207.623C757.688 207.346 757.734 207.184 757.826 207.092C757.918 207.022 758.08 206.976 758.288 206.976H762.076C762.284 206.976 762.423 206.999 762.446 207.068C762.469 207.138 762.492 207.23 762.492 207.392V209.423C762.7 209.054 762.977 208.684 763.347 208.315C763.693 207.946 764.086 207.623 764.478 207.322C764.894 207.022 765.31 206.791 765.726 206.63C766.141 206.468 766.557 206.376 766.904 206.376C767.481 206.376 768.012 206.376 768.474 206.376C768.936 206.376 769.445 206.561 769.953 206.861C770.114 206.93 770.207 207.022 770.23 207.161C770.253 207.299 770.276 207.438 770.276 207.553V210.97C770.276 211.085 770.23 211.224 770.138 211.385C770.045 211.547 769.86 211.593 769.583 211.524L769.606 211.547Z" fill="white"/>
</g>
<defs>
<clipPath id="clip0_5290_45616">
<rect width="793.385" height="245.571" fill="white" transform="translate(0.3125)"/>
</clipPath>
</defs>
</svg>
