<svg width="48" height="48" viewBox="0 0 48 48" fill="none" xmlns="http://www.w3.org/2000/svg">
<path d="M22.25 1.58771C23.3329 0.962498 24.6671 0.962498 25.75 1.58771L42.5346 11.2783C43.6175 11.9035 44.2846 13.059 44.2846 14.3094V33.6906C44.2846 34.941 43.6175 36.0965 42.5346 36.7217L25.75 46.4123C24.6671 47.0375 23.3329 47.0375 22.25 46.4123L5.46539 36.7217C4.38249 36.0965 3.71539 34.941 3.71539 33.6906V14.3094C3.71539 13.059 4.38249 11.9035 5.46539 11.2783L22.25 1.58771Z" fill="black" stroke="black"/>
<path d="M24 32V16M24 16L18 22M24 16L30 22" stroke="white" stroke-width="2" stroke-linecap="round" stroke-linejoin="round"/>
</svg>
